<svg width="173" height="49" viewBox="0 0 173 49" fill="none" xmlns="http://www.w3.org/2000/svg">
<path d="M12.8545 22.4352C13.4676 12.9312 21.2908 5.49943 30.8137 5.37454L143.083 3.90223C153.264 3.76872 161.828 11.5038 162.728 21.646C163.744 33.0992 154.665 42.933 143.167 42.8319L30.8925 41.8446C20.4229 41.7526 12.1804 32.8835 12.8545 22.4352Z" fill="url(#paint0_linear)"/>
<path d="M13.9272 22.9633C14.308 13.7258 21.8493 6.40082 31.0939 6.28897L143.264 4.93191C152.925 4.81504 161.017 12.2176 161.759 21.8503C162.581 32.5281 154.112 41.633 143.402 41.5841L31.2248 41.0713C21.3699 41.0263 13.5212 32.8099 13.9272 22.9633Z" fill="url(#paint1_linear)"/>
<path d="M15.9784 22.7912C16.2035 14.0913 23.3018 7.14525 32.0045 7.10884L142.749 6.64552C150.813 6.61179 157.633 12.6015 158.641 20.6018C159.835 30.0828 152.481 38.479 142.926 38.5447L32.1825 39.306C23.0851 39.3685 15.7432 31.8859 15.9784 22.7912Z" fill="url(#paint2_radial)"/>
<path d="M41.1576 22.6395C40.6296 22.4595 40.1496 22.2795 39.7176 22.0995C39.2856 21.9075 38.9136 21.6795 38.6016 21.4155C38.2896 21.1515 38.0436 20.8395 37.8636 20.4795C37.6956 20.1075 37.6116 19.6575 37.6116 19.1295C37.6116 18.1095 38.0016 17.2935 38.7816 16.6815C39.5736 16.0695 40.6776 15.7635 42.0936 15.7635C42.6096 15.7635 43.0896 15.7995 43.5336 15.8715C43.9776 15.9435 44.3556 16.0575 44.6676 16.2135C44.9916 16.3575 45.2436 16.5495 45.4236 16.7895C45.6036 17.0175 45.6936 17.2875 45.6936 17.5995C45.6936 17.9115 45.6216 18.1815 45.4776 18.4095C45.3336 18.6255 45.1596 18.8115 44.9556 18.9675C44.6916 18.7995 44.3376 18.6555 43.8936 18.5355C43.4496 18.4035 42.9636 18.3375 42.4356 18.3375C41.8956 18.3375 41.4996 18.4155 41.2476 18.5715C40.9956 18.7155 40.8696 18.9015 40.8696 19.1295C40.8696 19.3095 40.9476 19.4595 41.1036 19.5795C41.2596 19.6875 41.4936 19.7895 41.8056 19.8855L42.7596 20.1915C43.8876 20.5515 44.7516 21.0135 45.3516 21.5775C45.9636 22.1295 46.2696 22.8855 46.2696 23.8455C46.2696 24.8655 45.8676 25.6935 45.0636 26.3295C44.2596 26.9535 43.0776 27.2655 41.5176 27.2655C40.9656 27.2655 40.4496 27.2175 39.9696 27.1215C39.5016 27.0375 39.0876 26.9115 38.7276 26.7435C38.3796 26.5635 38.1036 26.3475 37.8996 26.0955C37.7076 25.8315 37.6116 25.5315 37.6116 25.1955C37.6116 24.8475 37.7136 24.5535 37.9176 24.3135C38.1216 24.0615 38.3436 23.8695 38.5836 23.7375C38.9196 24.0015 39.3276 24.2295 39.8076 24.4215C40.2996 24.6135 40.8336 24.7095 41.4096 24.7095C41.9976 24.7095 42.4116 24.6195 42.6516 24.4395C42.8916 24.2595 43.0116 24.0495 43.0116 23.8095C43.0116 23.5695 42.9156 23.3895 42.7236 23.2695C42.5316 23.1375 42.2616 23.0115 41.9136 22.8915L41.1576 22.6395ZM47.0632 18.5895C46.9792 18.4575 46.9012 18.2775 46.8292 18.0495C46.7572 17.8215 46.7212 17.5815 46.7212 17.3295C46.7212 16.8615 46.8232 16.5255 47.0272 16.3215C47.2432 16.1175 47.5192 16.0155 47.8552 16.0155H55.7032C55.7872 16.1475 55.8652 16.3275 55.9372 16.5555C56.0092 16.7835 56.0452 17.0235 56.0452 17.2755C56.0452 17.7435 55.9372 18.0795 55.7212 18.2835C55.5172 18.4875 55.2472 18.5895 54.9112 18.5895H52.9132V26.9055C52.7812 26.9415 52.5712 26.9775 52.2832 27.0135C52.0072 27.0495 51.7312 27.0675 51.4552 27.0675C51.1792 27.0675 50.9332 27.0435 50.7172 26.9955C50.5132 26.9595 50.3392 26.8875 50.1952 26.7795C50.0512 26.6715 49.9432 26.5215 49.8712 26.3295C49.7992 26.1375 49.7632 25.8855 49.7632 25.5735V18.5895H47.0632ZM58.9904 16.3935C59.1944 16.2735 59.5004 16.1595 59.9084 16.0515C60.3284 15.9435 60.7484 15.8895 61.1684 15.8895C61.7684 15.8895 62.2964 15.9795 62.7524 16.1595C63.2204 16.3275 63.5204 16.5975 63.6524 16.9695C63.8684 17.5935 64.1024 18.3195 64.3544 19.1475C64.6064 19.9755 64.8584 20.8335 65.1104 21.7215C65.3624 22.5975 65.6084 23.4675 65.8484 24.3315C66.0884 25.1835 66.2984 25.9395 66.4784 26.5995C66.3344 26.7675 66.1184 26.8995 65.8304 26.9955C65.5424 27.1035 65.2004 27.1575 64.8044 27.1575C64.5164 27.1575 64.2704 27.1335 64.0664 27.0855C63.8744 27.0375 63.7124 26.9655 63.5804 26.8695C63.4604 26.7735 63.3584 26.6475 63.2744 26.4915C63.2024 26.3355 63.1364 26.1555 63.0764 25.9515L62.7524 24.7095H59.4944C59.3984 25.0695 59.3024 25.4415 59.2064 25.8255C59.1104 26.2095 59.0144 26.5815 58.9184 26.9415C58.7504 27.0015 58.5704 27.0495 58.3784 27.0855C58.1984 27.1335 57.9764 27.1575 57.7124 27.1575C57.1004 27.1575 56.6444 27.0555 56.3444 26.8515C56.0564 26.6355 55.9124 26.3415 55.9124 25.9695C55.9124 25.8015 55.9364 25.6335 55.9844 25.4655C56.0324 25.2975 56.0864 25.0995 56.1464 24.8715C56.2304 24.5475 56.3444 24.1455 56.4884 23.6655C56.6444 23.1855 56.8124 22.6695 56.9924 22.1175C57.1724 21.5535 57.3644 20.9775 57.5684 20.3895C57.7724 19.8015 57.9644 19.2495 58.1444 18.7335C58.3244 18.2055 58.4864 17.7375 58.6304 17.3295C58.7864 16.9215 58.9064 16.6095 58.9904 16.3935ZM61.1504 18.7155C60.9824 19.2195 60.7904 19.7835 60.5744 20.4075C60.3704 21.0195 60.1844 21.6435 60.0164 22.2795H62.2484C62.0804 21.6315 61.9064 21.0015 61.7264 20.3895C61.5584 19.7655 61.4024 19.2075 61.2584 18.7155H61.1504ZM70.9056 23.4495V26.9055C70.7736 26.9415 70.5636 26.9775 70.2756 27.0135C69.9996 27.0495 69.7236 27.0675 69.4476 27.0675C69.1716 27.0675 68.9256 27.0435 68.7096 26.9955C68.5056 26.9595 68.3316 26.8875 68.1876 26.7795C68.0556 26.6715 67.9536 26.5215 67.8816 26.3295C67.8096 26.1375 67.7736 25.8855 67.7736 25.5735V17.0955C67.7736 16.8435 67.8396 16.6515 67.9716 16.5195C68.1156 16.3755 68.3076 16.2615 68.5476 16.1775C68.9556 16.0335 69.4296 15.9315 69.9696 15.8715C70.5096 15.7995 71.0856 15.7635 71.6976 15.7635C73.3536 15.7635 74.6016 16.1115 75.4416 16.8075C76.2816 17.5035 76.7016 18.4455 76.7016 19.6335C76.7016 20.3775 76.5096 21.0135 76.1256 21.5415C75.7416 22.0695 75.2856 22.4775 74.7576 22.7655C75.1896 23.3535 75.6156 23.9055 76.0356 24.4215C76.4556 24.9375 76.7856 25.4055 77.0256 25.8255C76.9056 26.2455 76.6836 26.5695 76.3596 26.7975C76.0476 27.0135 75.6936 27.1215 75.2976 27.1215C75.0336 27.1215 74.8056 27.0915 74.6136 27.0315C74.4216 26.9715 74.2536 26.8875 74.1096 26.7795C73.9656 26.6715 73.8336 26.5395 73.7136 26.3835C73.5936 26.2275 73.4796 26.0595 73.3716 25.8795L71.8596 23.4495H70.9056ZM72.0396 21.0555C72.4956 21.0555 72.8556 20.9415 73.1196 20.7135C73.3836 20.4735 73.5156 20.1255 73.5156 19.6695C73.5156 19.2135 73.3656 18.8715 73.0656 18.6435C72.7776 18.4035 72.3156 18.2835 71.6796 18.2835C71.4996 18.2835 71.3556 18.2895 71.2476 18.3015C71.1396 18.3135 71.0196 18.3315 70.8876 18.3555V21.0555H72.0396ZM77.7947 18.5895C77.7107 18.4575 77.6327 18.2775 77.5607 18.0495C77.4887 17.8215 77.4527 17.5815 77.4527 17.3295C77.4527 16.8615 77.5547 16.5255 77.7587 16.3215C77.9747 16.1175 78.2507 16.0155 78.5867 16.0155H86.4347C86.5187 16.1475 86.5967 16.3275 86.6687 16.5555C86.7407 16.7835 86.7767 17.0235 86.7767 17.2755C86.7767 17.7435 86.6687 18.0795 86.4527 18.2835C86.2487 18.4875 85.9787 18.5895 85.6427 18.5895H83.6447V26.9055C83.5127 26.9415 83.3027 26.9775 83.0147 27.0135C82.7387 27.0495 82.4627 27.0675 82.1867 27.0675C81.9107 27.0675 81.6647 27.0435 81.4487 26.9955C81.2447 26.9595 81.0707 26.8875 80.9267 26.7795C80.7827 26.6715 80.6747 26.5215 80.6027 26.3295C80.5307 26.1375 80.4947 25.8855 80.4947 25.5735V18.5895H77.7947ZM101.426 26.5995C101.258 26.7675 101.012 26.8935 100.688 26.9775C100.376 27.0735 99.9981 27.1215 99.5541 27.1215C99.1101 27.1215 98.6901 27.0555 98.2941 26.9235C97.8981 26.7915 97.5741 26.4735 97.3221 25.9695L95.5401 22.3335C95.3601 21.9615 95.1981 21.6135 95.0541 21.2895C94.9101 20.9535 94.7541 20.5695 94.5861 20.1375L94.4781 20.1555C94.5261 20.8035 94.5501 21.4635 94.5501 22.1355C94.5621 22.8075 94.5681 23.4675 94.5681 24.1155V26.9055C94.4361 26.9415 94.2321 26.9775 93.9561 27.0135C93.6921 27.0495 93.4281 27.0675 93.1641 27.0675C92.9001 27.0675 92.6661 27.0495 92.4621 27.0135C92.2581 26.9775 92.0901 26.9055 91.9581 26.7975C91.8261 26.6895 91.7241 26.5455 91.6521 26.3655C91.5801 26.1735 91.5441 25.9275 91.5441 25.6275V16.6275C91.7121 16.3875 91.9701 16.2075 92.3181 16.0875C92.6661 15.9675 93.0381 15.9075 93.4341 15.9075C93.8781 15.9075 94.2981 15.9795 94.6941 16.1235C95.1021 16.2555 95.4261 16.5675 95.6661 17.0595L97.4661 20.6955C97.6461 21.0675 97.8081 21.4215 97.9521 21.7575C98.0961 22.0815 98.2521 22.4595 98.4201 22.8915L98.5101 22.8735C98.4621 22.2255 98.4321 21.5775 98.4201 20.9295C98.4081 20.2815 98.4021 19.6335 98.4021 18.9855V16.0695C98.5341 16.0335 98.7321 15.9975 98.9961 15.9615C99.2721 15.9255 99.5421 15.9075 99.8061 15.9075C100.334 15.9075 100.736 16.0035 101.012 16.1955C101.288 16.3755 101.426 16.7595 101.426 17.3475V26.5995ZM103.041 21.5055C103.041 20.5695 103.185 19.7415 103.473 19.0215C103.773 18.3015 104.175 17.7015 104.679 17.2215C105.195 16.7295 105.795 16.3575 106.479 16.1055C107.175 15.8535 107.925 15.7275 108.729 15.7275C109.533 15.7275 110.277 15.8535 110.961 16.1055C111.657 16.3575 112.263 16.7295 112.779 17.2215C113.295 17.7015 113.697 18.3015 113.985 19.0215C114.285 19.7415 114.435 20.5695 114.435 21.5055C114.435 22.4415 114.291 23.2755 114.003 24.0075C113.715 24.7275 113.313 25.3335 112.797 25.8255C112.293 26.3055 111.693 26.6715 110.997 26.9235C110.301 27.1755 109.545 27.3015 108.729 27.3015C107.913 27.3015 107.157 27.1755 106.461 26.9235C105.765 26.6595 105.165 26.2815 104.661 25.7895C104.157 25.2975 103.761 24.6915 103.473 23.9715C103.185 23.2515 103.041 22.4295 103.041 21.5055ZM106.281 21.5055C106.281 22.5975 106.503 23.4135 106.947 23.9535C107.391 24.4935 107.985 24.7635 108.729 24.7635C109.485 24.7635 110.085 24.4935 110.529 23.9535C110.973 23.4135 111.195 22.5975 111.195 21.5055C111.195 20.4255 110.973 19.6155 110.529 19.0755C110.097 18.5355 109.503 18.2655 108.747 18.2655C108.003 18.2655 107.403 18.5355 106.947 19.0755C106.503 19.6035 106.281 20.4135 106.281 21.5055ZM121.097 18.7335C121.229 18.6735 121.433 18.6075 121.709 18.5355C121.997 18.4515 122.285 18.4095 122.573 18.4095C123.077 18.4095 123.497 18.4875 123.833 18.6435C124.169 18.7875 124.373 19.0035 124.445 19.2915C124.577 19.7835 124.697 20.2455 124.805 20.6775C124.925 21.0975 125.039 21.5055 125.147 21.9015C125.255 22.2855 125.357 22.6695 125.453 23.0535C125.561 23.4375 125.663 23.8395 125.759 24.2595H125.849C125.957 23.5275 126.053 22.8315 126.137 22.1715C126.221 21.4995 126.299 20.8455 126.371 20.2095C126.443 19.5615 126.515 18.9255 126.587 18.3015C126.659 17.6655 126.731 17.0235 126.803 16.3755C127.247 16.1235 127.721 15.9975 128.225 15.9975C128.669 15.9975 129.053 16.0935 129.377 16.2855C129.701 16.4775 129.863 16.8015 129.863 17.2575C129.863 17.5215 129.833 17.8995 129.773 18.3915C129.725 18.8715 129.653 19.4115 129.557 20.0115C129.473 20.6115 129.371 21.2415 129.251 21.9015C129.131 22.5615 129.005 23.1915 128.873 23.7915C128.741 24.3915 128.603 24.9375 128.459 25.4295C128.327 25.9095 128.201 26.2815 128.081 26.5455C127.901 26.7135 127.607 26.8515 127.199 26.9595C126.791 27.0675 126.371 27.1215 125.939 27.1215C125.375 27.1215 124.895 27.0495 124.499 26.9055C124.115 26.7495 123.881 26.5335 123.797 26.2575C123.641 25.7775 123.473 25.2075 123.293 24.5475C123.113 23.8875 122.921 23.1615 122.717 22.3695C122.549 23.1495 122.375 23.9115 122.195 24.6555C122.015 25.3995 121.853 26.0295 121.709 26.5455C121.529 26.7135 121.259 26.8515 120.899 26.9595C120.539 27.0675 120.143 27.1215 119.711 27.1215C119.171 27.1215 118.679 27.0495 118.235 26.9055C117.803 26.7495 117.521 26.5335 117.389 26.2575C117.281 26.0415 117.161 25.7235 117.029 25.3035C116.909 24.8715 116.783 24.3855 116.651 23.8455C116.519 23.2935 116.381 22.6995 116.237 22.0635C116.105 21.4275 115.979 20.7915 115.859 20.1555C115.751 19.5195 115.649 18.9015 115.553 18.3015C115.457 17.6895 115.385 17.1315 115.337 16.6275C115.505 16.4715 115.739 16.3275 116.039 16.1955C116.339 16.0635 116.663 15.9975 117.011 15.9975C117.467 15.9975 117.839 16.0995 118.127 16.3035C118.427 16.4955 118.613 16.8255 118.685 17.2935C118.877 18.5175 119.033 19.5375 119.153 20.3535C119.285 21.1695 119.387 21.8415 119.459 22.3695C119.543 22.8855 119.603 23.2875 119.639 23.5755C119.675 23.8635 119.711 24.0915 119.747 24.2595H119.837C119.945 23.7795 120.047 23.3355 120.143 22.9275C120.239 22.5195 120.335 22.1115 120.431 21.7035C120.539 21.2835 120.647 20.8395 120.755 20.3715C120.863 19.8915 120.977 19.3455 121.097 18.7335ZM134.512 16.5375C134.512 16.8135 134.506 17.2155 134.494 17.7435C134.482 18.2595 134.458 18.8235 134.422 19.4355C134.386 20.0355 134.338 20.6415 134.278 21.2535C134.218 21.8535 134.146 22.3755 134.062 22.8195C134.014 22.8555 133.942 22.8915 133.846 22.9275C133.75 22.9635 133.648 22.9935 133.54 23.0175C133.432 23.0415 133.324 23.0595 133.216 23.0715C133.108 23.0835 133.012 23.0895 132.928 23.0895C132.58 23.0895 132.286 23.0355 132.046 22.9275C131.818 22.8195 131.674 22.6095 131.614 22.2975C131.554 22.0215 131.5 21.6015 131.452 21.0375C131.416 20.4735 131.38 19.8615 131.344 19.2015C131.308 18.5415 131.278 17.8875 131.254 17.2395C131.242 16.5915 131.236 16.0395 131.236 15.5835C131.476 15.4515 131.746 15.3495 132.046 15.2775C132.358 15.1935 132.664 15.1515 132.964 15.1515C133.456 15.1515 133.834 15.2655 134.098 15.4935C134.374 15.7215 134.512 16.0695 134.512 16.5375ZM131.2 25.6095C131.2 25.1175 131.35 24.7155 131.65 24.4035C131.962 24.0795 132.388 23.9175 132.928 23.9175C133.468 23.9175 133.888 24.0795 134.188 24.4035C134.5 24.7155 134.656 25.1175 134.656 25.6095C134.656 26.1015 134.5 26.5095 134.188 26.8335C133.888 27.1455 133.468 27.3015 132.928 27.3015C132.388 27.3015 131.962 27.1455 131.65 26.8335C131.35 26.5095 131.2 26.1015 131.2 25.6095Z" fill="white"/>
<defs>
<linearGradient id="paint0_linear" x1="88.119" y1="3.66553" x2="88.119" y2="43.0206" gradientUnits="userSpaceOnUse">
<stop stop-color="#EA7523"/>
<stop offset="1" stop-color="#E07E32"/>
</linearGradient>
<linearGradient id="paint1_linear" x1="110.647" y1="5.93374" x2="109.002" y2="42.7449" gradientUnits="userSpaceOnUse">
<stop offset="0.135417" stop-color="#FDE44A"/>
<stop offset="0.744452" stop-color="#EE7219"/>
</linearGradient>
<radialGradient id="paint2_radial" cx="0" cy="0" r="1" gradientUnits="userSpaceOnUse" gradientTransform="translate(93.6825 16.7685) rotate(103.565) scale(23.3019 97.8657)">
<stop stop-color="#FACC28"/>
<stop offset="1" stop-color="#FA8F11"/>
</radialGradient>
</defs>
</svg>
