<svg width="261" height="90" viewBox="0 0 261 90" fill="none" xmlns="http://www.w3.org/2000/svg">
<path d="M10.9499 41.1703C11.9321 23.3906 26.4952 9.39702 44.2999 9.12437L212.786 6.54432C231.86 6.25223 247.865 20.8608 249.311 39.8827C250.913 60.9707 234.115 78.908 212.968 78.6908L44.471 76.9607C25.14 76.7622 9.88346 60.4728 10.9499 41.1703Z" fill="url(#paint0_linear)"/>
<path d="M12.6982 42.0229C13.3063 24.7955 27.3213 11.0738 44.5577 10.8302L213.346 8.44515C231.428 8.18964 246.543 22.1412 247.732 40.1859C249.03 59.8613 233.363 76.506 213.645 76.4007L44.842 75.4995C26.604 75.4022 12.0549 60.2498 12.6982 42.0229Z" fill="url(#paint1_linear)"/>
<path d="M16.0131 41.6173C16.3714 25.4315 29.5537 12.4746 45.7433 12.3954L213.165 11.577C228.35 11.5027 241.132 22.9242 242.76 38.0222C244.638 55.4416 231.068 70.6757 213.548 70.8164L46.1294 72.1613C29.2725 72.2967 15.64 58.4706 16.0131 41.6173Z" fill="url(#paint2_radial)"/>
<path d="M57.5592 42.9349C56.7056 42.6439 55.9296 42.3529 55.2312 42.0619C54.5327 41.7515 53.9313 41.3829 53.4269 40.9561C52.9225 40.5293 52.5248 40.0248 52.2338 39.4428C51.9622 38.8414 51.8264 38.1139 51.8264 37.2603C51.8264 35.6112 52.4569 34.292 53.7179 33.3025C54.9984 32.3131 56.7832 31.8184 59.0725 31.8184C59.9067 31.8184 60.6827 31.8766 61.4006 31.993C62.1184 32.1094 62.7295 32.2937 63.2339 32.5459C63.7577 32.7787 64.1651 33.0891 64.4562 33.4771C64.7472 33.8457 64.8927 34.2823 64.8927 34.7867C64.8927 35.2911 64.7763 35.7276 64.5435 36.0962C64.3107 36.4454 64.0293 36.7461 63.6995 36.9983C63.2727 36.7267 62.7004 36.4939 61.9826 36.2999C61.2648 36.0865 60.479 35.9798 59.6254 35.9798C58.7524 35.9798 58.1122 36.1059 57.7047 36.3581C57.2973 36.5909 57.0936 36.8916 57.0936 37.2603C57.0936 37.5513 57.2197 37.7938 57.4719 37.9878C57.7241 38.1624 58.1025 38.3273 58.6069 38.4825L60.1492 38.9772C61.9729 39.5592 63.3697 40.3061 64.3398 41.218C65.3292 42.1104 65.8239 43.3326 65.8239 44.8847C65.8239 46.5337 65.174 47.8724 63.8741 48.9006C62.5743 49.9094 60.6633 50.4139 58.1413 50.4139C57.2488 50.4139 56.4146 50.3363 55.6386 50.181C54.882 50.0452 54.2126 49.8415 53.6306 49.5699C53.068 49.2789 52.6218 48.9297 52.292 48.5223C51.9816 48.0955 51.8264 47.6105 51.8264 47.0673C51.8264 46.5046 51.9913 46.0293 52.3211 45.6413C52.6509 45.2339 53.0098 44.9235 53.3978 44.7101C53.941 45.1369 54.6007 45.5055 55.3767 45.8159C56.1721 46.1263 57.0354 46.2815 57.9667 46.2815C58.9173 46.2815 59.5866 46.136 59.9746 45.845C60.3626 45.554 60.5566 45.2145 60.5566 44.8265C60.5566 44.4385 60.4014 44.1475 60.091 43.9535C59.7806 43.7401 59.3441 43.5363 58.7815 43.3423L57.5592 42.9349ZM67.1068 36.3872C66.971 36.1738 66.8449 35.8828 66.7285 35.5142C66.6121 35.1456 66.5539 34.7576 66.5539 34.3502C66.5539 33.5935 66.7188 33.0503 67.0486 32.7205C67.3978 32.3907 67.8441 32.2258 68.3873 32.2258H81.0753C81.2111 32.4392 81.3372 32.7302 81.4536 33.0988C81.57 33.4674 81.6282 33.8554 81.6282 34.2629C81.6282 35.0195 81.4536 35.5627 81.1044 35.8925C80.7746 36.2223 80.338 36.3872 79.7948 36.3872H76.5646V49.8318C76.3512 49.89 76.0117 49.9482 75.5461 50.0064C75.0999 50.0646 74.6537 50.0937 74.2075 50.0937C73.7612 50.0937 73.3635 50.0549 73.0143 49.9773C72.6845 49.9191 72.4032 49.8027 72.1704 49.6281C71.9376 49.4535 71.763 49.211 71.6466 48.9006C71.5302 48.5902 71.472 48.1828 71.472 47.6784V36.3872H67.1068ZM86.3898 32.8369C86.7196 32.6429 87.2143 32.4586 87.874 32.284C88.553 32.1094 89.232 32.0221 89.911 32.0221C90.8811 32.0221 91.7347 32.1676 92.4719 32.4586C93.2285 32.7302 93.7135 33.1667 93.9269 33.7681C94.2762 34.777 94.6545 35.9507 95.0619 37.2894C95.4693 38.628 95.8767 40.0151 96.2841 41.4508C96.6915 42.867 97.0892 44.2736 97.4773 45.6704C97.8653 47.0479 98.2048 48.2701 98.4958 49.3371C98.263 49.6087 97.9138 49.8221 97.4482 49.9773C96.9825 50.1519 96.4296 50.2393 95.7894 50.2393C95.3238 50.2393 94.9261 50.2004 94.5963 50.1228C94.2859 50.0452 94.0239 49.9288 93.8105 49.7736C93.6165 49.6184 93.4516 49.4147 93.3158 49.1625C93.1994 48.9103 93.0927 48.6193 92.9957 48.2895L92.4719 46.2815H87.2046C87.0494 46.8635 86.8942 47.465 86.739 48.0858C86.5838 48.7066 86.4286 49.308 86.2734 49.89C86.0018 49.987 85.7108 50.0646 85.4004 50.1228C85.1094 50.2004 84.7505 50.2393 84.3236 50.2393C83.3342 50.2393 82.597 50.0743 82.112 49.7445C81.6464 49.3953 81.4136 48.92 81.4136 48.3186C81.4136 48.047 81.4524 47.7754 81.53 47.5038C81.6076 47.2322 81.6949 46.912 81.7919 46.5434C81.9277 46.0196 82.112 45.3697 82.3448 44.5937C82.597 43.8177 82.8686 42.9834 83.1596 42.091C83.4506 41.1792 83.761 40.2479 84.0908 39.2973C84.4207 38.3467 84.7311 37.4543 85.0221 36.62C85.3131 35.7664 85.575 35.0098 85.8078 34.3502C86.06 33.6905 86.254 33.1861 86.3898 32.8369ZM89.8819 36.5909C89.6103 37.4058 89.2999 38.3176 88.9507 39.3264C88.6209 40.3158 88.3202 41.3247 88.0486 42.3529H91.6571C91.3855 41.3053 91.1042 40.2867 90.8131 39.2973C90.5415 38.2885 90.2893 37.3864 90.0565 36.5909H89.8819ZM105.653 44.2445V49.8318C105.44 49.89 105.1 49.9482 104.635 50.0064C104.188 50.0646 103.742 50.0937 103.296 50.0937C102.85 50.0937 102.452 50.0549 102.103 49.9773C101.773 49.9191 101.492 49.8027 101.259 49.6281C101.046 49.4535 100.881 49.211 100.764 48.9006C100.648 48.5902 100.59 48.1828 100.59 47.6784V33.9719C100.59 33.5644 100.696 33.254 100.91 33.0406C101.143 32.8078 101.453 32.6235 101.841 32.4877C102.501 32.2549 103.267 32.09 104.14 31.993C105.013 31.8766 105.944 31.8184 106.934 31.8184C109.611 31.8184 111.629 32.381 112.987 33.5062C114.345 34.6315 115.024 36.1544 115.024 38.0751C115.024 39.2779 114.713 40.3061 114.093 41.1598C113.472 42.0134 112.734 42.673 111.881 43.1386C112.579 44.0893 113.268 44.9817 113.947 45.8159C114.626 46.6501 115.16 47.4068 115.548 48.0858C115.354 48.7648 114.995 49.2886 114.471 49.6572C113.966 50.0064 113.394 50.181 112.754 50.181C112.327 50.181 111.958 50.1325 111.648 50.0355C111.338 49.9385 111.066 49.8027 110.833 49.6281C110.6 49.4535 110.387 49.2401 110.193 48.9879C109.999 48.7357 109.815 48.4641 109.64 48.1731L107.196 44.2445H105.653ZM107.487 40.374C108.224 40.374 108.806 40.1897 109.233 39.8211C109.659 39.4331 109.873 38.8705 109.873 38.1333C109.873 37.3961 109.63 36.8431 109.145 36.4745C108.68 36.0865 107.933 35.8925 106.905 35.8925C106.614 35.8925 106.381 35.9022 106.206 35.9216C106.032 35.941 105.838 35.9701 105.624 36.0089V40.374H107.487ZM116.791 36.3872C116.655 36.1738 116.529 35.8828 116.413 35.5142C116.296 35.1456 116.238 34.7576 116.238 34.3502C116.238 33.5935 116.403 33.0503 116.733 32.7205C117.082 32.3907 117.528 32.2258 118.071 32.2258H130.759C130.895 32.4392 131.021 32.7302 131.138 33.0988C131.254 33.4674 131.312 33.8554 131.312 34.2629C131.312 35.0195 131.138 35.5627 130.788 35.8925C130.459 36.2223 130.022 36.3872 129.479 36.3872H126.249V49.8318C126.035 49.89 125.696 49.9482 125.23 50.0064C124.784 50.0646 124.338 50.0937 123.892 50.0937C123.445 50.0937 123.048 50.0549 122.698 49.9773C122.369 49.9191 122.087 49.8027 121.854 49.6281C121.622 49.4535 121.447 49.211 121.331 48.9006C121.214 48.5902 121.156 48.1828 121.156 47.6784V36.3872H116.791ZM154.996 49.3371C154.725 49.6087 154.327 49.8124 153.803 49.9482C153.299 50.1034 152.688 50.181 151.97 50.181C151.252 50.181 150.573 50.0743 149.933 49.8609C149.293 49.6475 148.769 49.1334 148.361 48.3186L145.48 42.4402C145.189 41.8388 144.927 41.2762 144.695 40.7524C144.462 40.2091 144.21 39.5883 143.938 38.8899L143.763 38.919C143.841 39.9666 143.88 41.0337 143.88 42.1201C143.899 43.2065 143.909 44.2736 143.909 45.3212V49.8318C143.695 49.89 143.366 49.9482 142.919 50.0064C142.493 50.0646 142.066 50.0937 141.639 50.0937C141.212 50.0937 140.834 50.0646 140.504 50.0064C140.174 49.9482 139.903 49.8318 139.689 49.6572C139.476 49.4826 139.311 49.2498 139.195 48.9588C139.078 48.6484 139.02 48.2507 139.02 47.7657V33.2152C139.292 32.8272 139.709 32.5362 140.271 32.3422C140.834 32.1482 141.435 32.0512 142.076 32.0512C142.793 32.0512 143.472 32.1676 144.113 32.4004C144.772 32.6138 145.296 33.1182 145.684 33.9137L148.594 39.792C148.885 40.3934 149.147 40.9658 149.38 41.509C149.613 42.0328 149.865 42.6439 150.136 43.3423L150.282 43.3132C150.204 42.2656 150.156 41.218 150.136 40.1703C150.117 39.1227 150.107 38.0751 150.107 37.0274V32.3131C150.321 32.2549 150.641 32.1967 151.068 32.1385C151.514 32.0803 151.95 32.0512 152.377 32.0512C153.231 32.0512 153.881 32.2064 154.327 32.5168C154.773 32.8078 154.996 33.4286 154.996 34.3793V49.3371ZM157.607 41.1016C157.607 39.5883 157.84 38.2497 158.305 37.0856C158.79 35.9216 159.44 34.9516 160.255 34.1756C161.089 33.3801 162.059 32.7787 163.165 32.3713C164.29 31.9639 165.503 31.7602 166.803 31.7602C168.103 31.7602 169.306 31.9639 170.411 32.3713C171.537 32.7787 172.516 33.3801 173.351 34.1756C174.185 34.9516 174.835 35.9216 175.3 37.0856C175.785 38.2497 176.028 39.5883 176.028 41.1016C176.028 42.6148 175.795 43.9632 175.329 45.1466C174.864 46.3106 174.214 47.2904 173.38 48.0858C172.565 48.8618 171.595 49.4535 170.47 49.8609C169.344 50.2684 168.122 50.4721 166.803 50.4721C165.484 50.4721 164.261 50.2684 163.136 49.8609C162.011 49.4341 161.041 48.823 160.226 48.0276C159.411 47.2322 158.771 46.2524 158.305 45.0884C157.84 43.9244 157.607 42.5954 157.607 41.1016ZM162.845 41.1016C162.845 42.867 163.204 44.1863 163.922 45.0593C164.64 45.9323 165.6 46.3688 166.803 46.3688C168.025 46.3688 168.995 45.9323 169.713 45.0593C170.431 44.1863 170.79 42.867 170.79 41.1016C170.79 39.3555 170.431 38.046 169.713 37.1729C169.015 36.2999 168.054 35.8634 166.832 35.8634C165.629 35.8634 164.659 36.2999 163.922 37.1729C163.204 38.0266 162.845 39.3361 162.845 41.1016ZM186.799 36.62C187.012 36.523 187.342 36.4163 187.788 36.2999C188.254 36.1641 188.719 36.0962 189.185 36.0962C190 36.0962 190.679 36.2223 191.222 36.4745C191.765 36.7073 192.095 37.0565 192.212 37.5222C192.425 38.3176 192.619 39.0645 192.794 39.7629C192.988 40.4419 193.172 41.1016 193.347 41.7418C193.521 42.3626 193.686 42.9834 193.841 43.6042C194.016 44.2251 194.181 44.875 194.336 45.554H194.481C194.656 44.3706 194.811 43.2453 194.947 42.1783C195.083 41.0919 195.209 40.0345 195.325 39.0063C195.442 37.9587 195.558 36.9304 195.675 35.9216C195.791 34.8934 195.907 33.8554 196.024 32.8078C196.742 32.4004 197.508 32.1967 198.323 32.1967C199.041 32.1967 199.661 32.3519 200.185 32.6623C200.709 32.9727 200.971 33.4965 200.971 34.2338C200.971 34.6606 200.922 35.2717 200.825 36.0671C200.748 36.8431 200.631 37.7162 200.476 38.6862C200.34 39.6562 200.176 40.6748 199.982 41.7418C199.788 42.8088 199.584 43.8274 199.37 44.7974C199.157 45.7674 198.934 46.6501 198.701 47.4456C198.488 48.2216 198.284 48.823 198.09 49.2498C197.799 49.5214 197.324 49.7445 196.664 49.9191C196.004 50.0937 195.325 50.181 194.627 50.181C193.715 50.181 192.939 50.0646 192.299 49.8318C191.678 49.5796 191.3 49.2304 191.164 48.7842C190.912 48.0082 190.64 47.0867 190.349 46.0196C190.058 44.9526 189.748 43.7789 189.418 42.4984C189.146 43.7595 188.865 44.9914 188.574 46.1942C188.283 47.3971 188.021 48.4156 187.788 49.2498C187.497 49.5214 187.061 49.7445 186.479 49.9191C185.897 50.0937 185.256 50.181 184.558 50.181C183.685 50.181 182.89 50.0646 182.172 49.8318C181.473 49.5796 181.017 49.2304 180.804 48.7842C180.629 48.435 180.435 47.9209 180.222 47.2419C180.028 46.5434 179.824 45.7577 179.611 44.8847C179.397 43.9923 179.174 43.0319 178.942 42.0037C178.728 40.9755 178.524 39.9472 178.33 38.919C178.156 37.8908 177.991 36.8916 177.836 35.9216C177.681 34.9322 177.564 34.0301 177.487 33.2152C177.758 32.963 178.136 32.7302 178.621 32.5168C179.106 32.3034 179.63 32.1967 180.193 32.1967C180.93 32.1967 181.532 32.3616 181.997 32.6914C182.482 33.0018 182.783 33.5353 182.899 34.292C183.21 36.2708 183.462 37.9199 183.656 39.2391C183.869 40.5584 184.034 41.6448 184.151 42.4984C184.286 43.3326 184.383 43.9826 184.442 44.4482C184.5 44.9138 184.558 45.2824 184.616 45.554H184.762C184.936 44.778 185.101 44.0602 185.256 43.4005C185.412 42.7409 185.567 42.0813 185.722 41.4217C185.897 40.7427 186.071 40.0248 186.246 39.2682C186.42 38.4922 186.605 37.6095 186.799 36.62ZM208.487 33.0697C208.487 33.5159 208.477 34.1659 208.458 35.0195C208.439 35.8537 208.4 36.7655 208.342 37.755C208.283 38.725 208.206 39.7047 208.109 40.6942C208.012 41.6642 207.895 42.5081 207.76 43.2259C207.682 43.2841 207.566 43.3423 207.41 43.4005C207.255 43.4587 207.09 43.5072 206.916 43.546C206.741 43.5848 206.566 43.6139 206.392 43.6333C206.217 43.6527 206.062 43.6624 205.926 43.6624C205.364 43.6624 204.888 43.5751 204.5 43.4005C204.132 43.2259 203.899 42.8864 203.802 42.382C203.705 41.9358 203.618 41.2568 203.54 40.3449C203.482 39.4331 203.424 38.4437 203.365 37.3767C203.307 36.3096 203.259 35.2523 203.22 34.2047C203.2 33.157 203.191 32.2646 203.191 31.5274C203.579 31.314 204.015 31.1491 204.5 31.0327C205.005 30.8969 205.499 30.829 205.984 30.829C206.78 30.829 207.391 31.0133 207.818 31.3819C208.264 31.7505 208.487 32.3131 208.487 33.0697ZM203.133 47.7366C203.133 46.9411 203.375 46.2912 203.86 45.7868C204.365 45.263 205.053 45.0011 205.926 45.0011C206.799 45.0011 207.478 45.263 207.963 45.7868C208.468 46.2912 208.72 46.9411 208.72 47.7366C208.72 48.532 208.468 49.1916 207.963 49.7154C207.478 50.2199 206.799 50.4721 205.926 50.4721C205.053 50.4721 204.365 50.2199 203.86 49.7154C203.375 49.1916 203.133 48.532 203.133 47.7366Z" fill="white"/>
<defs>
<linearGradient id="paint0_linear" x1="138.612" y1="1.36438" x2="138.612" y2="79.0946" gradientUnits="userSpaceOnUse">
<stop stop-color="#5496AE"/>
<stop offset="1" stop-color="#3D4493"/>
</linearGradient>
<linearGradient id="paint1_linear" x1="153.496" y1="7.98926" x2="151.589" y2="77.1677" gradientUnits="userSpaceOnUse">
<stop offset="0.154696" stop-color="#64E0F1"/>
<stop offset="0.657459" stop-color="#3196D4"/>
</linearGradient>
<radialGradient id="paint2_radial" cx="0" cy="0" r="1" gradientUnits="userSpaceOnUse" gradientTransform="translate(156.699 24.7259) rotate(142.036) scale(72.0547 120.401)">
<stop stop-color="#45D4E2"/>
<stop offset="0.674033" stop-color="#16B4E2"/>
</radialGradient>
</defs>
</svg>
