<svg width="530" height="117" viewBox="0 0 530 117" fill="none" xmlns="http://www.w3.org/2000/svg">
<path d="M17.4658 52.5188C19.4429 30.2947 37.9548 13.1942 60.2656 12.982L463.667 9.14587C487.376 8.92041 507.472 26.5378 510.352 50.0723C513.764 77.9574 491.905 102.497 463.812 102.318L60.4016 99.7453C35.0348 99.5836 15.2179 77.7862 17.4658 52.5188Z" fill="url(#paint0_linear)"/>
<path d="M19.5302 54.181C20.7746 32.4074 38.6961 15.3324 60.5043 15.1421L464.43 11.6173C486.981 11.4206 506.001 28.3687 508.396 50.7937C511.167 76.7526 490.774 99.364 464.668 99.2779L60.7291 97.9461C36.9884 97.8679 18.1755 77.8832 19.5302 54.181Z" fill="url(#paint1_linear)"/>
<path d="M24.1305 54.0513C24.8769 33.4267 41.781 17.0744 62.419 17.0127L462.457 15.8165C480.964 15.7611 496.825 29.0313 500.038 47.2571C504.13 70.4756 486.334 91.7877 462.758 91.9036L62.7228 93.8692C40.8802 93.9766 23.3405 75.8798 24.1305 54.0513Z" fill="url(#paint2_radial)"/>
<path d="M66.3045 56.6686C65.0447 56.2391 63.8993 55.8096 62.8685 55.3801C61.8377 54.922 60.9501 54.3779 60.2056 53.748C59.4612 53.1181 58.8742 52.3736 58.4447 51.5146C58.0438 50.627 57.8434 49.5532 57.8434 48.2934C57.8434 45.8595 58.774 43.9125 60.6351 42.4522C62.5249 40.9919 65.1592 40.2617 68.5379 40.2617C69.7692 40.2617 70.9145 40.3476 71.9739 40.5194C73.0334 40.6912 73.9353 40.9632 74.6798 41.3355C75.4529 41.6791 76.0542 42.1372 76.4837 42.7099C76.9132 43.2539 77.1279 43.8982 77.1279 44.6426C77.1279 45.3871 76.9561 46.0313 76.6125 46.5754C76.2689 47.0908 75.8537 47.5346 75.367 47.9068C74.737 47.5059 73.8924 47.1623 72.8329 46.876C71.7735 46.561 70.6138 46.4036 69.354 46.4036C68.0655 46.4036 67.1206 46.5897 66.5193 46.9619C65.918 47.3055 65.6173 47.7493 65.6173 48.2934C65.6173 48.7229 65.8034 49.0808 66.1757 49.3671C66.5479 49.6248 67.1063 49.8682 67.8507 50.0973L70.1271 50.8274C72.8186 51.6864 74.8802 52.7888 76.3119 54.1346C77.7722 55.4517 78.5023 57.2556 78.5023 59.5462C78.5023 61.9801 77.5431 63.9558 75.6247 65.4733C73.7062 66.9623 70.8859 67.7067 67.1635 67.7067C65.8464 67.7067 64.6152 67.5922 63.4698 67.3631C62.3531 67.1627 61.3653 66.862 60.5063 66.4612C59.6759 66.0317 59.0174 65.5163 58.5306 64.915C58.0725 64.2851 57.8434 63.5692 57.8434 62.7675C57.8434 61.9371 58.0868 61.2356 58.5735 60.6629C59.0603 60.0616 59.59 59.6035 60.1627 59.2885C60.9644 59.9185 61.938 60.4625 63.0833 60.9206C64.2573 61.3788 65.5314 61.6078 66.9058 61.6078C68.3089 61.6078 69.2967 61.3931 69.8694 60.9636C70.442 60.5341 70.7284 60.033 70.7284 59.4603C70.7284 58.8877 70.4993 58.4582 70.0412 58.1718C69.583 57.8569 68.9388 57.5562 68.1084 57.2699L66.3045 56.6686ZM80.3958 47.0049C80.1954 46.6899 80.0092 46.2604 79.8374 45.7164C79.6656 45.1723 79.5797 44.5997 79.5797 43.9984C79.5797 42.8817 79.8231 42.0799 80.3099 41.5932C80.8253 41.1064 81.4839 40.863 82.2856 40.863H101.012C101.212 41.178 101.398 41.6075 101.57 42.1515C101.742 42.6956 101.828 43.2682 101.828 43.8695C101.828 44.9862 101.57 45.7879 101.055 46.2747C100.568 46.7615 99.9237 47.0049 99.122 47.0049H94.3545V66.8477C94.0396 66.9336 93.5385 67.0195 92.8513 67.1054C92.1927 67.1913 91.5341 67.2343 90.8756 67.2343C90.217 67.2343 89.63 67.177 89.1146 67.0625C88.6279 66.9766 88.2127 66.8048 87.8691 66.5471C87.5255 66.2894 87.2678 65.9315 87.096 65.4733C86.9242 65.0152 86.8383 64.4139 86.8383 63.6694V47.0049H80.3958ZM108.855 41.765C109.342 41.4786 110.072 41.2066 111.046 40.9489C112.048 40.6912 113.05 40.5624 114.052 40.5624C115.484 40.5624 116.744 40.7771 117.832 41.2066C118.949 41.6075 119.665 42.2517 119.98 43.1394C120.495 44.6283 121.053 46.3606 121.655 48.3363C122.256 50.312 122.857 52.3593 123.458 54.4782C124.06 56.5684 124.647 58.6443 125.219 60.7059C125.792 62.7389 126.293 64.5428 126.723 66.1176C126.379 66.5184 125.864 66.8334 125.176 67.0625C124.489 67.3202 123.673 67.449 122.728 67.449C122.041 67.449 121.454 67.3918 120.967 67.2772C120.509 67.1627 120.123 66.9909 119.808 66.7618C119.521 66.5328 119.278 66.2321 119.078 65.8599C118.906 65.4877 118.748 65.0582 118.605 64.5714L117.832 61.6078H110.058C109.829 62.4668 109.6 63.3545 109.371 64.2707C109.142 65.187 108.913 66.0746 108.684 66.9336C108.283 67.0768 107.853 67.1913 107.395 67.2772C106.966 67.3918 106.436 67.449 105.806 67.449C104.346 67.449 103.258 67.2056 102.542 66.7189C101.855 66.2035 101.511 65.502 101.511 64.6143C101.511 64.2135 101.568 63.8126 101.683 63.4117C101.797 63.0109 101.926 62.5384 102.069 61.9944C102.27 61.2213 102.542 60.2621 102.885 59.1167C103.258 57.9714 103.659 56.7402 104.088 55.4231C104.518 54.0773 104.976 52.7029 105.462 51.2999C105.949 49.8968 106.407 48.5797 106.837 47.3485C107.266 46.0886 107.653 44.9719 107.996 43.9984C108.369 43.0248 108.655 42.2804 108.855 41.765ZM114.009 47.3055C113.609 48.5081 113.15 49.8539 112.635 51.3428C112.148 52.8031 111.705 54.292 111.304 55.8096H116.629C116.229 54.2634 115.813 52.7602 115.384 51.2999C114.983 49.8109 114.611 48.4795 114.267 47.3055H114.009ZM137.286 58.6013V66.8477C136.971 66.9336 136.47 67.0195 135.783 67.1054C135.125 67.1913 134.466 67.2343 133.807 67.2343C133.149 67.2343 132.562 67.177 132.046 67.0625C131.56 66.9766 131.144 66.8048 130.801 66.5471C130.486 66.2894 130.243 65.9315 130.071 65.4733C129.899 65.0152 129.813 64.4139 129.813 63.6694V43.44C129.813 42.8387 129.971 42.3806 130.285 42.0656C130.629 41.722 131.087 41.45 131.66 41.2496C132.633 40.906 133.764 40.6626 135.053 40.5194C136.341 40.3476 137.716 40.2617 139.176 40.2617C143.128 40.2617 146.105 41.0921 148.11 42.7528C150.114 44.4136 151.116 46.6613 151.116 49.496C151.116 51.2712 150.658 52.7888 149.742 54.0487C148.826 55.3085 147.737 56.282 146.478 56.9692C147.508 58.3723 148.525 59.6894 149.527 60.9206C150.529 62.1519 151.317 63.2686 151.889 64.2707C151.603 65.2729 151.073 66.046 150.3 66.59C149.556 67.1054 148.711 67.3631 147.766 67.3631C147.136 67.3631 146.592 67.2915 146.134 67.1484C145.676 67.0052 145.275 66.8048 144.931 66.5471C144.588 66.2894 144.273 65.9744 143.987 65.6022C143.7 65.23 143.428 64.8291 143.17 64.3996L139.563 58.6013H137.286ZM139.992 52.889C141.08 52.889 141.939 52.617 142.569 52.073C143.199 51.5003 143.514 50.6699 143.514 49.5819C143.514 48.4938 143.156 47.6777 142.44 47.1337C141.753 46.561 140.651 46.2747 139.133 46.2747C138.704 46.2747 138.36 46.289 138.102 46.3177C137.845 46.3463 137.558 46.3892 137.243 46.4465V52.889H139.992ZM153.724 47.0049C153.524 46.6899 153.338 46.2604 153.166 45.7164C152.994 45.1723 152.908 44.5997 152.908 43.9984C152.908 42.8817 153.152 42.0799 153.639 41.5932C154.154 41.1064 154.812 40.863 155.614 40.863H174.34C174.541 41.178 174.727 41.6075 174.899 42.1515C175.071 42.6956 175.156 43.2682 175.156 43.8695C175.156 44.9862 174.899 45.7879 174.383 46.2747C173.897 46.7615 173.252 47.0049 172.451 47.0049H167.683V66.8477C167.368 66.9336 166.867 67.0195 166.18 67.1054C165.521 67.1913 164.863 67.2343 164.204 67.2343C163.546 67.2343 162.959 67.177 162.443 67.0625C161.956 66.9766 161.541 66.8048 161.198 66.5471C160.854 66.2894 160.596 65.9315 160.425 65.4733C160.253 65.0152 160.167 64.4139 160.167 63.6694V47.0049H153.724ZM204.528 60.62C204.156 60.935 203.669 61.1927 203.068 61.3931C202.495 61.5649 201.822 61.6508 201.049 61.6508C200.018 61.6508 199.159 61.5219 198.472 61.2642C197.814 61.0065 197.384 60.5627 197.184 59.9328C196.382 57.4131 195.723 55.3801 195.208 53.8339C194.693 52.2591 194.292 50.8847 194.005 49.7107H193.791C193.705 51.4001 193.633 52.9463 193.576 54.3493C193.547 55.7237 193.519 57.0695 193.49 58.3866C193.49 59.7037 193.461 61.0352 193.404 62.3809C193.375 63.7267 193.318 65.2156 193.232 66.8477C192.86 66.9909 192.373 67.1054 191.772 67.1913C191.171 67.3059 190.569 67.3631 189.968 67.3631C188.708 67.3631 187.72 67.1627 187.005 66.7618C186.317 66.361 185.974 65.6308 185.974 64.5714L187.219 42.6669C187.448 42.2947 187.949 41.8938 188.723 41.4643C189.496 41.0348 190.584 40.8201 191.987 40.8201C193.504 40.8201 194.693 41.0635 195.552 41.5502C196.411 42.0084 197.041 42.7671 197.441 43.8266C197.699 44.5138 197.971 45.3012 198.257 46.1888C198.572 47.0764 198.873 47.9927 199.159 48.9376C199.474 49.8825 199.775 50.8274 200.061 51.7723C200.348 52.6886 200.605 53.5189 200.834 54.2634H201.049C201.736 51.8582 202.424 49.5389 203.111 47.3055C203.798 45.0435 204.428 43.1537 205.001 41.6361C205.43 41.4071 205.974 41.2209 206.633 41.0778C207.32 40.906 208.079 40.8201 208.909 40.8201C210.312 40.8201 211.457 41.0348 212.345 41.4643C213.233 41.8652 213.748 42.4522 213.891 43.2253C214.006 43.7979 214.12 44.6856 214.235 45.8882C214.378 47.0621 214.521 48.3936 214.664 49.8825C214.807 51.3714 214.951 52.9463 215.094 54.607C215.237 56.2677 215.366 57.8712 215.48 59.4174C215.624 60.935 215.738 62.338 215.824 63.6265C215.91 64.8864 215.967 65.8599 215.996 66.5471C215.509 66.8334 214.994 67.0338 214.45 67.1484C213.934 67.2915 213.261 67.3631 212.431 67.3631C211.343 67.3631 210.427 67.177 209.682 66.8048C208.938 66.4325 208.537 65.7024 208.48 64.6143C208.308 61.4933 208.193 58.6872 208.136 56.1961C208.107 53.7051 208.05 51.6148 207.964 49.9255H207.749C207.463 51.0422 207.048 52.4452 206.504 54.1346C205.96 55.8239 205.301 57.9857 204.528 60.62ZM232.854 66.8477C232.539 66.9336 232.052 67.0195 231.394 67.1054C230.735 67.1913 230.091 67.2343 229.461 67.2343C228.144 67.2343 227.156 67.0195 226.497 66.59C225.839 66.1319 225.51 65.187 225.51 63.7553V57.9571C224.794 56.8977 224.021 55.7237 223.19 54.4352C222.36 53.1467 221.544 51.8296 220.742 50.4838C219.94 49.138 219.196 47.8209 218.509 46.5324C217.821 45.2153 217.263 44.0127 216.834 42.9246C217.206 42.4092 217.707 41.9368 218.337 41.5073C218.995 41.0778 219.797 40.863 220.742 40.863C221.859 40.863 222.761 41.0921 223.448 41.5502C224.164 42.0084 224.837 42.8674 225.467 44.1272L229.031 51.2999H229.289C229.69 50.4122 230.034 49.6105 230.32 48.8947C230.635 48.1502 230.936 47.42 231.222 46.7042C231.508 45.9597 231.809 45.201 232.124 44.4279C232.439 43.6261 232.797 42.7099 233.198 41.6791C233.713 41.4214 234.286 41.2209 234.916 41.0778C235.545 40.9346 236.147 40.863 236.719 40.863C237.722 40.863 238.566 41.135 239.253 41.6791C239.969 42.1945 240.327 42.9819 240.327 44.0413C240.327 44.3849 240.256 44.8001 240.112 45.2869C239.969 45.7736 239.64 46.5181 239.125 47.5203C238.609 48.4938 237.85 49.8252 236.848 51.5146C235.875 53.204 234.543 55.4087 232.854 58.1289V66.8477ZM269.895 40.9919C270.095 41.3068 270.267 41.7363 270.41 42.2804C270.582 42.7958 270.668 43.3398 270.668 43.9125C270.668 45.0292 270.424 45.8309 269.938 46.3177C269.479 46.7758 268.849 47.0049 268.048 47.0049H259.028V51.8582H268.434C268.663 52.1732 268.849 52.5884 268.993 53.1038C269.164 53.6192 269.25 54.1632 269.25 54.7359C269.25 55.8239 269.007 56.6113 268.52 57.0981C268.062 57.5562 267.432 57.7853 266.63 57.7853H259.114V66.8477C258.799 66.9336 258.298 67.0195 257.611 67.1054C256.952 67.1913 256.294 67.2343 255.635 67.2343C254.977 67.2343 254.39 67.177 253.874 67.0625C253.387 66.9766 252.972 66.8048 252.629 66.5471C252.285 66.2894 252.027 65.9315 251.856 65.4733C251.684 65.0152 251.598 64.4139 251.598 63.6694V44.9862C251.598 43.755 251.956 42.7815 252.672 42.0656C253.387 41.3498 254.361 40.9919 255.592 40.9919H269.895ZM281.459 58.6013V66.8477C281.144 66.9336 280.643 67.0195 279.956 67.1054C279.297 67.1913 278.638 67.2343 277.98 67.2343C277.321 67.2343 276.734 67.177 276.219 67.0625C275.732 66.9766 275.317 66.8048 274.973 66.5471C274.658 66.2894 274.415 65.9315 274.243 65.4733C274.071 65.0152 273.986 64.4139 273.986 63.6694V43.44C273.986 42.8387 274.143 42.3806 274.458 42.0656C274.802 41.722 275.26 41.45 275.832 41.2496C276.806 40.906 277.937 40.6626 279.225 40.5194C280.514 40.3476 281.888 40.2617 283.349 40.2617C287.3 40.2617 290.278 41.0921 292.282 42.7528C294.287 44.4136 295.289 46.6613 295.289 49.496C295.289 51.2712 294.831 52.7888 293.914 54.0487C292.998 55.3085 291.91 56.282 290.65 56.9692C291.681 58.3723 292.697 59.6894 293.7 60.9206C294.702 62.1519 295.489 63.2686 296.062 64.2707C295.775 65.2729 295.246 66.046 294.473 66.59C293.728 67.1054 292.884 67.3631 291.939 67.3631C291.309 67.3631 290.765 67.2915 290.307 67.1484C289.848 67.0052 289.448 66.8048 289.104 66.5471C288.76 66.2894 288.445 65.9744 288.159 65.6022C287.873 65.23 287.601 64.8291 287.343 64.3996L283.735 58.6013H281.459ZM284.165 52.889C285.253 52.889 286.112 52.617 286.742 52.073C287.372 51.5003 287.687 50.6699 287.687 49.5819C287.687 48.4938 287.329 47.6777 286.613 47.1337C285.926 46.561 284.823 46.2747 283.306 46.2747C282.876 46.2747 282.533 46.289 282.275 46.3177C282.017 46.3463 281.731 46.3892 281.416 46.4465V52.889H284.165ZM299.729 44.9862C299.729 43.755 300.087 42.7815 300.802 42.0656C301.518 41.3498 302.492 40.9919 303.723 40.9919H317.896C318.097 41.3068 318.269 41.722 318.412 42.2374C318.584 42.7528 318.67 43.2969 318.67 43.8695C318.67 44.9576 318.426 45.7307 317.939 46.1888C317.481 46.6469 316.866 46.876 316.093 46.876H307.03V50.8704H316.694C316.894 51.1853 317.066 51.6005 317.209 52.1159C317.381 52.6027 317.467 53.1324 317.467 53.7051C317.467 54.7931 317.238 55.5662 316.78 56.0243C316.322 56.4825 315.706 56.7115 314.933 56.7115H307.03V61.2213H318.068C318.269 61.5363 318.441 61.9514 318.584 62.4668C318.755 62.9822 318.841 63.5263 318.841 64.0989C318.841 65.187 318.598 65.9744 318.111 66.4612C317.653 66.9193 317.037 67.1484 316.264 67.1484H303.723C302.492 67.1484 301.518 66.7905 300.802 66.0746C300.087 65.3588 299.729 64.3853 299.729 63.154V44.9862ZM322.829 44.9862C322.829 43.755 323.187 42.7815 323.903 42.0656C324.619 41.3498 325.592 40.9919 326.824 40.9919H340.997C341.198 41.3068 341.369 41.722 341.513 42.2374C341.684 42.7528 341.77 43.2969 341.77 43.8695C341.77 44.9576 341.527 45.7307 341.04 46.1888C340.582 46.6469 339.966 46.876 339.193 46.876H330.131V50.8704H339.795C339.995 51.1853 340.167 51.6005 340.31 52.1159C340.482 52.6027 340.568 53.1324 340.568 53.7051C340.568 54.7931 340.339 55.5662 339.88 56.0243C339.422 56.4825 338.807 56.7115 338.034 56.7115H330.131V61.2213H341.169C341.369 61.5363 341.541 61.9514 341.684 62.4668C341.856 62.9822 341.942 63.5263 341.942 64.0989C341.942 65.187 341.699 65.9744 341.212 66.4612C340.754 66.9193 340.138 67.1484 339.365 67.1484H326.824C325.592 67.1484 324.619 66.7905 323.903 66.0746C323.187 65.3588 322.829 64.3853 322.829 63.154V44.9862ZM352.896 47.0049C352.696 46.6899 352.51 46.2604 352.338 45.7164C352.166 45.1723 352.08 44.5997 352.08 43.9984C352.08 42.8817 352.324 42.0799 352.81 41.5932C353.326 41.1064 353.984 40.863 354.786 40.863H373.512C373.713 41.178 373.899 41.6075 374.071 42.1515C374.242 42.6956 374.328 43.2682 374.328 43.8695C374.328 44.9862 374.071 45.7879 373.555 46.2747C373.068 46.7615 372.424 47.0049 371.622 47.0049H366.855V66.8477C366.54 66.9336 366.039 67.0195 365.352 67.1054C364.693 67.1913 364.035 67.2343 363.376 67.2343C362.718 67.2343 362.131 67.177 361.615 67.0625C361.128 66.9766 360.713 66.8048 360.37 66.5471C360.026 66.2894 359.768 65.9315 359.596 65.4733C359.425 65.0152 359.339 64.4139 359.339 63.6694V47.0049H352.896ZM385.008 58.6013V66.8477C384.693 66.9336 384.192 67.0195 383.505 67.1054C382.847 67.1913 382.188 67.2343 381.529 67.2343C380.871 67.2343 380.284 67.177 379.769 67.0625C379.282 66.9766 378.867 66.8048 378.523 66.5471C378.208 66.2894 377.965 65.9315 377.793 65.4733C377.621 65.0152 377.535 64.4139 377.535 63.6694V43.44C377.535 42.8387 377.693 42.3806 378.008 42.0656C378.351 41.722 378.809 41.45 379.382 41.2496C380.356 40.906 381.487 40.6626 382.775 40.5194C384.064 40.3476 385.438 40.2617 386.898 40.2617C390.85 40.2617 393.827 41.0921 395.832 42.7528C397.836 44.4136 398.838 46.6613 398.838 49.496C398.838 51.2712 398.38 52.7888 397.464 54.0487C396.548 55.3085 395.46 56.282 394.2 56.9692C395.231 58.3723 396.247 59.6894 397.249 60.9206C398.251 62.1519 399.039 63.2686 399.611 64.2707C399.325 65.2729 398.795 66.046 398.022 66.59C397.278 67.1054 396.433 67.3631 395.488 67.3631C394.858 67.3631 394.314 67.2915 393.856 67.1484C393.398 67.0052 392.997 66.8048 392.654 66.5471C392.31 66.2894 391.995 65.9744 391.709 65.6022C391.422 65.23 391.15 64.8291 390.893 64.3996L387.285 58.6013H385.008ZM387.714 52.889C388.802 52.889 389.661 52.617 390.291 52.073C390.921 51.5003 391.236 50.6699 391.236 49.5819C391.236 48.4938 390.878 47.6777 390.162 47.1337C389.475 46.561 388.373 46.2747 386.855 46.2747C386.426 46.2747 386.082 46.289 385.824 46.3177C385.567 46.3463 385.28 46.3892 384.965 46.4465V52.889H387.714ZM410.794 66.8477C410.48 66.9336 409.978 67.0195 409.291 67.1054C408.633 67.1913 407.974 67.2343 407.316 67.2343C406.657 67.2343 406.07 67.177 405.555 67.0625C405.068 66.9766 404.653 66.8048 404.309 66.5471C403.965 66.2894 403.708 65.9315 403.536 65.4733C403.364 65.0152 403.278 64.4139 403.278 63.6694V40.9919C403.593 40.9346 404.094 40.863 404.782 40.7771C405.469 40.6626 406.127 40.6053 406.757 40.6053C407.416 40.6053 407.988 40.6626 408.475 40.7771C408.991 40.863 409.42 41.0348 409.764 41.2925C410.107 41.5502 410.365 41.9081 410.537 42.3663C410.709 42.8244 410.794 43.4257 410.794 44.1702V66.8477ZM421.476 41.765C421.962 41.4786 422.693 41.2066 423.666 40.9489C424.668 40.6912 425.67 40.5624 426.673 40.5624C428.104 40.5624 429.364 40.7771 430.452 41.2066C431.569 41.6075 432.285 42.2517 432.6 43.1394C433.115 44.6283 433.673 46.3606 434.275 48.3363C434.876 50.312 435.477 52.3593 436.079 54.4782C436.68 56.5684 437.267 58.6443 437.84 60.7059C438.412 62.7389 438.913 64.5428 439.343 66.1176C438.999 66.5184 438.484 66.8334 437.797 67.0625C437.109 67.3202 436.293 67.449 435.348 67.449C434.661 67.449 434.074 67.3918 433.587 67.2772C433.129 67.1627 432.743 66.9909 432.428 66.7618C432.141 66.5328 431.898 66.2321 431.698 65.8599C431.526 65.4877 431.368 65.0582 431.225 64.5714L430.452 61.6078H422.678C422.449 62.4668 422.22 63.3545 421.991 64.2707C421.762 65.187 421.533 66.0746 421.304 66.9336C420.903 67.0768 420.473 67.1913 420.015 67.2772C419.586 67.3918 419.056 67.449 418.426 67.449C416.966 67.449 415.878 67.2056 415.162 66.7189C414.475 66.2035 414.131 65.502 414.131 64.6143C414.131 64.2135 414.188 63.8126 414.303 63.4117C414.417 63.0109 414.546 62.5384 414.69 61.9944C414.89 61.2213 415.162 60.2621 415.506 59.1167C415.878 57.9714 416.279 56.7402 416.708 55.4231C417.138 54.0773 417.596 52.7029 418.083 51.2999C418.569 49.8968 419.027 48.5797 419.457 47.3485C419.886 46.0886 420.273 44.9719 420.617 43.9984C420.989 43.0248 421.275 42.2804 421.476 41.765ZM426.63 47.3055C426.229 48.5081 425.771 49.8539 425.255 51.3428C424.768 52.8031 424.325 54.292 423.924 55.8096H429.25C428.849 54.2634 428.433 52.7602 428.004 51.2999C427.603 49.8109 427.231 48.4795 426.887 47.3055H426.63ZM446.428 67.1484C445.196 67.1484 444.223 66.7905 443.507 66.0746C442.791 65.3588 442.433 64.3853 442.433 63.154V40.9489C442.748 40.8917 443.249 40.8201 443.936 40.7342C444.624 40.6196 445.282 40.5624 445.912 40.5624C446.571 40.5624 447.143 40.6196 447.63 40.7342C448.146 40.8201 448.575 40.9919 448.919 41.2496C449.262 41.5073 449.52 41.8652 449.692 42.3233C449.864 42.7815 449.949 43.3828 449.949 44.1272V61.0924H459.785C459.985 61.4074 460.171 61.8369 460.343 62.3809C460.515 62.8963 460.601 63.4404 460.601 64.013C460.601 65.1584 460.358 65.9744 459.871 66.4612C459.384 66.9193 458.74 67.1484 457.938 67.1484H446.428ZM471.411 42.1086C471.411 42.7671 471.397 43.7264 471.368 44.9862C471.34 46.2174 471.282 47.5632 471.197 49.0235C471.111 50.4552 470.996 51.9012 470.853 53.3615C470.71 54.7931 470.538 56.0387 470.338 57.0981C470.223 57.184 470.051 57.2699 469.822 57.3558C469.593 57.4417 469.35 57.5133 469.092 57.5705C468.834 57.6278 468.577 57.6708 468.319 57.6994C468.061 57.728 467.832 57.7423 467.632 57.7423C466.801 57.7423 466.1 57.6135 465.527 57.3558C464.983 57.0981 464.64 56.597 464.496 55.8525C464.353 55.194 464.224 54.1918 464.11 52.8461C464.024 51.5003 463.938 50.04 463.852 48.4652C463.766 46.8903 463.695 45.3298 463.637 43.7836C463.609 42.2374 463.594 40.9203 463.594 39.8322C464.167 39.5173 464.811 39.2739 465.527 39.1021C466.272 38.9016 467.002 38.8014 467.718 38.8014C468.892 38.8014 469.793 39.0734 470.423 39.6175C471.082 40.1615 471.411 40.9919 471.411 42.1086ZM463.508 63.7553C463.508 62.5814 463.866 61.6222 464.582 60.8777C465.327 60.1046 466.343 59.718 467.632 59.718C468.92 59.718 469.922 60.1046 470.638 60.8777C471.383 61.6222 471.755 62.5814 471.755 63.7553C471.755 64.9293 471.383 65.9028 470.638 66.6759C469.922 67.4204 468.92 67.7926 467.632 67.7926C466.343 67.7926 465.327 67.4204 464.582 66.6759C463.866 65.9028 463.508 64.9293 463.508 63.7553Z" fill="white"/>
<defs>
<linearGradient id="paint0_linear" x1="265.039" y1="8.75" x2="265.039" y2="102.655" gradientUnits="userSpaceOnUse">
<stop stop-color="#EA7523"/>
<stop offset="1" stop-color="#E07E32"/>
</linearGradient>
<linearGradient id="paint1_linear" x1="339.454" y1="14.1568" x2="336.621" y2="102.076" gradientUnits="userSpaceOnUse">
<stop offset="0.135417" stop-color="#FDE44A"/>
<stop offset="0.744452" stop-color="#EE7219"/>
</linearGradient>
<radialGradient id="paint2_radial" cx="0" cy="0" r="1" gradientUnits="userSpaceOnUse" gradientTransform="translate(283.521 40.0162) rotate(108.654) scale(57.0464 318.43)">
<stop stop-color="#FACC28"/>
<stop offset="1" stop-color="#FA8F11"/>
</radialGradient>
</defs>
</svg>
