<svg width="531" height="118" viewBox="0 0 531 118" fill="none" xmlns="http://www.w3.org/2000/svg">
<path d="M17.5759 52.88C19.554 30.6402 38.0788 13.5273 60.4054 13.3149L463.962 9.47633C487.688 9.25065 507.798 26.881 510.68 50.4324V50.4324C514.093 78.3362 492.219 102.892 464.108 102.712L60.5415 100.138C35.1576 99.9764 15.3271 78.1646 17.5759 52.88V52.88Z" fill="url(#paint0_linear)"/>
<path d="M19.6293 54.5441C20.8743 32.7553 38.8082 15.6682 60.6318 15.4777L464.741 11.9507C487.308 11.7537 506.342 28.714 508.737 51.1549V51.1549C511.51 77.1314 491.103 99.7578 464.979 99.6716L60.8568 98.339C37.0998 98.2607 18.274 78.2625 19.6293 54.5441V54.5441Z" fill="url(#paint1_linear)"/>
<path d="M24.2083 54.4129C24.9551 33.7739 41.8709 17.4103 62.5233 17.3485L462.79 16.1515C481.31 16.0961 497.182 29.3759 500.396 47.6145V47.6145C504.491 70.8489 486.683 92.1752 463.091 92.2912L62.8272 94.2582C40.9697 94.3656 23.4178 76.2564 24.2083 54.4129V54.4129Z" fill="url(#paint2_radial)"/>
<path d="M67.8411 56.835C66.5856 56.4071 65.4444 55.9791 64.4172 55.5511C63.39 55.0946 62.5055 54.5525 61.7637 53.9248C61.0219 53.2971 60.437 52.5552 60.009 51.6993C59.6095 50.8148 59.4098 49.7448 59.4098 48.4894C59.4098 46.0642 60.3371 44.124 62.1917 42.6688C64.0748 41.2137 66.6998 40.4861 70.0666 40.4861C71.2934 40.4861 72.4347 40.5717 73.4904 40.7429C74.5461 40.9141 75.4449 41.1852 76.1867 41.5561C76.9571 41.8985 77.5563 42.355 77.9842 42.9256C78.4122 43.4677 78.6262 44.1097 78.6262 44.8515C78.6262 45.5934 78.455 46.2353 78.1126 46.7775C77.7702 47.291 77.3565 47.7333 76.8715 48.1042C76.2438 47.7047 75.4021 47.3624 74.3464 47.077C73.2907 46.7632 72.1351 46.6063 70.8797 46.6063C69.5958 46.6063 68.6542 46.7917 68.055 47.1626C67.4559 47.505 67.1563 47.9473 67.1563 48.4894C67.1563 48.9174 67.3417 49.274 67.7127 49.5593C68.0836 49.8161 68.64 50.0587 69.3818 50.2869L71.6501 51.0145C74.3321 51.8704 76.3864 52.9689 77.813 54.3099C79.2682 55.6224 79.9958 57.4199 79.9958 59.7025C79.9958 62.1278 79.0399 64.0965 77.1283 65.6087C75.2166 67.0923 72.4062 67.8342 68.697 67.8342C67.3845 67.8342 66.1577 67.7201 65.0164 67.4918C63.9036 67.2921 62.9193 66.9925 62.0633 66.593C61.2359 66.1651 60.5796 65.6515 60.0946 65.0523C59.6381 64.4246 59.4098 63.7113 59.4098 62.9124C59.4098 62.085 59.6523 61.3859 60.1374 60.8153C60.6224 60.2161 61.1503 59.7596 61.7209 59.4457C62.5198 60.0734 63.4899 60.6156 64.6312 61.0721C65.801 61.5286 67.0707 61.7568 68.4402 61.7568C69.8383 61.7568 70.8227 61.5428 71.3933 61.1149C71.964 60.6869 72.2493 60.1876 72.2493 59.6169C72.2493 59.0463 72.021 58.6183 71.5645 58.333C71.108 58.0191 70.466 57.7195 69.6386 57.4342L67.8411 56.835ZM81.8826 47.2054C81.6828 46.8916 81.4974 46.4636 81.3262 45.9215C81.155 45.3794 81.0694 44.8087 81.0694 44.2096C81.0694 43.0968 81.3119 42.2979 81.797 41.8129C82.3105 41.3278 82.9668 41.0853 83.7657 41.0853H102.426C102.625 41.3991 102.811 41.8271 102.982 42.3692C103.153 42.9113 103.239 43.482 103.239 44.0812C103.239 45.1939 102.982 45.9928 102.469 46.4779C101.983 46.9629 101.341 47.2054 100.543 47.2054H95.792V66.9782C95.4781 67.0638 94.9788 67.1494 94.294 67.235C93.6378 67.3206 92.9816 67.3634 92.3253 67.3634C91.6691 67.3634 91.0842 67.3063 90.5706 67.1922C90.0855 67.1066 89.6718 66.9354 89.3294 66.6786C88.9871 66.4218 88.7303 66.0652 88.5591 65.6087C88.3879 65.1522 88.3023 64.553 88.3023 63.8112V47.2054H81.8826ZM110.242 41.9841C110.727 41.6987 111.454 41.4277 112.424 41.1709C113.423 40.9141 114.422 40.7857 115.42 40.7857C116.847 40.7857 118.102 40.9997 119.187 41.4277C120.299 41.8271 121.013 42.4691 121.326 43.3536C121.84 44.8373 122.396 46.5635 122.996 48.5322C123.595 50.5009 124.194 52.5409 124.793 54.6523C125.392 56.7352 125.977 58.8038 126.548 60.8581C127.119 62.8839 127.618 64.6814 128.046 66.2507C127.703 66.6501 127.19 66.964 126.505 67.1922C125.82 67.449 125.007 67.5774 124.066 67.5774C123.381 67.5774 122.796 67.5203 122.311 67.4062C121.854 67.2921 121.469 67.1209 121.155 66.8926C120.87 66.6644 120.627 66.3648 120.428 65.9939C120.257 65.6229 120.1 65.195 119.957 64.7099L119.187 61.7568H111.44C111.212 62.6128 110.984 63.4973 110.755 64.4103C110.527 65.3234 110.299 66.2079 110.071 67.0638C109.671 67.2065 109.243 67.3206 108.787 67.4062C108.359 67.5203 107.831 67.5774 107.203 67.5774C105.748 67.5774 104.664 67.3349 103.95 66.8498C103.266 66.3362 102.923 65.6372 102.923 64.7527C102.923 64.3533 102.98 63.9538 103.094 63.5544C103.209 63.1549 103.337 62.6841 103.48 62.142C103.679 61.3717 103.95 60.4158 104.293 59.2745C104.664 58.1333 105.063 56.9064 105.491 55.5939C105.919 54.2529 106.376 52.8833 106.861 51.4853C107.346 50.0872 107.802 48.7747 108.23 47.5478C108.658 46.2924 109.043 45.1797 109.386 44.2096C109.757 43.2395 110.042 42.4976 110.242 41.9841ZM115.378 47.505C114.978 48.7034 114.522 50.0444 114.008 51.5281C113.523 52.9832 113.081 54.4669 112.681 55.9791H117.988C117.589 54.4383 117.175 52.9404 116.747 51.4853C116.348 50.0016 115.977 48.6748 115.634 47.505H115.378ZM138.572 58.761V66.9782C138.258 67.0638 137.759 67.1494 137.074 67.235C136.418 67.3206 135.762 67.3634 135.106 67.3634C134.449 67.3634 133.864 67.3063 133.351 67.1922C132.866 67.1066 132.452 66.9354 132.11 66.6786C131.796 66.4218 131.553 66.0652 131.382 65.6087C131.211 65.1522 131.125 64.553 131.125 63.8112V43.6532C131.125 43.054 131.282 42.5975 131.596 42.2836C131.938 41.9413 132.395 41.6702 132.966 41.4705C133.936 41.1281 135.063 40.8856 136.347 40.7429C137.631 40.5717 139 40.4861 140.455 40.4861C144.393 40.4861 147.36 41.3135 149.357 42.9684C151.355 44.6233 152.353 46.8631 152.353 49.6877C152.353 51.4567 151.897 52.9689 150.984 54.2243C150.071 55.4798 148.986 56.4499 147.731 57.1346C148.758 58.5327 149.771 59.8452 150.77 61.0721C151.768 62.2989 152.553 63.4117 153.124 64.4103C152.838 65.409 152.31 66.1793 151.54 66.7214C150.798 67.235 149.956 67.4918 149.015 67.4918C148.387 67.4918 147.845 67.4205 147.389 67.2778C146.932 67.1351 146.533 66.9354 146.19 66.6786C145.848 66.4218 145.534 66.108 145.249 65.7371C144.963 65.3662 144.692 64.9667 144.436 64.5387L140.84 58.761H138.572ZM141.268 53.0688C142.353 53.0688 143.209 52.7977 143.836 52.2556C144.464 51.685 144.778 50.8576 144.778 49.7733C144.778 48.6891 144.421 47.8759 143.708 47.3338C143.023 46.7632 141.925 46.4779 140.412 46.4779C139.985 46.4779 139.642 46.4921 139.385 46.5207C139.129 46.5492 138.843 46.592 138.529 46.6491V53.0688H141.268ZM154.952 47.2054C154.752 46.8916 154.567 46.4636 154.396 45.9215C154.225 45.3794 154.139 44.8087 154.139 44.2096C154.139 43.0968 154.382 42.2979 154.867 41.8129C155.38 41.3278 156.036 41.0853 156.835 41.0853H175.495C175.695 41.3991 175.881 41.8271 176.052 42.3692C176.223 42.9113 176.308 43.482 176.308 44.0812C176.308 45.1939 176.052 45.9928 175.538 46.4779C175.053 46.9629 174.411 47.2054 173.612 47.2054H168.862V66.9782C168.548 67.0638 168.048 67.1494 167.364 67.235C166.707 67.3206 166.051 67.3634 165.395 67.3634C164.739 67.3634 164.154 67.3063 163.64 67.1922C163.155 67.1066 162.741 66.9354 162.399 66.6786C162.057 66.4218 161.8 66.0652 161.629 65.6087C161.458 65.1522 161.372 64.553 161.372 63.8112V47.2054H154.952ZM205.576 60.7725C205.206 61.0863 204.721 61.3431 204.121 61.5428C203.551 61.714 202.88 61.7996 202.11 61.7996C201.083 61.7996 200.227 61.6712 199.542 61.4145C198.886 61.1577 198.458 60.7154 198.258 60.0877C197.459 57.5769 196.803 55.5511 196.289 54.0104C195.776 52.4411 195.376 51.0715 195.091 49.9017H194.877C194.791 51.5851 194.72 53.1259 194.663 54.5239C194.634 55.8935 194.606 57.2345 194.577 58.547C194.577 59.8594 194.549 61.1862 194.492 62.5272C194.463 63.8682 194.406 65.3519 194.321 66.9782C193.95 67.1209 193.465 67.235 192.865 67.3206C192.266 67.4347 191.667 67.4918 191.068 67.4918C189.812 67.4918 188.828 67.2921 188.115 66.8926C187.43 66.4932 187.088 65.7656 187.088 64.7099L188.329 42.8828C188.557 42.5119 189.056 42.1124 189.827 41.6845C190.597 41.2565 191.681 41.0425 193.079 41.0425C194.592 41.0425 195.776 41.285 196.632 41.7701C197.488 42.2266 198.115 42.9827 198.515 44.0384C198.772 44.7231 199.043 45.5078 199.328 46.3923C199.642 47.2768 199.941 48.1898 200.227 49.1314C200.541 50.0729 200.84 51.0145 201.125 51.956C201.411 52.8691 201.668 53.6965 201.896 54.4383H202.11C202.795 52.0416 203.479 49.7305 204.164 47.505C204.849 45.251 205.477 43.3679 206.047 41.8557C206.475 41.6274 207.017 41.4419 207.674 41.2993C208.358 41.1281 209.114 41.0425 209.942 41.0425C211.34 41.0425 212.481 41.2565 213.366 41.6845C214.25 42.0839 214.764 42.6688 214.906 43.4392C215.021 44.0098 215.135 44.8943 215.249 46.0927C215.392 47.2625 215.534 48.5892 215.677 50.0729C215.82 51.5566 215.962 53.1259 216.105 54.7807C216.247 56.4356 216.376 58.0334 216.49 59.5741C216.633 61.0863 216.747 62.4844 216.832 63.7684C216.918 65.0238 216.975 65.9939 217.004 66.6786C216.519 66.964 216.005 67.1637 215.463 67.2778C214.949 67.4205 214.279 67.4918 213.451 67.4918C212.367 67.4918 211.454 67.3063 210.712 66.9354C209.97 66.5645 209.571 65.8369 209.514 64.7527C209.343 61.6427 209.229 58.8466 209.172 56.3643C209.143 53.882 209.086 51.7991 209 50.1157H208.786C208.501 51.2285 208.087 52.6265 207.545 54.3099C207.003 55.9933 206.347 58.1475 205.576 60.7725ZM233.802 66.9782C233.488 67.0638 233.003 67.1494 232.347 67.235C231.691 67.3206 231.049 67.3634 230.421 67.3634C229.109 67.3634 228.124 67.1494 227.468 66.7214C226.812 66.2649 226.484 65.3234 226.484 63.8967V58.119C225.77 57.0633 225 55.8935 224.173 54.6095C223.345 53.3256 222.532 52.0131 221.733 50.6721C220.934 49.3311 220.192 48.0186 219.508 46.7347C218.823 45.4222 218.266 44.2238 217.838 43.1396C218.209 42.626 218.709 42.1552 219.336 41.7273C219.993 41.2993 220.792 41.0853 221.733 41.0853C222.846 41.0853 223.745 41.3135 224.429 41.7701C225.143 42.2266 225.813 43.0825 226.441 44.338L229.993 51.4853H230.25C230.649 50.6008 230.992 49.8019 231.277 49.0886C231.591 48.3467 231.891 47.6192 232.176 46.9058C232.461 46.164 232.761 45.4079 233.075 44.6375C233.389 43.8386 233.745 42.9256 234.145 41.8985C234.658 41.6417 235.229 41.4419 235.857 41.2993C236.484 41.1566 237.083 41.0853 237.654 41.0853C238.653 41.0853 239.494 41.3563 240.179 41.8985C240.892 42.412 241.249 43.1967 241.249 44.2524C241.249 44.5947 241.178 45.0085 241.035 45.4935C240.892 45.9786 240.564 46.7204 240.051 47.719C239.537 48.6891 238.781 50.0159 237.782 51.6993C236.812 53.3826 235.486 55.5796 233.802 58.2902V66.9782ZM270.712 41.2137C270.912 41.5275 271.083 41.9555 271.226 42.4976C271.397 43.0112 271.482 43.5533 271.482 44.124C271.482 45.2367 271.24 46.0356 270.755 46.5207C270.298 46.9772 269.671 47.2054 268.872 47.2054H259.884V52.0416H269.257C269.485 52.3555 269.671 52.7692 269.813 53.2828C269.984 53.7964 270.07 54.3385 270.07 54.9091C270.07 55.9933 269.828 56.778 269.342 57.263C268.886 57.7195 268.258 57.9478 267.459 57.9478H259.97V66.9782C259.656 67.0638 259.157 67.1494 258.472 67.235C257.816 67.3206 257.159 67.3634 256.503 67.3634C255.847 67.3634 255.262 67.3063 254.748 67.1922C254.263 67.1066 253.85 66.9354 253.507 66.6786C253.165 66.4218 252.908 66.0652 252.737 65.6087C252.566 65.1522 252.48 64.553 252.48 63.8112V45.1939C252.48 43.967 252.837 42.9969 253.55 42.2836C254.263 41.5703 255.233 41.2137 256.46 41.2137H270.712ZM282.235 58.761V66.9782C281.922 67.0638 281.422 67.1494 280.738 67.235C280.081 67.3206 279.425 67.3634 278.769 67.3634C278.113 67.3634 277.528 67.3063 277.014 67.1922C276.529 67.1066 276.115 66.9354 275.773 66.6786C275.459 66.4218 275.217 66.0652 275.045 65.6087C274.874 65.1522 274.789 64.553 274.789 63.8112V43.6532C274.789 43.054 274.945 42.5975 275.259 42.2836C275.602 41.9413 276.058 41.6702 276.629 41.4705C277.599 41.1281 278.726 40.8856 280.01 40.7429C281.294 40.5717 282.663 40.4861 284.119 40.4861C288.056 40.4861 291.023 41.3135 293.021 42.9684C295.018 44.6233 296.016 46.8631 296.016 49.6877C296.016 51.4567 295.56 52.9689 294.647 54.2243C293.734 55.4798 292.65 56.4499 291.394 57.1346C292.421 58.5327 293.434 59.8452 294.433 61.0721C295.432 62.2989 296.216 63.4117 296.787 64.4103C296.502 65.409 295.974 66.1793 295.203 66.7214C294.461 67.235 293.62 67.4918 292.678 67.4918C292.051 67.4918 291.508 67.4205 291.052 67.2778C290.595 67.1351 290.196 66.9354 289.854 66.6786C289.511 66.4218 289.197 66.108 288.912 65.7371C288.627 65.3662 288.356 64.9667 288.099 64.5387L284.504 58.761H282.235ZM284.932 53.0688C286.016 53.0688 286.872 52.7977 287.5 52.2556C288.127 51.685 288.441 50.8576 288.441 49.7733C288.441 48.6891 288.085 47.8759 287.371 47.3338C286.686 46.7632 285.588 46.4779 284.076 46.4779C283.648 46.4779 283.305 46.4921 283.049 46.5207C282.792 46.5492 282.507 46.592 282.193 46.6491V53.0688H284.932ZM300.441 45.1939C300.441 43.967 300.797 42.9969 301.511 42.2836C302.224 41.5703 303.194 41.2137 304.421 41.2137H318.544C318.744 41.5275 318.915 41.9413 319.058 42.4548C319.229 42.9684 319.315 43.5105 319.315 44.0812C319.315 45.1654 319.072 45.9358 318.587 46.3923C318.131 46.8488 317.517 47.077 316.747 47.077H307.716V51.0573H317.346C317.546 51.3711 317.717 51.7848 317.86 52.2984C318.031 52.7835 318.116 53.3113 318.116 53.882C318.116 54.9662 317.888 55.7366 317.432 56.1931C316.975 56.6496 316.362 56.8778 315.591 56.8778H307.716V61.3717H318.716C318.915 61.6855 319.087 62.0992 319.229 62.6128C319.4 63.1264 319.486 63.6685 319.486 64.2391C319.486 65.3234 319.243 66.108 318.758 66.593C318.302 67.0496 317.688 67.2778 316.918 67.2778H304.421C303.194 67.2778 302.224 66.9212 301.511 66.2079C300.797 65.4945 300.441 64.5245 300.441 63.2976V45.1939ZM323.46 45.1939C323.46 43.967 323.817 42.9969 324.53 42.2836C325.243 41.5703 326.213 41.2137 327.44 41.2137H341.564C341.763 41.5275 341.934 41.9413 342.077 42.4548C342.248 42.9684 342.334 43.5105 342.334 44.0812C342.334 45.1654 342.091 45.9358 341.606 46.3923C341.15 46.8488 340.536 47.077 339.766 47.077H330.736V51.0573H340.365C340.565 51.3711 340.736 51.7848 340.879 52.2984C341.05 52.7835 341.136 53.3113 341.136 53.882C341.136 54.9662 340.907 55.7366 340.451 56.1931C339.994 56.6496 339.381 56.8778 338.61 56.8778H330.736V61.3717H341.735C341.934 61.6855 342.106 62.0992 342.248 62.6128C342.419 63.1264 342.505 63.6685 342.505 64.2391C342.505 65.3234 342.263 66.108 341.778 66.593C341.321 67.0496 340.708 67.2778 339.937 67.2778H327.44C326.213 67.2778 325.243 66.9212 324.53 66.2079C323.817 65.4945 323.46 64.5245 323.46 63.2976V45.1939ZM366.602 47.5478C366.916 47.4052 367.401 47.2482 368.058 47.077C368.742 46.8773 369.427 46.7775 370.112 46.7775C371.31 46.7775 372.309 46.9629 373.108 47.3338C373.907 47.6762 374.392 48.1898 374.563 48.8746C374.877 50.0444 375.162 51.1429 375.419 52.17C375.704 53.1687 375.975 54.1388 376.232 55.0803C376.489 55.9933 376.731 56.9064 376.96 57.8194C377.216 58.7324 377.459 59.6883 377.687 60.6869H377.901C378.158 58.9464 378.386 57.2916 378.586 55.7223C378.786 54.1245 378.971 52.5695 379.142 51.0573C379.314 49.5165 379.485 48.0043 379.656 46.5207C379.827 45.0085 379.998 43.482 380.17 41.9413C381.225 41.3421 382.352 41.0425 383.551 41.0425C384.606 41.0425 385.519 41.2707 386.29 41.7273C387.06 42.1838 387.445 42.9541 387.445 44.0384C387.445 44.6661 387.374 45.5648 387.231 46.7347C387.117 47.8759 386.946 49.1599 386.718 50.5865C386.518 52.0131 386.275 53.511 385.99 55.0803C385.705 56.6496 385.405 58.1475 385.091 59.5741C384.777 61.0007 384.449 62.2989 384.107 63.4688C383.793 64.6101 383.494 65.4945 383.208 66.1223C382.78 66.5217 382.081 66.8498 381.111 67.1066C380.141 67.3634 379.142 67.4918 378.115 67.4918C376.774 67.4918 375.633 67.3206 374.691 66.9782C373.778 66.6073 373.222 66.0937 373.022 65.4375C372.651 64.2962 372.252 62.9409 371.824 61.3717C371.396 59.8024 370.939 58.0762 370.454 56.1931C370.055 58.0477 369.641 59.8594 369.213 61.6284C368.785 63.3974 368.4 64.8954 368.058 66.1223C367.63 66.5217 366.988 66.8498 366.132 67.1066C365.276 67.3634 364.334 67.4918 363.307 67.4918C362.023 67.4918 360.853 67.3206 359.798 66.9782C358.77 66.6073 358.1 66.0937 357.786 65.4375C357.529 64.9239 357.244 64.1678 356.93 63.1692C356.645 62.142 356.345 60.9865 356.031 59.7025C355.717 58.39 355.389 56.9777 355.047 55.4655C354.733 53.9533 354.434 52.4411 354.148 50.9289C353.891 49.4167 353.649 47.9473 353.421 46.5207C353.192 45.0655 353.021 43.7388 352.907 42.5404C353.307 42.1695 353.863 41.8271 354.576 41.5133C355.289 41.1994 356.06 41.0425 356.887 41.0425C357.972 41.0425 358.856 41.285 359.541 41.7701C360.254 42.2266 360.696 43.0112 360.868 44.124C361.324 47.0342 361.695 49.4595 361.98 51.3997C362.294 53.3399 362.537 54.9377 362.708 56.1931C362.908 57.4199 363.05 58.3758 363.136 59.0605C363.221 59.7453 363.307 60.2874 363.393 60.6869H363.607C363.863 59.5456 364.106 58.4899 364.334 57.5198C364.562 56.5497 364.791 55.5796 365.019 54.6095C365.276 53.6109 365.533 52.5552 365.789 51.4425C366.046 50.3012 366.317 49.003 366.602 47.5478ZM391.138 45.1939C391.138 43.967 391.495 42.9969 392.208 42.2836C392.921 41.5703 393.891 41.2137 395.118 41.2137H409.242C409.441 41.5275 409.612 41.9413 409.755 42.4548C409.926 42.9684 410.012 43.5105 410.012 44.0812C410.012 45.1654 409.769 45.9358 409.284 46.3923C408.828 46.8488 408.214 47.077 407.444 47.077H398.414V51.0573H408.043C408.243 51.3711 408.414 51.7848 408.557 52.2984C408.728 52.7835 408.814 53.3113 408.814 53.882C408.814 54.9662 408.585 55.7366 408.129 56.1931C407.672 56.6496 407.059 56.8778 406.288 56.8778H398.414V61.3717H409.413C409.612 61.6855 409.784 62.0992 409.926 62.6128C410.098 63.1264 410.183 63.6685 410.183 64.2391C410.183 65.3234 409.941 66.108 409.456 66.593C408.999 67.0496 408.386 67.2778 407.615 67.2778H395.118C393.891 67.2778 392.921 66.9212 392.208 66.2079C391.495 65.4945 391.138 64.5245 391.138 63.2976V45.1939ZM414.157 45.1939C414.157 43.967 414.514 42.9969 415.227 42.2836C415.94 41.5703 416.91 41.2137 418.137 41.2137H432.261C432.46 41.5275 432.632 41.9413 432.774 42.4548C432.945 42.9684 433.031 43.5105 433.031 44.0812C433.031 45.1654 432.789 45.9358 432.303 46.3923C431.847 46.8488 431.234 47.077 430.463 47.077H421.433V51.0573H431.062C431.262 51.3711 431.433 51.7848 431.576 52.2984C431.747 52.7835 431.833 53.3113 431.833 53.882C431.833 54.9662 431.604 55.7366 431.148 56.1931C430.691 56.6496 430.078 56.8778 429.308 56.8778H421.433V61.3717H432.432C432.632 61.6855 432.803 62.0992 432.945 62.6128C433.117 63.1264 433.202 63.6685 433.202 64.2391C433.202 65.3234 432.96 66.108 432.475 66.593C432.018 67.0496 431.405 67.2778 430.634 67.2778H418.137C416.91 67.2778 415.94 66.9212 415.227 66.2079C414.514 65.4945 414.157 64.5245 414.157 63.2976V45.1939ZM444.709 57.5198V66.9782C444.395 67.0638 443.895 67.1494 443.211 67.235C442.526 67.3206 441.855 67.3634 441.199 67.3634C440.543 67.3634 439.958 67.3063 439.444 67.1922C438.959 67.1066 438.546 66.9354 438.203 66.6786C437.861 66.4218 437.604 66.0652 437.433 65.6087C437.262 65.1522 437.176 64.553 437.176 63.8112V41.2137C437.49 41.1566 437.989 41.0853 438.674 40.9997C439.359 40.8856 440.015 40.8285 440.643 40.8285C441.299 40.8285 441.87 40.8856 442.355 40.9997C442.868 41.0853 443.296 41.2565 443.639 41.5133C443.981 41.7701 444.238 42.1267 444.409 42.5832C444.58 43.0397 444.666 43.6389 444.666 44.3808V51.1857L453.568 40.9569C455.508 40.9569 456.892 41.3278 457.719 42.0696C458.575 42.783 459.003 43.6389 459.003 44.6375C459.003 45.3794 458.818 46.0784 458.447 46.7347C458.076 47.3909 457.477 48.1327 456.649 48.9602L451.299 54.3099C452.013 55.1088 452.755 55.9363 453.525 56.7922C454.324 57.6482 455.094 58.4899 455.836 59.3173C456.606 60.1162 457.334 60.8866 458.019 61.6284C458.732 62.3703 459.346 63.0123 459.859 63.5544C459.859 64.1821 459.745 64.7384 459.517 65.2235C459.289 65.7085 458.975 66.1223 458.575 66.4646C458.204 66.807 457.776 67.0638 457.291 67.235C456.806 67.4062 456.293 67.4918 455.751 67.4918C454.581 67.4918 453.625 67.2065 452.883 66.6358C452.141 66.0367 451.428 65.3376 450.743 64.5387L444.709 57.5198ZM470.44 42.3264C470.44 42.9827 470.426 43.9385 470.398 45.1939C470.369 46.4208 470.312 47.7618 470.226 49.217C470.141 50.6436 470.027 52.0844 469.884 53.5396C469.741 54.9662 469.57 56.2073 469.37 57.263C469.256 57.3486 469.085 57.4342 468.857 57.5198C468.629 57.6054 468.386 57.6767 468.129 57.7338C467.872 57.7909 467.616 57.8337 467.359 57.8622C467.102 57.8907 466.874 57.905 466.674 57.905C465.847 57.905 465.148 57.7766 464.577 57.5198C464.035 57.263 463.693 56.7637 463.55 56.0219C463.407 55.3656 463.279 54.367 463.165 53.026C463.079 51.685 462.993 50.2298 462.908 48.6606C462.822 47.0913 462.751 45.5363 462.694 43.9956C462.665 42.4548 462.651 41.1424 462.651 40.0581C463.222 39.7443 463.864 39.5018 464.577 39.3306C465.319 39.1308 466.046 39.031 466.76 39.031C467.93 39.031 468.828 39.302 469.456 39.8441C470.112 40.3863 470.44 41.2137 470.44 42.3264ZM462.565 63.8967C462.565 62.7269 462.922 61.7711 463.635 61.0293C464.377 60.2589 465.39 59.8737 466.674 59.8737C467.958 59.8737 468.957 60.2589 469.67 61.0293C470.412 61.7711 470.783 62.7269 470.783 63.8967C470.783 65.0666 470.412 66.0367 469.67 66.807C468.957 67.5489 467.958 67.9198 466.674 67.9198C465.39 67.9198 464.377 67.5489 463.635 66.807C462.922 66.0367 462.565 65.0666 462.565 63.8967Z" fill="white"/>
<defs>
<linearGradient id="paint0_linear" x1="265.258" y1="9.08008" x2="265.258" y2="103.05" gradientUnits="userSpaceOnUse">
<stop stop-color="#EA7523"/>
<stop offset="1" stop-color="#E07E32"/>
</linearGradient>
<linearGradient id="paint1_linear" x1="339.712" y1="14.4918" x2="336.877" y2="102.472" gradientUnits="userSpaceOnUse">
<stop offset="0.135417" stop-color="#FDE44A"/>
<stop offset="0.744452" stop-color="#EE7219"/>
</linearGradient>
<radialGradient id="paint2_radial" cx="0" cy="0" r="1" gradientUnits="userSpaceOnUse" gradientTransform="translate(283.752 40.368) rotate(108.652) scale(57.0852 318.621)">
<stop stop-color="#FACC28"/>
<stop offset="1" stop-color="#FA8F11"/>
</radialGradient>
</defs>
</svg>
