<svg width="22" height="22" viewBox="0 0 22 22" fill="none" xmlns="http://www.w3.org/2000/svg">
<mask id="path-1-outside-1" maskUnits="userSpaceOnUse" x="-1" y="-1" width="24" height="23" fill="black">
<rect fill="white" x="-1" y="-1" width="24" height="23"/>
<path fill-rule="evenodd" clip-rule="evenodd" d="M4.36369 2.38656C3.82296 1.87115 2.94627 1.87115 2.40554 2.38656C1.86482 2.90197 1.86482 3.73762 2.40554 4.25304L9.04186 10.5787L2.40554 16.9043C1.86482 17.4197 1.86482 18.2554 2.40554 18.7708C2.94627 19.2862 3.82296 19.2862 4.36369 18.7708L11 12.4452L17.6363 18.7708C18.177 19.2862 19.0537 19.2862 19.5945 18.7708C20.1352 18.2554 20.1352 17.4197 19.5945 16.9043L12.9581 10.5787L19.5945 4.25304C20.1352 3.73762 20.1352 2.90197 19.5945 2.38656C19.0537 1.87115 18.177 1.87115 17.6363 2.38656L11 8.71221L4.36369 2.38656Z"/>
</mask>
<path fill-rule="evenodd" clip-rule="evenodd" d="M4.36369 2.38656C3.82296 1.87115 2.94627 1.87115 2.40554 2.38656C1.86482 2.90197 1.86482 3.73762 2.40554 4.25304L9.04186 10.5787L2.40554 16.9043C1.86482 17.4197 1.86482 18.2554 2.40554 18.7708C2.94627 19.2862 3.82296 19.2862 4.36369 18.7708L11 12.4452L17.6363 18.7708C18.177 19.2862 19.0537 19.2862 19.5945 18.7708C20.1352 18.2554 20.1352 17.4197 19.5945 16.9043L12.9581 10.5787L19.5945 4.25304C20.1352 3.73762 20.1352 2.90197 19.5945 2.38656C19.0537 1.87115 18.177 1.87115 17.6363 2.38656L11 8.71221L4.36369 2.38656Z" fill="white"/>
<path d="M2.40554 2.38656L3.78547 3.83425L3.78547 3.83425L2.40554 2.38656ZM4.36369 2.38656L2.98376 3.83425L2.98376 3.83425L4.36369 2.38656ZM2.40554 4.25304L3.78547 2.80534L2.40554 4.25304ZM9.04186 10.5787L10.4218 12.0264L11.9406 10.5787L10.4218 9.13099L9.04186 10.5787ZM2.40554 16.9043L3.78547 18.352H3.78547L2.40554 16.9043ZM2.40554 18.7708L3.78547 17.3231H3.78547L2.40554 18.7708ZM4.36369 18.7708L2.98376 17.3231L2.98376 17.3231L4.36369 18.7708ZM11 12.4452L12.3799 10.9975L11 9.68214L9.62008 10.9975L11 12.4452ZM17.6363 18.7708L19.0162 17.3231V17.3231L17.6363 18.7708ZM19.5945 18.7708L18.2145 17.3231L18.2145 17.3231L19.5945 18.7708ZM19.5945 16.9043L18.2145 18.352L18.2145 18.352L19.5945 16.9043ZM12.9581 10.5787L11.5782 9.13099L10.0594 10.5787L11.5782 12.0264L12.9581 10.5787ZM19.5945 4.25304L18.2145 2.80534L18.2145 2.80534L19.5945 4.25304ZM19.5945 2.38656L18.2145 3.83425L18.2145 3.83425L19.5945 2.38656ZM17.6363 2.38656L19.0162 3.83425V3.83425L17.6363 2.38656ZM11 8.71221L9.62008 10.1599L11 11.4752L12.3799 10.1599L11 8.71221ZM3.78547 3.83425C3.65956 3.95426 3.50949 4 3.38462 4C3.25974 4 3.10967 3.95426 2.98376 3.83425L5.74361 0.938867C4.43031 -0.312956 2.33892 -0.312956 1.02562 0.938867L3.78547 3.83425ZM3.78547 2.80534C4.07151 3.078 4.07151 3.5616 3.78547 3.83425L1.02562 0.938867C-0.341874 2.24235 -0.341874 4.39725 1.02562 5.70073L3.78547 2.80534ZM10.4218 9.13099L3.78547 2.80534L1.02562 5.70073L7.66194 12.0264L10.4218 9.13099ZM3.78547 18.352L10.4218 12.0264L7.66194 9.13099L1.02562 15.4566L3.78547 18.352ZM3.78547 17.3231C4.07151 17.5958 4.07151 18.0794 3.78547 18.352L1.02562 15.4566C-0.341875 16.7601 -0.341873 18.915 1.02562 20.2185L3.78547 17.3231ZM2.98376 17.3231C3.10967 17.2031 3.25974 17.1574 3.38462 17.1574C3.5095 17.1574 3.65956 17.2031 3.78547 17.3231L1.02562 20.2185C2.33892 21.4703 4.43031 21.4703 5.74361 20.2185L2.98376 17.3231ZM9.62008 10.9975L2.98376 17.3231L5.74361 20.2185L12.3799 13.8929L9.62008 10.9975ZM19.0162 17.3231L12.3799 10.9975L9.62008 13.8929L16.2564 20.2185L19.0162 17.3231ZM18.2145 17.3231C18.3404 17.2031 18.4905 17.1574 18.6154 17.1574C18.7403 17.1574 18.8903 17.2031 19.0162 17.3231L16.2564 20.2185C17.5697 21.4703 19.6611 21.4703 20.9744 20.2185L18.2145 17.3231ZM18.2145 18.352C17.9285 18.0794 17.9285 17.5958 18.2145 17.3231L20.9744 20.2185C22.3419 18.915 22.3419 16.7601 20.9744 15.4566L18.2145 18.352ZM11.5782 12.0264L18.2145 18.352L20.9744 15.4566L14.3381 9.13099L11.5782 12.0264ZM18.2145 2.80534L11.5782 9.13099L14.3381 12.0264L20.9744 5.70073L18.2145 2.80534ZM18.2145 3.83425C17.9285 3.5616 17.9285 3.07799 18.2145 2.80534L20.9744 5.70073C22.3419 4.39725 22.3419 2.24235 20.9744 0.938865L18.2145 3.83425ZM19.0162 3.83425C18.8903 3.95426 18.7403 4 18.6154 4C18.4905 4 18.3404 3.95426 18.2145 3.83425L20.9744 0.938867C19.6611 -0.312956 17.5697 -0.312956 16.2564 0.938867L19.0162 3.83425ZM12.3799 10.1599L19.0162 3.83425L16.2564 0.938867L9.62008 7.26452L12.3799 10.1599ZM2.98376 3.83425L9.62008 10.1599L12.3799 7.26452L5.74361 0.938867L2.98376 3.83425Z" fill="url(#paint0_linear)" mask="url(#path-1-outside-1)"/>
<path fill-rule="evenodd" clip-rule="evenodd" d="M4.36369 2.38656C3.82296 1.87115 2.94627 1.87115 2.40554 2.38656C1.86482 2.90197 1.86482 3.73762 2.40554 4.25304L9.04186 10.5787L2.40554 16.9043C1.86482 17.4197 1.86482 18.2554 2.40554 18.7708C2.94627 19.2862 3.82296 19.2862 4.36369 18.7708L11 12.4452L17.6363 18.7708C18.177 19.2862 19.0537 19.2862 19.5945 18.7708C20.1352 18.2554 20.1352 17.4197 19.5945 16.9043L12.9581 10.5787L19.5945 4.25304C20.1352 3.73762 20.1352 2.90197 19.5945 2.38656C19.0537 1.87115 18.177 1.87115 17.6363 2.38656L11 8.71221L4.36369 2.38656Z" fill="white"/>
<defs>
<linearGradient id="paint0_linear" x1="11.5896" y1="0.905792" x2="11.5896" y2="19.1574" gradientUnits="userSpaceOnUse">
<stop stop-color="#5496AE"/>
<stop offset="1" stop-color="#3D4493" stop-opacity="0.72"/>
</linearGradient>
</defs>
</svg>
