<svg width="13" height="13" viewBox="0 0 13 13" fill="none" xmlns="http://www.w3.org/2000/svg">
<path fill-rule="evenodd" clip-rule="evenodd" d="M1.50353 7.24202C1.20089 6.92428 1.2371 6.41509 1.58166 6.14338L1.91898 5.87738C2.22089 5.6393 2.65441 5.67012 2.91959 5.94854L6.35915 9.55967C6.65269 9.86786 7.14434 9.86786 7.43789 9.55967L10.8774 5.94854C11.1426 5.67012 11.5761 5.6393 11.8781 5.87738L12.2154 6.14338C12.5599 6.4151 12.5962 6.92428 12.2935 7.24202L7.43789 12.3399C7.14434 12.648 6.65269 12.648 6.35915 12.3399L1.50353 7.24202Z" fill="white"/>
<path fill-rule="evenodd" clip-rule="evenodd" d="M1.50353 2.77273C1.20089 2.45499 1.2371 1.9458 1.58166 1.67408L1.91898 1.40808C2.22089 1.17 2.65441 1.20082 2.91959 1.47924L6.35915 5.09037C6.65269 5.39856 7.14434 5.39856 7.43789 5.09037L10.8774 1.47924C11.1426 1.20083 11.5761 1.17 11.8781 1.40808L12.2154 1.67408C12.5599 1.9458 12.5962 2.45499 12.2935 2.77273L7.43789 7.87055C7.14434 8.17874 6.65269 8.17874 6.35915 7.87055L1.50353 2.77273Z" fill="white"/>
</svg>
