<svg fill="none" height="139" viewBox="0 0 175 139" width="175" xmlns="http://www.w3.org/2000/svg" xmlns:xlink="http://www.w3.org/1999/xlink"><filter id="a" color-interpolation-filters="sRGB" filterUnits="userSpaceOnUse" height="135.48" width="172.939" x="-1.54821" y=".53418"><feFlood flood-opacity="0" result="BackgroundImageFix"/><feColorMatrix in="SourceAlpha" type="matrix" values="0 0 0 0 0 0 0 0 0 0 0 0 0 0 0 0 0 0 127 0"/><feOffset dy=".557487"/><feGaussianBlur stdDeviation=".278743"/><feColorMatrix type="matrix" values="0 0 0 0 0 0 0 0 0 0 0 0 0 0 0 0 0 0 0.25 0"/><feBlend in2="BackgroundImageFix" mode="normal" result="effect1_dropShadow"/><feBlend in="SourceGraphic" in2="effect1_dropShadow" mode="normal" result="shape"/></filter><filter id="b" color-interpolation-filters="sRGB" filterUnits="userSpaceOnUse" height="126.082" width="160.884" x="5.34828" y="5.10156"><feFlood flood-opacity="0" result="BackgroundImageFix"/><feColorMatrix in="SourceAlpha" type="matrix" values="0 0 0 0 0 0 0 0 0 0 0 0 0 0 0 0 0 0 127 0"/><feOffset dy=".557487"/><feGaussianBlur stdDeviation=".278743"/><feColorMatrix type="matrix" values="0 0 0 0 0 0 0 0 0 0 0 0 0 0 0 0 0 0 0.25 0"/><feBlend in2="BackgroundImageFix" mode="normal" result="effect1_dropShadow"/><feBlend in="SourceGraphic" in2="effect1_dropShadow" mode="normal" result="shape"/></filter><filter id="c" color-interpolation-filters="sRGB" filterUnits="userSpaceOnUse" height="60.876" width="54.3311" x="60.6589" y="39.2715"><feFlood flood-opacity="0" result="BackgroundImageFix"/><feColorMatrix in="SourceAlpha" type="matrix" values="0 0 0 0 0 0 0 0 0 0 0 0 0 0 0 0 0 0 127 0"/><feOffset dy=".884569"/><feGaussianBlur stdDeviation=".442285"/><feColorMatrix type="matrix" values="0 0 0 0 0 0 0 0 0 0 0 0 0 0 0 0 0 0 0.25 0"/><feBlend in2="BackgroundImageFix" mode="normal" result="effect1_dropShadow"/><feBlend in="SourceGraphic" in2="effect1_dropShadow" mode="normal" result="shape"/></filter><filter id="d" color-interpolation-filters="sRGB" filterUnits="userSpaceOnUse" height="58.314" width="51.7824" x="62.6888" y="40.8809"><feFlood flood-opacity="0" result="BackgroundImageFix"/><feColorMatrix in="SourceAlpha" type="matrix" values="0 0 0 0 0 0 0 0 0 0 0 0 0 0 0 0 0 0 127 0"/><feOffset dy=".835586"/><feGaussianBlur stdDeviation=".417793"/><feColorMatrix type="matrix" values="0 0 0 0 0 0 0 0 0 0 0 0 0 0 0 0 0 0 0.25 0"/><feBlend in2="BackgroundImageFix" mode="normal" result="effect1_dropShadow"/><feBlend in="SourceGraphic" in2="effect1_dropShadow" mode="normal" result="shape"/></filter><filter id="e" color-interpolation-filters="sRGB" filterUnits="userSpaceOnUse" height="67.5216" width="53.8111" x="27.1149" y="23.8643"><feFlood flood-opacity="0" result="BackgroundImageFix"/><feColorMatrix in="SourceAlpha" type="matrix" values="0 0 0 0 0 0 0 0 0 0 0 0 0 0 0 0 0 0 127 0"/><feOffset dy=".884569"/><feGaussianBlur stdDeviation=".442285"/><feColorMatrix type="matrix" values="0 0 0 0 0 0 0 0 0 0 0 0 0 0 0 0 0 0 0.25 0"/><feBlend in2="BackgroundImageFix" mode="normal" result="effect1_dropShadow"/><feBlend in="SourceGraphic" in2="effect1_dropShadow" mode="normal" result="shape"/></filter><filter id="f" color-interpolation-filters="sRGB" filterUnits="userSpaceOnUse" height="66.5707" width="53.9907" x="28.2889" y="22.8125"><feFlood flood-opacity="0" result="BackgroundImageFix"/><feColorMatrix in="SourceAlpha" type="matrix" values="0 0 0 0 0 0 0 0 0 0 0 0 0 0 0 0 0 0 127 0"/><feOffset dy=".835586"/><feGaussianBlur stdDeviation=".417793"/><feColorMatrix type="matrix" values="0 0 0 0 0 0 0 0 0 0 0 0 0 0 0 0 0 0 0.25 0"/><feBlend in2="BackgroundImageFix" mode="normal" result="effect1_dropShadow"/><feBlend in="SourceGraphic" in2="effect1_dropShadow" mode="normal" result="shape"/></filter><filter id="g" color-interpolation-filters="sRGB" filterUnits="userSpaceOnUse" height="22.5026" width="35.6498" x="93.3908" y="86.0166"><feFlood flood-opacity="0" result="BackgroundImageFix"/><feColorMatrix in="SourceAlpha" type="matrix" values="0 0 0 0 0 0 0 0 0 0 0 0 0 0 0 0 0 0 127 0"/><feOffset dy=".884569"/><feGaussianBlur stdDeviation=".442285"/><feColorMatrix type="matrix" values="0 0 0 0 0 0 0 0 0 0 0 0 0 0 0 0 0 0 0.25 0"/><feBlend in2="BackgroundImageFix" mode="normal" result="effect1_dropShadow"/><feBlend in="SourceGraphic" in2="effect1_dropShadow" mode="normal" result="shape"/></filter><filter id="h" color-interpolation-filters="sRGB" filterUnits="userSpaceOnUse" height="20.6661" width="32.3567" x="94.7899" y="87.4336"><feFlood flood-opacity="0" result="BackgroundImageFix"/><feColorMatrix in="SourceAlpha" type="matrix" values="0 0 0 0 0 0 0 0 0 0 0 0 0 0 0 0 0 0 127 0"/><feOffset dy=".835586"/><feGaussianBlur stdDeviation=".417793"/><feColorMatrix type="matrix" values="0 0 0 0 0 0 0 0 0 0 0 0 0 0 0 0 0 0 0.25 0"/><feBlend in2="BackgroundImageFix" mode="normal" result="effect1_dropShadow"/><feBlend in="SourceGraphic" in2="effect1_dropShadow" mode="normal" result="shape"/></filter><filter id="i" color-interpolation-filters="sRGB" filterUnits="userSpaceOnUse" height="55.8071" width="42.3699" x="104.453" y="46.4512"><feFlood flood-opacity="0" result="BackgroundImageFix"/><feColorMatrix in="SourceAlpha" type="matrix" values="0 0 0 0 0 0 0 0 0 0 0 0 0 0 0 0 0 0 127 0"/><feOffset dy=".884569"/><feGaussianBlur stdDeviation=".442285"/><feColorMatrix type="matrix" values="0 0 0 0 0 0 0 0 0 0 0 0 0 0 0 0 0 0 0.25 0"/><feBlend in2="BackgroundImageFix" mode="normal" result="effect1_dropShadow"/><feBlend in="SourceGraphic" in2="effect1_dropShadow" mode="normal" result="shape"/></filter><filter id="j" color-interpolation-filters="sRGB" filterUnits="userSpaceOnUse" height="54.1519" width="40.6609" x="106.288" y="47.0342"><feFlood flood-opacity="0" result="BackgroundImageFix"/><feColorMatrix in="SourceAlpha" type="matrix" values="0 0 0 0 0 0 0 0 0 0 0 0 0 0 0 0 0 0 127 0"/><feOffset dy=".835586"/><feGaussianBlur stdDeviation=".417793"/><feColorMatrix type="matrix" values="0 0 0 0 0 0 0 0 0 0 0 0 0 0 0 0 0 0 0.25 0"/><feBlend in2="BackgroundImageFix" mode="normal" result="effect1_dropShadow"/><feBlend in="SourceGraphic" in2="effect1_dropShadow" mode="normal" result="shape"/></filter><filter id="k" color-interpolation-filters="sRGB" filterUnits="userSpaceOnUse" height="61.7498" width="48.1119" x="31.3076" y="24.041"><feFlood flood-opacity="0" result="BackgroundImageFix"/><feBlend in="SourceGraphic" in2="BackgroundImageFix" mode="normal" result="shape"/><feColorMatrix in="SourceAlpha" result="hardAlpha" type="matrix" values="0 0 0 0 0 0 0 0 0 0 0 0 0 0 0 0 0 0 127 0"/><feOffset dy=".479443"/><feGaussianBlur stdDeviation=".239722"/><feComposite in2="hardAlpha" k2="-1" k3="1" operator="arithmetic"/><feColorMatrix type="matrix" values="0 0 0 0 0 0 0 0 0 0 0 0 0 0 0 0 0 0 0.25 0"/><feBlend in2="shape" mode="normal" result="effect1_innerShadow"/></filter><filter id="l" color-interpolation-filters="sRGB" filterUnits="userSpaceOnUse" height="55.6726" width="47.957" x="64.4399" y="41.4473"><feFlood flood-opacity="0" result="BackgroundImageFix"/><feBlend in="SourceGraphic" in2="BackgroundImageFix" mode="normal" result="shape"/><feColorMatrix in="SourceAlpha" result="hardAlpha" type="matrix" values="0 0 0 0 0 0 0 0 0 0 0 0 0 0 0 0 0 0 127 0"/><feOffset dy="1.30587"/><feGaussianBlur stdDeviation=".652935"/><feComposite in2="hardAlpha" k2="-1" k3="1" operator="arithmetic"/><feColorMatrix type="matrix" values="0 0 0 0 0 0 0 0 0 0 0 0 0 0 0 0 0 0 0.15 0"/><feBlend in2="shape" mode="normal" result="effect1_innerShadow"/></filter><filter id="m" color-interpolation-filters="sRGB" filterUnits="userSpaceOnUse" height="46.6596" width="35.777" x="109.361" y="49.8496"><feFlood flood-opacity="0" result="BackgroundImageFix"/><feBlend in="SourceGraphic" in2="BackgroundImageFix" mode="normal" result="shape"/><feColorMatrix in="SourceAlpha" result="hardAlpha" type="matrix" values="0 0 0 0 0 0 0 0 0 0 0 0 0 0 0 0 0 0 127 0"/><feOffset dy=".301512"/><feGaussianBlur stdDeviation=".150756"/><feComposite in2="hardAlpha" k2="-1" k3="1" operator="arithmetic"/><feColorMatrix type="matrix" values="0 0 0 0 0 0 0 0 0 0 0 0 0 0 0 0 0 0 0.25 0"/><feBlend in2="shape" mode="normal" result="effect1_innerShadow"/></filter><filter id="n" color-interpolation-filters="sRGB" filterUnits="userSpaceOnUse" height="23.464" width="29.4516" x="95.4214" y="83.2969"><feFlood flood-opacity="0" result="BackgroundImageFix"/><feBlend in="SourceGraphic" in2="BackgroundImageFix" mode="normal" result="shape"/><feColorMatrix in="SourceAlpha" result="hardAlpha" type="matrix" values="0 0 0 0 0 0 0 0 0 0 0 0 0 0 0 0 0 0 127 0"/><feOffset dy=".480273"/><feGaussianBlur stdDeviation=".240137"/><feComposite in2="hardAlpha" k2="-1" k3="1" operator="arithmetic"/><feColorMatrix type="matrix" values="0 0 0 0 0 0 0 0 0 0 0 0 0 0 0 0 0 0 0.13 0"/><feBlend in2="shape" mode="normal" result="effect1_innerShadow"/></filter><radialGradient id="o" cx="0" cy="0" gradientTransform="matrix(-73.81171604 71.154769 -92.27064281 -95.71606488 117.234 40.7549)" gradientUnits="userSpaceOnUse" r="1"><stop offset="0" stop-color="#b860ce"/><stop offset=".674033" stop-color="#8d41c8"/></radialGradient><linearGradient id="p"><stop offset="0" stop-color="#df7f35"/><stop offset="1" stop-color="#fc8d3f"/></linearGradient><linearGradient id="q" gradientUnits="userSpaceOnUse" x1="96.7537" x2="79.1628" xlink:href="#p" y1="43.3445" y2="96.586"/><linearGradient id="r"><stop offset=".165746" stop-color="#ff8a00"/><stop offset="1" stop-color="#ffb423"/></linearGradient><linearGradient id="s" gradientUnits="userSpaceOnUse" x1="97.1078" x2="80.2929" xlink:href="#r" y1="44.7398" y2="95.8344"/><linearGradient id="t" gradientUnits="userSpaceOnUse" x1="67.2349" x2="45.5986" xlink:href="#p" y1="26.412" y2="84.4274"/><linearGradient id="u" gradientUnits="userSpaceOnUse" x1="68.3084" x2="47.0923" xlink:href="#r" y1="25.4336" y2="82.4645"/><linearGradient id="v" gradientUnits="userSpaceOnUse" x1="113.577" x2="107.817" xlink:href="#p" y1="85.5243" y2="104.053"/><linearGradient id="w" gradientUnits="userSpaceOnUse" x1="113.137" x2="107.848" xlink:href="#r" y1="86.9953" y2="104.009"/><linearGradient id="x" gradientUnits="userSpaceOnUse" x1="135.977" x2="113.815" xlink:href="#p" y1="53.7473" y2="92.3678"/><linearGradient id="y" gradientUnits="userSpaceOnUse" x1="135.835" x2="115.909" xlink:href="#r" y1="53.637" y2="92.163"/><clipPath id="z"><path d="m0 0h175v139h-175z"/></clipPath><g clip-path="url(#z)"><g filter="url(#a)"><path d="m58.4086 14.3412-.8233-13.80659s6.5828 8.67466 7.9216 11.20029c6.7977-5.5559 17.2327-1.5269 20.0997 2.5205 15.0454-4.63257 28.2254 7.2976 30.6054 11.7877 3.324-2.9183 10.758-12.158 10.758-12.158s-5.497 15.2763-5.751 15.8188c13.736-.6353 28.485 11.532 27.524 21.971 10.195-.8475 22.09-5.1981 22.09-5.1981s-16.275 10.7235-18.52 11.9332c26.361 8.8878 18.18 43.148-1.217 43.315 17.718 13.003 8.987 10.085 8.987 10.085s-10.911-6.568-14.708-8.626c1.391 10.795-9.772 17.305-23.004 14.467 2.214 7.24 5.858 15.58 5.858 15.58l-12.199-13.149s-16.1476 12.473-41.7117-.396c-3.4702 5.026-11.8824 16.082-12.0108 15.159-.1284-.922 2.8445-12.315 5.1684-18.482-21.0065 1.215-27.1818-14.106-27.1818-14.106-16.4146-3.0064-21.9666-15.9777-19.9168-20.9602-10.3443.5669-21.367811-1.0004-21.367811-1.0004s15.161311-5.5614 18.529611-7.3759c-13.26032-16.8243-.2255-33.28 9.4362-37.177-9.4203-6.1991-22.11699-15.4832-22.11699-15.4832s23.75579 9.2453 27.02219 10.6424c-2.701-6.7974 3.8089-28.44858 26.5281-16.5615z" fill="#fff"/></g><g filter="url(#b)"><path d="m61.1453 17.9421-.7635-12.84086s6.1195 8.06706 7.364 10.41596c6.3214-5.1682 16.0235-1.4224 18.6887 2.3415 13.9895-4.3105 26.2435 6.7836 28.4555 10.9594 3.092-2.7147 10.005-11.3091 10.005-11.3091s-5.113 14.2086-5.349 14.7132c12.772-.5927 26.484 10.7217 25.588 20.4307 9.48-.7896 20.541-4.8374 20.541-4.8374s-15.134 9.9757-17.222 11.101c24.51 8.2627 16.898 40.1279-1.137 40.2861 16.472 12.0914 8.354 9.3774 8.354 9.3774s-10.144-6.106-13.675-8.02c1.293 10.04-9.088 16.096-21.391 13.458 2.058 6.733 5.445 14.49 5.445 14.49l-11.342-12.228s-15.0155 11.602-38.7836-.363c-3.2273 4.675-11.0507 14.959-11.17 14.101-.1192-.859 2.6466-11.454 4.8083-17.191-19.5323 1.133-25.2721-13.1152-25.2721-13.1152-15.2621-2.7943-20.4227-14.8577-18.5159-19.492-9.6184.5286-19.86808-.9277-19.86808-.9277s14.09808-5.1743 17.23018-6.8624c-12.3273-15.6459-.2049-30.9524 8.7792-34.5781-8.7582-5.7643-20.5625-14.3974-20.5625-14.3974s22.0872 8.5956 25.1242 9.8945c-2.5105-6.3216 3.5456-26.45935 24.6686-15.4066z" fill="url(#o)"/></g><g filter="url(#c)"><path d="m78.3999 96.3339c-2.9056-.96-5.4974-2.0372-7.7754-3.2314-2.2147-1.1734-4.0525-2.4431-5.5132-3.809s-2.49-2.7785-3.0879-4.2378c-.5803-1.5167-.6345-3.0488-.1624-4.5963.4895-1.6048 1.4057-2.7848 2.7485-3.5398 1.3429-.7551 2.7421-1.2392 4.1977-1.4522 1.4015 1.788 2.9731 3.4744 4.7147 5.0593 1.7591 1.5275 4.1862 2.8026 7.2813 3.8253 2.9688.9808 5.2685 1.0782 6.899.292 1.6304-.7862 2.7079-2.0391 3.2324-3.7585.507-1.6622.3581-3.2256-.4467-4.6902-.7417-1.4438-2.4706-2.6144-5.1867-3.5118-1.7055-.5635-3.1792-.8611-4.4211-.8929-1.2419-.0317-2.6854.0276-4.3305.1781-3.0602-1.1373-5.2964-2.6963-6.7087-4.6771-1.3315-2.0172-1.5515-4.4874-.6599-7.4105.0525-.1719.1136-.3725.1836-.6018.0874-.2865.2851-.8206.593-1.6021l5.1231-12.6922c.9413-2.4019 2.3884-4.0689 4.3415-5.0009s4.2877-.9493 7.0038-.0519l27.288 9.0159c.187.7556.312 1.7119.376 2.8688.065 1.1569-.078 2.3085-.428 3.4548-.664 2.178-1.673 3.5481-3.027 4.1103-1.353.5623-2.851.5721-4.493.0295l-18.1923-6.0106-3.1283 7.8623c1.2876.11 2.5664.2486 3.8365.4158 1.3333.1882 2.9474.5953 4.8424 1.2214 3.2846 1.0852 5.9872 2.4829 8.1077 4.193 2.138 1.6528 3.729 3.5034 4.773 5.5518 1.107 2.0692 1.694 4.2503 1.759 6.5432.129 2.3138-.165 4.6456-.882 6.9956-.717 2.3499-1.85 4.4677-3.399 6.3535-1.548 1.8858-3.524 3.3467-5.9255 4.3828-2.3845.9787-5.2098 1.4648-8.4758 1.4582-3.2029.0144-6.8888-.6672-11.0578-2.0446z" fill="url(#q)"/></g><g filter="url(#d)"><path d="m79.5764 95.5986c-2.7681-.911-5.2371-1.9353-7.4068-3.0728-2.1096-1.1178-3.8599-2.329-5.2508-3.6337-1.3908-1.3048-2.3706-2.6557-2.9391-4.0528-.5518-1.4521-.6023-2.9207-.1512-4.4058.4677-1.5401 1.3417-2.6742 2.6219-3.4024s2.614-1.1968 4.0013-1.4057c1.3341 1.7095 2.8303 3.3212 4.4887 4.8349 1.6751 1.4588 3.9869 2.6734 6.9356 3.6437 2.8282.9308 5.0195 1.0167 6.5739.2577 1.5543-.759 2.582-1.9635 3.0832-3.6136.4844-1.5951.3438-3.0934-.422-4.4949-.7056-1.3817-2.3522-2.4983-4.9398-3.3499-1.6247-.5347-3.0288-.8153-4.2122-.8417-1.1834-.0265-2.559.0351-4.1268.1846-2.9153-1.0803-5.045-2.5677-6.3892-4.4621-1.2673-1.9296-1.475-4.2969-.623-7.102.0501-.1651.1086-.3576.1754-.5776.0835-.275.2723-.7876.5663-1.5379l4.8919-12.1841c.8989-2.3057 2.2792-3.9085 4.1411-4.8083 1.8618-.8997 4.0866-.9239 6.6741-.0723l25.9961 8.5551c.177.7239.296 1.6402.357 2.7491.06 1.1089-.077 2.2133-.411 3.3134-.635 2.0901-1.597 3.4069-2.888 3.9502-1.29.5434-2.717.5577-4.282.0428l-17.3306-5.7034-2.9873 7.5474c1.2269.1013 2.4454.23 3.6556.3863 1.2703.176 2.8081.5611 4.6134 1.1552 3.1292 1.0298 5.7035 2.361 7.7229 3.9936 2.036 1.5775 3.551 3.3465 4.544 5.3069 1.053 1.9801 1.61 4.0692 1.671 6.2671.121 2.2178-.161 4.4542-.846 6.7093s-1.766 4.2891-3.244 6.102c-1.477 1.8128-3.36 3.2197-5.6501 4.2207-2.273.946-4.9657 1.4211-8.0779 1.4254-3.0521.0241-6.564-.6174-10.5356-1.9244z" fill="url(#s)"/></g><g filter="url(#e)"><path d="m65.5669 25.79c3.1691 1.1819 5.7942 2.6912 7.8751 4.5281 2.1054 1.7752 3.7153 3.7545 4.8299 5.9381 1.1145 2.1836 1.7025 4.489 1.7638 6.9162s-.383 4.8427-1.3331 7.2463c-2.5578 6.4713-8.302 11.4007-17.2326 14.7882l-14.762 5.6324 20.0157 7.4647c.0656.8024.0304 1.7792-.1057 2.9307-.0806 1.1721-.3644 2.3745-.8517 3.6071-.8769 2.2187-1.9551 3.6553-3.2345 4.3096-1.255.5927-2.6052.6195-4.0508.0804l-28.9394-10.7927c-.8578-1.3806-1.3679-2.9145-1.5304-4.6015-.0826-1.728.2659-3.5781 1.0455-5.5503.8282-2.0955 1.9117-3.7068 3.2504-4.834 1.363-1.1889 2.6877-2.0385 3.9739-2.5489l15.8208-6.6165c1.9815-.8168 3.652-1.5728 5.0113-2.268 1.3836-.7569 2.524-1.4631 3.421-2.1186.9527-.6347 1.6864-1.2804 2.2011-1.937.5703-.6359.9895-1.2929 1.2574-1.9708.6821-1.7257.5231-3.3408-.4772-4.8453-.9446-1.4837-2.4177-2.5988-4.4192-3.3453-2.224-.8294-4.3839-1.1752-6.4798-1.0376-2.0159.0968-3.7782.3589-5.2868.7863-.6528-1.0921-1.0658-2.3068-1.2389-3.6443-.1731-1.3374.0326-2.7457.6173-4.2249 1.2667-3.2048 3.5668-5.0696 6.9002-5.5944 3.3577-.5864 7.3439-.019 11.9587 1.702z" fill="url(#t)"/></g><g filter="url(#f)"><path d="m66.6149 24.8036c3.2177 1.197 5.8886 2.7117 8.0127 4.544 2.1481 1.7717 3.7974 3.74 4.9478 5.9048 1.1504 2.1649 1.7695 4.4447 1.8573 6.8394.0878 2.3948-.336 4.773-1.2713 7.1345-2.5182 6.358-8.2754 11.1637-17.2715 14.4171l-14.8701 5.4103 20.3225 7.5602c.0749.7921.0497 1.7553-.0758 2.8897-.069 1.1554-.3433 2.3386-.823 3.5497-.8634 2.1798-1.9386 3.5862-3.2255 4.219-1.263.5723-2.6283.5854-4.0961.0394l-29.3829-10.9308c-.8822-1.3702-1.4144-2.8882-1.5967-4.5539-.1018-1.7053.231-3.5268.9985-5.4644.8154-2.0588 1.8941-3.6375 3.236-4.7362 1.3659-1.1593 2.6966-1.9843 3.992-2.475l15.9305-6.3706c1.9954-.7861 3.6767-1.5154 5.0441-2.1878 1.3914-.7329 2.5372-1.4182 3.4375-2.056.9567-.6167 1.6919-1.2464 2.2055-1.889.57-.6216.987-1.2655 1.2508-1.9315.6715-1.6955.4935-3.2901-.5341-4.784-.9711-1.4728-2.4727-2.5873-4.505-3.3433-2.258-.84-4.4462-1.2024-6.5644-1.0873-2.0378.0756-3.8173.3168-5.3385.7235-.6719-1.0836-1.1025-2.2859-1.2918-3.6068-.1892-1.321.0039-2.7081.5795-4.1613 1.2471-3.1487 3.5536-4.9655 6.9192-5.4503 3.3897-.5453 7.4273.0536 12.1128 1.7966z" fill="url(#u)"/></g><g fill="url(#v)" filter="url(#g)"><path d="m107.853 96.4919c-.35 1.0996-.821 2.0347-1.415 2.8051-.588.753-1.268 1.331-2.039 1.734-.754.409-1.58.64-2.478.692s-1.839-.075-2.8251-.381c-.9857-.307-1.8288-.744-2.5291-1.313-.7004-.5681-1.2499-1.2359-1.6485-2.003-.3762-.7796-.5876-1.6444-.6343-2.5944-.0466-.95.0993-1.9571.4378-3.0213.3328-1.0465.7933-1.9461 1.3815-2.6988.5882-.7526 1.2594-1.3334 2.0136-1.7421.7765-.4213 1.6166-.667 2.5201-.737.903-.07 1.848.0482 2.834.3546.985.3064 1.826.7527 2.52 1.339.701.5685 1.239 1.2425 1.615 2.0221.399.7671.621 1.6256.668 2.5757.047.95-.094 1.9394-.421 2.9681zm-8.7708-2.7263c-.3441 1.0819-.4171 1.9753-.219 2.68.2204.6922.6815 1.1474 1.3828 1.3655.702.2181 1.33.0916 1.883-.3795.571-.4658 1.025-1.2309 1.364-2.2951.338-1.0642.406-1.9398.202-2.6268-.198-.7047-.648-1.1661-1.35-1.3842-.701-.2181-1.338-.0942-1.908.3716-.5647.4482-1.0163 1.2043-1.3548 2.2685z"/><path d="m109.204 89.8075c.287-.9046.675-1.632 1.162-2.1822.509-.5628 1.08-.9702 1.71-1.2224.637-.2699 1.321-.3985 2.051-.3859.747.0178 1.505.1461 2.273.385 1.236.3843 2.091.8447 2.562 1.3811.478.5188.584 1.195.319 2.0286-.113.3547-.289.6506-.53.8877-.224.2422-.442.4083-.654.4983-.289-.1874-.601-.3622-.935-.5244-.312-.1749-.693-.3324-1.144-.4726-.718-.2233-1.32-.2642-1.806-.1228-.48.1237-.821.5048-1.024 1.1433l-.271.8514 4.11 1.2774c.038.2263.051.5032.038.8306.01.315-.041.6498-.154 1.0046-.197.6207-.475 1.0315-.832 1.2322-.336.1881-.72.2147-1.155.0797l-2.882-.8958-2.682 8.4337c-.184.001-.468-.029-.853-.09-.368-.055-.744-.143-1.128-.262-.367-.115-.693-.245-.977-.392-.267-.141-.475-.323-.625-.545s-.241-.484-.273-.787c-.01-.314.055-.694.196-1.137z"/><path d="m117.937 92.522c.287-.9046.675-1.632 1.162-2.1822.509-.5628 1.08-.9703 1.711-1.2224.636-.2699 1.32-.3985 2.05-.3859.747.0178 1.505.1461 2.273.385 1.237.3843 2.091.8446 2.563 1.3811.477.5188.583 1.195.318 2.0286-.113.3547-.289.6506-.53.8876-.224.2423-.442.4084-.654.4984-.289-.1874-.601-.3622-.935-.5245-.311-.1748-.693-.3323-1.144-.4725-.718-.2233-1.32-.2642-1.806-.1228-.48.1237-.821.5048-1.024 1.1433l-.271.8514 4.11 1.2774c.038.2263.051.5032.038.8306.01.315-.041.6498-.154 1.0045-.197.6208-.475 1.0316-.832 1.2323-.336.1881-.72.2147-1.155.0797l-2.882-.8958-2.682 8.4342c-.184.001-.468-.029-.853-.09-.367-.056-.743-.144-1.128-.263-.367-.114-.693-.245-.977-.391-.267-.142-.475-.324-.625-.546-.15-.221-.241-.484-.273-.786-.01-.315.056-.694.197-1.138z"/></g><g fill="url(#w)" filter="url(#h)"><path d="m108.012 97.107c-.321 1.0097-.753 1.8686-1.296 2.5767-.538.6923-1.16 1.2233-1.864 1.5953-.689.376-1.443.589-2.262.639-.82.05-1.679-.065-2.578-.345-.8984-.279-1.6669-.679-2.3049-1.2-.6381-.52-1.1382-1.1318-1.5005-1.835-.3419-.7148-.5332-1.508-.5741-2.3797-.0408-.8718.0942-1.7962.405-2.7734.3056-.961.7275-1.7873 1.2656-2.4791s1.1517-1.2259 1.8406-1.6023c.7094-.388 1.4763-.615 2.3013-.6808.824-.0659 1.686.0409 2.585.3203.898.2794 1.664.6874 2.297 1.2242.638.5205 1.128 1.1381 1.47 1.8528.362.7032.564 1.4907.605 2.3624s-.089 1.7799-.39 2.7246zm-7.998-2.4862c-.3161.9935-.3844 1.8134-.2049 2.4598.1999.6348.6199 1.0517 1.2599 1.2506s1.213.0817 1.719-.3516c.521-.4285.937-1.1314 1.248-2.1086s.374-1.7809.189-2.4109c-.179-.6464-.589-1.069-1.229-1.2679s-1.22-.0841-1.742.3444c-.516.4123-.929 1.107-1.24 2.0842z"/><path d="m109.099 90.9214c.264-.8306.619-1.4988 1.065-2.0046.466-.5174.987-.8923 1.563-1.1249.581-.2488 1.205-.3681 1.872-.3578.681.015 1.372.1314 2.073.3493 1.128.3504 1.906.7713 2.336 1.2628.435.4752.53 1.0955.287 1.861-.104.3257-.266.5976-.486.8156-.204.2227-.404.3755-.597.4584-.264-.1714-.548-.3313-.852-.4796-.284-.1598-.632-.3037-1.043-.4315-.656-.2037-1.205-.2401-1.648-.1095-.438.1144-.751.4647-.937 1.051l-.249.7818 3.748 1.1649c.035.2076.046.4616.034.7622.008.289-.039.5964-.143.9221-.181.57-.435.9474-.762 1.1323-.306.1732-.657.1983-1.053.0752l-2.628-.8169-2.463 7.7448c-.168.001-.427-.026-.778-.081-.336-.051-.679-.131-1.029-.239-.335-.105-.632-.224-.891-.358-.243-.129-.433-.296-.569-.499-.137-.203-.219-.444-.248-.721-.009-.289.052-.637.181-1.045z"/><path d="m116.984 93.3723c.265-.8306.619-1.4988 1.065-2.0046.466-.5174.987-.8923 1.563-1.1249.581-.2488 1.205-.3681 1.872-.3578.681.015 1.372.1314 2.073.3493 1.128.3504 1.906.7713 2.336 1.2628.435.4752.53 1.0955.287 1.861-.104.3257-.266.5976-.486.8155-.204.2228-.404.3756-.597.4585-.264-.1714-.548-.3313-.852-.4796-.284-.1598-.632-.3037-1.043-.4315-.655-.2037-1.205-.2401-1.648-.1095-.438.1144-.75.4647-.937 1.051l-.249.7818 3.748 1.1649c.035.2076.046.4616.034.7622.009.289-.039.5964-.143.9221-.181.57-.435.9474-.761 1.1323-.307.1732-.658.1983-1.054.0752l-2.628-.8169-2.463 7.7439c-.168.002-.427-.025-.778-.08-.336-.051-.679-.131-1.029-.24-.335-.104-.632-.223-.891-.357-.243-.129-.433-.296-.569-.499-.136-.204-.219-.444-.248-.721-.008-.289.052-.638.182-1.045z"/></g><g filter="url(#i)"><path d="m142.987 57.77c1.036.8685 1.838 1.8488 2.405 2.9407.623 1.0692.713 2.1066.27 3.1122-.354.6725-.855 1.2887-1.502 1.8483-.647.5597-1.39 1.092-2.227 1.5969l-34.178 21.5398c-.969-.8298-1.681-1.7309-2.135-2.7033-.398-.9951-.376-1.9954.067-3.001.355-.6725.732-1.3047 1.132-1.8965.456-.6145 1.125-1.2162 2.007-1.8052zm-14.754 4.594c-1.663 3.1526-3.72 5.176-6.169 6.0701-2.45.8942-4.873.6538-7.269-.7209-2.429-1.3942-3.938-3.4097-4.525-6.0465-.553-2.6174.002-5.5024 1.665-8.655 1.641-3.1106 3.669-5.1227 6.085-6.0362 2.45-.8941 4.89-.6441 7.319.7501 2.396 1.3747 3.888 3.3805 4.475 6.0173s.06 5.5105-1.581 8.6211zm-10.174-5.838c-.665 1.2611-.978 2.3134-.94 3.1569.095.8208.429 1.3958 1.002 1.725.574.3292 1.202.306 1.883-.0695.738-.3981 1.439-1.2277 2.105-2.4888.643-1.219.917-2.2389.822-3.0598-.06-.8015-.377-1.3668-.951-1.696-.574-.3291-1.218-.3156-1.934.0405-.681.3755-1.344 1.1727-1.987 2.3917zm21.17 37.3648c-1.663 3.1526-3.719 5.176-6.169 6.0701s-4.873.6541-7.269-.721c-2.429-1.3941-3.938-3.4096-4.525-6.0464-.553-2.6174.002-5.5025 1.665-8.6551 1.641-3.1106 3.669-5.1226 6.086-6.0361 2.449-.8941 4.889-.6441 7.319.75 2.395 1.3748 3.887 3.3806 4.474 6.0174s.06 5.5105-1.581 8.6211zm-10.174-5.838c-.665 1.261-.978 2.3133-.94 3.1568.095.8209.429 1.3959 1.003 1.7251.573.3291 1.201.306 1.882-.0695.738-.3982 1.439-1.2278 2.105-2.4888.643-1.219.917-2.239.823-3.0598-.061-.8015-.378-1.3668-.952-1.696s-1.218-.3157-1.933.0404c-.682.3755-1.344 1.1728-1.988 2.3918z" fill="url(#x)"/></g><g filter="url(#j)"><path d="m142.957 57.3209c1.067.8122 1.908 1.7417 2.522 2.7887.668 1.0228.809 2.0332.422 3.0312-.316.6696-.78 1.2892-1.391 1.8587-.611.5696-1.317 1.1158-2.119 1.6386l-32.67 22.2467c-.998-.7767-1.745-1.6321-2.242-2.5663-.443-.9583-.471-1.9364-.084-2.9344.316-.6696.657-1.3005 1.023-1.8928.419-.6164 1.05-1.2278 1.892-1.8343zm-14.338 5.0072c-1.484 3.1387-3.414 5.1879-5.788 6.1476s-4.778.8101-7.212-.4489c-2.469-1.2768-4.059-3.1929-4.77-5.7486-.678-2.5379-.274-5.3762 1.211-8.5149 1.465-3.0968 3.367-5.134 5.707-6.1114 2.374-.9598 4.795-.8013 7.264.4755 2.434 1.259 4.007 3.1663 4.718 5.7219.712 2.5557.335 5.3819-1.13 8.4788zm-10.336-5.3464c-.594 1.2555-.851 2.2947-.771 3.1175.134.7986.493 1.3487 1.076 1.6502.583.3014 1.201.2567 1.855-.1341.709-.415 1.36-1.2502 1.954-2.5057.574-1.2136.794-2.2198.659-3.0184-.1-.781-.441-1.3222-1.024-1.6236-.583-.3015-1.219-.2657-1.907.1074-.654.3909-1.268 1.1931-1.842 2.4067zm22.769 35.7628c-1.484 3.1388-3.414 5.188-5.788 6.1477s-4.778.8101-7.213-.4489c-2.468-1.2768-4.058-3.193-4.77-5.7486-.677-2.5379-.273-5.3762 1.212-8.5149 1.464-3.0969 3.367-5.134 5.707-6.1115 2.374-.9597 4.795-.8012 7.264.4756 2.434 1.259 4.007 3.1663 4.718 5.7219.712 2.5556.335 5.3819-1.13 8.4787zm-10.337-5.3463c-.594 1.2555-.85 2.2946-.77 3.1174.134.7987.493 1.3488 1.076 1.6502.582.3015 1.201.2568 1.855-.134.709-.415 1.36-1.2502 1.953-2.5057.575-1.2136.794-2.2198.66-3.0185-.1-.7809-.441-1.3221-1.024-1.6236-.583-.3014-1.219-.2656-1.907.1075-.655.3909-1.269 1.1931-1.843 2.4067z" fill="url(#y)"/></g><g filter="url(#k)"><path d="m66.1974 25.7817c2.9115 1.0831 5.3199 2.4747 7.2252 4.1747 1.9281 1.6425 3.3987 3.4782 4.4119 5.5071 1.0131 2.029 1.5405 4.1746 1.5821 6.4369.0417 2.2623-.3824 4.5166-1.2721 6.7629-2.3953 6.0476-7.7157 10.6766-15.9613 13.8871l-13.6299 5.3376 18.3884 6.8406c.0555.7476.0171 1.6585-.1153 2.7326-.0814 1.0932-.3502 2.2157-.8064 3.3676-.8213 2.0735-1.823 3.419-3.0053 4.0365-1.1594.5599-2.4032.5928-3.7312.0988l-26.5866-9.8905c-.7815-1.282-1.242-2.7088-1.3813-4.2806-.0655-1.6103.2668-3.337.9968-5.1801.7756-1.9583 1.7833-3.4668 3.0231-4.5254 1.2626-1.1163 2.4878-1.9161 3.6755-2.3995l14.6111-6.2611c1.8299-.7731 3.373-1.4877 4.6291-2.1438 1.279-.7137 2.3336-1.3787 3.1637-1.9951.8813-.5973 1.5609-1.2035 2.039-1.8187.5291-.5961.9192-1.211 1.1701-1.8445.6388-1.6127.5021-3.1174-.4098-4.514-.8609-1.3776-2.2108-2.4084-4.0496-3.0925-2.0432-.76-4.0303-1.0697-5.9614-.929-1.8572.1021-3.4818.3568-4.8738.7641-.5946-1.0142-.9675-2.1442-1.1188-3.3899-.1512-1.2458.0469-2.5598.5944-3.9421 1.1862-2.995 3.316-4.747 6.3891-5.2558 3.096-.5664 6.7638-.061 11.0033 1.5161z" fill="#fff"/></g><g filter="url(#l)"><path d="m77.7288 93.4565c-2.4118-.9978-4.5434-2.0896-6.3948-3.2757-1.799-1.1643-3.2654-2.4011-4.3991-3.7104s-1.8925-2.6434-2.2762-4.0026c-.3637-1.4108-.2736-2.814.27-4.2096.5638-1.4473 1.4564-2.4884 2.6779-3.1235 1.2215-.635 2.4673-1.0199 3.7374-1.1547 1.0452 1.6928 2.2456 3.2997 3.6012 4.8208 1.3758 1.4694 3.3482 2.7355 5.9173 3.7983 2.4642 1.0194 4.4321 1.2033 5.9036.5516 1.4714-.6516 2.5092-1.7528 3.1132-3.3035.584-1.4989.5953-2.9347.0342-4.3072-.5088-1.3508-1.8904-2.4925-4.1449-3.4252-1.4157-.5856-2.6558-.9186-3.7203-.9988-1.0646-.0803-2.3106-.0856-3.738-.0159-2.5288-1.1662-4.3119-2.684-5.3491-4.5536-.9647-1.8995-.9336-4.1673.0933-6.8035.0604-.155.1309-.3359.2115-.5427.1006-.2584.3181-.7386.6525-1.4406l5.5346-11.3946c1.0231-2.1575 2.4155-3.6221 4.1773-4.3938 1.7617-.7716 3.7698-.6911 6.0243.2415l22.6503 9.37c.093.6987.116 1.5784.068 2.6389s-.273 2.1077-.676 3.1415c-.765 1.9641-1.755 3.1754-2.968 3.6336-1.214.4583-2.502.4055-3.865-.1584l-15.1002-6.2467-3.3896 7.0604c1.0968.1536 2.1836.3331 3.2603.5385 1.1292.227 2.4802.6659 4.0532 1.3166 2.7264 1.1279 4.9247 2.5174 6.5953 4.1687 1.69 1.5995 2.892 3.3573 3.607 5.2735.767 1.9378 1.077 3.9565.929 6.0558-.096 2.1211-.557 4.2413-1.382 6.3605-.826 2.1192-1.988 4.0091-3.4874 5.6696-1.4992 1.6605-3.3272 2.9149-5.4841 3.7632-2.1367.7966-4.6083 1.1245-7.4148.9838-2.7542-.119-5.8614-.8943-9.3219-2.3258z" fill="#fff"/></g><g filter="url(#m)"><path d="m142.178 59.3672c.993.7366 1.778 1.5714 2.355 2.5045.627.9131.767 1.8039.419 2.6724-.286.5815-.708 1.1158-1.266 1.603-.559.4872-1.206.9518-1.941 1.3938l-29.946 18.8395c-.929-.7039-1.628-1.4717-2.096-2.3031-.418-.8516-.453-1.7115-.106-2.58.286-.5815.595-1.1284.927-1.6409.381-.5325.957-1.0561 1.729-1.5707zm-13.189 4.0892c-1.34 2.7256-3.102 4.4843-5.284 5.2762-2.183.7919-4.404.6084-6.663-.5504-2.292-1.1751-3.778-2.893-4.46-5.1537-.649-2.2445-.304-4.7294 1.036-7.455 1.323-2.6892 3.059-4.4379 5.21-5.2461 2.183-.7919 4.42-.6003 6.711.5748 2.26 1.1588 3.73 2.8686 4.412 5.1293.681 2.2608.361 4.7357-.962 7.4249zm-9.595-4.9207c-.536 1.0902-.763 1.9977-.681 2.7223.132.7046.468 1.1957 1.009 1.4731.541.2775 1.112.2516 1.712-.0777.65-.3492 1.243-1.069 1.779-2.1592.518-1.0539.712-1.9331.58-2.6377-.1-.6883-.42-1.1712-.961-1.4487-.541-.2774-1.128-.2597-1.76.0532-.6.3293-1.159 1.0208-1.678 2.0747zm21.367 31.9132c-1.34 2.7256-3.102 4.4843-5.284 5.2762-2.183.7919-4.404.6084-6.663-.5504-2.292-1.1751-3.778-2.893-4.46-5.1537-.649-2.2445-.304-4.7294 1.036-7.455 1.323-2.6892 3.059-4.4379 5.21-5.2461 2.183-.7919 4.42-.6003 6.711.5748 2.26 1.1588 3.73 2.8686 4.412 5.1293.681 2.2608.361 4.7357-.962 7.4249zm-9.595-4.9207c-.536 1.0903-.763 1.9977-.681 2.7223.132.7046.468 1.1957 1.009 1.4731.541.2775 1.112.2516 1.712-.0777.65-.3492 1.243-1.069 1.779-2.1592.518-1.0539.712-1.9331.58-2.6377-.1-.6883-.42-1.1712-.961-1.4487-.541-.2774-1.128-.2597-1.76.0532-.6.3293-1.159 1.0209-1.678 2.0747z" fill="#fff"/></g><g fill="#fff" filter="url(#n)"><path d="m108.139 96.3478c-.276.9258-.657 1.7149-1.141 2.3671-.48.6374-1.039 1.1293-1.675 1.4761-.622.35-1.307.552-2.054.605-.746.054-1.532-.043-2.356-.29-.825-.246-1.5321-.6042-2.1224-1.0736s-1.0563-1.0236-1.398-1.6627c-.3232-.6498-.5104-1.3728-.5615-2.1689-.051-.7962.0574-1.6423.3254-2.5382.2635-.881.6352-1.6402 1.1151-2.2775.4799-.6374 1.0311-1.1313 1.6536-1.482.6408-.3614 1.3368-.5762 2.0878-.6444.751-.0681 1.539.0211 2.364.2677.824.2466 1.529.6121 2.115 1.0964.59.4694 1.047 1.029 1.37 1.6789.342.639.538 1.3566.589 2.1528.051.7961-.052 1.6273-.312 2.4933zm-7.335-2.1943c-.273.9109-.322 1.6608-.148 2.2497.192.5781.582.9549 1.169 1.1305.587.1755 1.107.0629 1.562-.3379.469-.3966.837-1.0429 1.105-1.9389.268-.8959.313-1.6309.135-2.2048-.174-.5889-.555-.9711-1.142-1.1467-.586-.1755-1.114-.065-1.583.3316-.464.3817-.83 1.0206-1.098 1.9165z"/><path d="m108.795 90.6142c.228-.7616.541-1.3756.939-1.8421.417-.4773.887-.8249 1.408-1.043.527-.233 1.094-.348 1.702-.3451.622.0072 1.255.1068 1.897.2991 1.034.3093 1.751.6864 2.151 1.1314.404.43.501.9959.291 1.6977-.089.2986-.232.5486-.429.7499-.184.2055-.363.3471-.539.4247-.243-.1541-.504-.2974-.784-.43-.262-.1433-.581-.2714-.959-.3842-.6-.1797-1.102-.2078-1.504-.0841-.398.1087-.678.4319-.838.9695l-.215.7167 3.438 1.0282c.034.1893.049.4214.043.6961.012.264-.027.5453-.116.844-.156.5226-.382.87-.677 1.042-.277.1613-.597.1876-.96.0789l-2.41-.721-2.124 7.1001c-.153.003-.39-.019-.711-.066-.307-.043-.621-.113-.942-.209-.308-.092-.58-.198-.819-.318-.224-.115-.4-.266-.527-.45-.128-.185-.207-.404-.237-.657-.013-.264.037-.583.148-.9559z"/><path d="m115.908 92.7419c.228-.7616.541-1.3756.94-1.8421.416-.4772.886-.8249 1.408-1.043.526-.2329 1.093-.348 1.701-.345.622.0071 1.255.1068 1.898.299 1.034.3093 1.75.6864 2.15 1.1314.404.43.502.9959.292 1.6977-.09.2987-.233.5486-.43.7499-.183.2055-.363.3471-.538.4247-.243-.154-.505-.2974-.785-.4299-.262-.1433-.581-.2714-.958-.3843-.601-.1797-1.103-.2077-1.505-.0841-.398.1088-.677.4319-.838.9695l-.215.7167 3.438 1.0282c.034.1894.049.4214.043.6962.012.264-.026.5453-.116.8439-.156.5227-.382.87-.677 1.042-.276.1613-.596.1876-.96.079l-2.41-.721-2.124 7.1003c-.153.003-.39-.019-.711-.066-.307-.043-.621-.113-.942-.209-.307-.092-.58-.198-.818-.318-.225-.116-.4-.266-.528-.451-.127-.184-.206-.403-.237-.656-.013-.264.037-.583.149-.956z"/></g></g></svg>