<svg width="862" height="187" viewBox="0 0 862 187" fill="none" xmlns="http://www.w3.org/2000/svg">
<path d="M829.829 75.8L859.429 77.6L829.829 75.8L859.529 77.5C859.929 71.2 860.129 65.3 860.229 59.9C860.328 54.7 860.429 50.5 860.429 47.4C860.429 36.2 856.929 22.1 844.629 11.6C844.529 11.5 844.429 11.4 844.329 11.3C844.229 11.2 844.129 11.2 844.129 11.1C833.429 2.1 820.929 0 811.529 0C805.729 0 800.129 0.8 794.729 2.2C794.529 2.2 794.329 2.3 794.129 2.3C794.029 2.3 793.929 2.4 793.829 2.4C788.629 3.7 783.429 5.7 778.429 8.4L778.729 8.9L778.429 8.4L777.529 8.9H774.729H717.029C705.128 8.9 691.729 12.6 681.129 23.2C677.329 27 674.328 31.2 672.229 35.6C669.529 28.8 664.929 22 657.929 16.7L638.429 42.6L657.929 16.7C651.629 12 644.929 9.6 638.829 8.4C634.129 7.4 629.529 7.1 625.329 7.1C621.129 7.1 617.029 7.5 612.929 8.1C610.129 8.5 607.328 8.8 605.029 9.2L611.129 42.6L605.029 9.2L577.829 14.2C576.229 13.4 574.629 12.7 573.129 12.1C573.029 12.1 572.929 12 572.829 12C572.629 11.9 572.329 11.8 572.129 11.7C563.229 8.4 554.129 7.1 545.229 7.1C538.229 7.1 531.328 8 524.529 9.7H524.429H524.329L530.929 34.5L524.029 9.8C519.029 11.1 512.529 13.2 506.629 16.7L519.229 38.1L506.629 16.7L496.729 22.5C492.229 18.4 487.329 15.4 482.329 13.1C475.929 10.1 469.229 8.3 462.929 7.3C456.629 6.3 450.029 5.8 443.529 5.8C425.329 5.8 406.229 9.7 390.629 21.8L408.729 45.2L390.429 21.9L390.329 22L390.229 22.1C387.429 24.3 384.829 26.7 382.529 29.2C381.729 27.5 380.829 25.8 379.729 24.1L369.729 8.4H351.129H274.929C265.829 8.4 256.329 10.9 248.029 17C244.129 14.8 240.029 12.9 235.729 11.4H235.629H235.529C224.829 7.5 213.629 5.7 202.329 5.7C190.929 5.7 179.729 7.5 168.929 11.4H168.829H168.729L177.729 35.8L168.729 11.4C162.129 13.8 156.029 17 150.329 20.9C148.929 19.5 147.429 18.2 145.829 17C139.529 12.3 132.829 9.9 126.729 8.7C122.029 7.7 117.429 7.4 113.229 7.4C109.029 7.4 104.929 7.8 100.829 8.4C98.0285 8.8 95.2285 9.1 92.9285 9.5L74.8285 12.8C70.6285 10.7 66.4285 9.4 62.5285 8.7C57.8285 7.7 53.2285 7.4 49.0285 7.4C44.8285 7.4 40.7285 7.8 36.6285 8.4C33.8285 8.8 31.0285 9.1 28.7285 9.5L0.728516 14.5V42.8V135.1C0.728516 140.3 1.22852 147.2 3.92852 154.4C6.52852 161.5 11.2285 168.6 18.5285 174C24.3285 178.3 30.6285 180.8 36.6285 182.1C41.6285 183.2 46.6285 183.6 51.1285 183.6C55.2285 183.6 59.3285 183.3 63.4285 182.8C63.5285 182.8 63.5285 182.8 63.6285 182.8C66.6285 182.4 70.6285 181.8 74.3285 180.8L87.6285 177.2C92.0285 179.6 96.4285 181.2 100.829 182.1C105.829 183.2 110.829 183.6 115.329 183.6C119.429 183.6 123.529 183.3 127.629 182.8C127.729 182.8 127.729 182.8 127.829 182.8C130.829 182.4 134.829 181.8 138.529 180.8L158.229 175.4C161.429 177.1 164.829 178.6 168.229 179.9L177.429 155.6L168.229 179.9L168.429 180L168.629 180.1L177.429 155.8L168.629 180.2C179.429 184.1 190.729 185.9 202.229 185.9C213.729 185.9 225.029 184.1 235.829 180.2C246.729 176.3 256.629 170.3 265.129 162.2L245.429 141.5L265.129 162.2C265.429 161.9 265.629 161.7 265.929 161.4C268.629 166 272.329 170.4 277.229 174.1C283.029 178.4 289.329 180.9 295.329 182.2C300.329 183.3 305.329 183.7 309.829 183.7C313.929 183.7 318.029 183.4 322.129 182.9C322.229 182.9 322.229 182.9 322.329 182.9C325.329 182.5 329.329 181.9 333.029 180.9L358.029 174.1V148.2V99C361.829 97.8 365.529 96 369.129 93.6C369.829 95.6 370.529 97.7 371.429 99.7L371.729 100.3L372.029 100.9C372.729 102.2 373.429 103.5 374.129 104.8C368.429 113.1 365.929 122.5 365.929 131.6C365.929 141.8 369.029 151.8 375.229 160.3L375.729 161L376.329 161.7C381.829 168.5 388.429 173.3 395.129 176.8L406.529 154.7L395.129 176.8L395.729 177.1L396.329 177.4C402.729 180.4 409.429 182.4 416.129 183.6C416.229 183.6 416.329 183.6 416.329 183.6C416.429 183.6 416.629 183.7 416.729 183.7C423.629 185 430.629 185.6 437.729 185.6C452.129 185.6 467.229 183.5 480.829 176.9C491.529 183.5 503.229 184.5 511.329 184.5C515.328 184.5 520.129 184.2 525.229 183C528.328 182.4 531.429 181.5 534.529 180.4L523.129 148.4L534.529 180.4L548.629 175.4C554.029 179.3 559.729 181.5 564.829 182.8L565.029 182.9L565.229 183C570.529 184.2 575.629 184.6 580.129 184.6C586.529 184.6 593.729 183.8 600.829 181.3C602.529 180.7 604.229 180.1 606.129 179.2C613.029 182.2 620.229 183.4 627.029 183.4H673.929C680.529 183.4 687.729 182.1 694.529 178.7C701.828 182.1 709.529 183.4 716.729 183.4H767.829C773.529 183.4 779.729 182.4 785.729 179.9C793.929 184.4 802.828 186.1 811.029 186.1C823.029 186.1 836.929 182.4 847.729 171.1C857.429 161 861.729 148.3 861.729 135.7C861.729 127.5 859.929 119.3 855.929 111.7C856.729 107 857.329 102 857.929 96.7L841.729 95.1L857.929 96.7C858.529 90.3 859.029 84 859.429 77.8L829.829 75.8ZM455.829 65.6L455.329 66L455.829 65.6Z" fill="#64DFFA"/>
<g opacity="0.3">
<path d="M368.429 38.2L363.429 30.3H277.829C270.229 30.3 263.429 32.9 258.129 37.9L257.829 38.2C256.029 39.9 254.629 41.9 253.429 44.1C247.329 38.9 240.429 34.9 232.729 32.2C224.229 29.1 214.929 27.5 205.129 27.5C195.329 27.5 186.029 29.1 177.429 32.2C168.629 35.4 160.729 40.3 154.129 46.7C152.229 48.5 150.429 50.5 148.729 52.6C148.429 50.8 147.929 49.1 147.329 47.5C145.529 42.6 142.429 38.5 138.429 35.5C135.029 32.9 130.929 31.2 126.329 30.3C123.229 29.6 119.829 29.3 115.929 29.3C112.529 29.3 109.029 29.6 105.429 30.2C102.429 30.6 100.229 30.9 98.7285 31.2L84.8285 33.7V54.6C84.5285 52 83.9285 49.7 83.1285 47.5C81.3285 42.6 78.2285 38.5 74.2285 35.5C70.8285 32.9 66.7285 31.2 62.1285 30.3C59.0285 29.6 55.6285 29.3 51.7285 29.3C48.3285 29.3 44.8285 29.6 41.2285 30.2C38.2285 30.6 36.0285 30.9 34.5285 31.2L20.7285 33.7V140.2C20.7285 145.3 21.4285 149.7 22.8285 153.5C24.6285 158.4 27.7285 162.5 31.7285 165.5C35.1285 168.1 39.2285 169.8 43.6285 170.7C46.8285 171.4 50.3285 171.7 54.1285 171.7C57.5285 171.7 61.0285 171.5 64.2285 171C67.9285 170.5 70.6285 170.1 72.7285 169.5L85.2285 166.1V146.4C85.5285 149 86.1285 151.3 86.9285 153.5C88.7285 158.4 91.8285 162.5 95.8285 165.5C99.2285 168.1 103.329 169.8 107.729 170.7C110.929 171.4 114.429 171.7 118.229 171.7C121.629 171.7 125.129 171.5 128.329 171C132.029 170.5 134.729 170.1 136.829 169.5L149.329 166.1V149.7C150.729 151.4 152.129 152.9 153.729 154.4C160.329 160.8 168.129 165.8 177.029 169.1L177.229 169.2C185.829 172.3 195.129 173.9 205.029 173.9C214.929 173.9 224.229 172.3 232.829 169.2C241.829 166 249.629 161.1 256.229 154.9C263.029 148.4 268.329 140.5 272.029 131.2C275.629 122.1 277.429 111.9 277.429 100.7C277.429 96.8 277.229 93 276.729 89.4H279.229V140.3C279.229 145.4 279.929 149.8 281.329 153.6C283.129 158.5 286.229 162.6 290.229 165.6C293.629 168.2 297.729 169.9 302.129 170.8C305.329 171.5 308.829 171.8 312.629 171.8C316.029 171.8 319.529 171.6 322.729 171.1C326.429 170.6 329.129 170.2 331.229 169.6L343.729 166.2V89.3H346.129C353.829 89.3 360.629 86.6 365.829 81.5C371.329 76.2 374.129 68.8 374.129 59.5C374.129 55.3 373.529 51.3 372.329 47.4C371.429 43.8 370.029 40.7 368.429 38.2ZM209.429 87.6L209.529 87.8C210.129 88.5 212.129 91.7 212.129 100.6C212.129 109.7 210.129 112.9 209.529 113.6C208.929 114.4 208.129 115.3 205.129 115.3C202.529 115.3 201.729 114.6 200.929 113.6C200.329 112.9 198.329 109.7 198.329 100.6C198.329 91.3 200.429 88.4 200.829 87.9C201.729 86.9 202.629 86.1 205.329 86.1C208.229 86.1 208.829 86.9 209.429 87.6Z" fill="url(#paint0_linear)"/>
<path d="M841.129 120L841.729 116.6C842.629 111.8 843.428 106.2 844.029 99.9C844.629 93.8 845.129 87.6 845.529 81.6C845.928 75.5 846.129 69.7 846.229 64.5C846.329 59.1 846.429 55.2 846.429 52.4C846.429 40.3 841.029 33.2 836.429 29.3C830.729 24.4 823.329 22 814.429 22C810.129 22 805.729 22.6 801.329 23.7C797.029 24.7 793.029 26.3 789.429 28.3L784.629 30.8H719.829C707.829 30.8 700.229 35.9 695.929 40.1C691.629 44.4 686.629 52 686.629 64V112.6H661.429V60.6C661.429 55.5 660.729 51.1 659.329 47.3C657.529 42.4 654.429 38.3 650.429 35.3C647.029 32.7 642.929 31 638.329 30.1C635.229 29.4 631.829 29.1 627.929 29.1C624.529 29.1 621.029 29.4 617.429 30C614.429 30.4 612.329 30.7 610.729 31L596.829 33.5V78.6C596.229 76.7 595.629 74.7 595.129 72.8C592.629 64.6 590.229 57.3 588.129 51V50.9C586.029 45 581.129 37.1 569.329 32.8C563.029 30.3 555.829 29.1 547.929 29.1C542.429 29.1 536.929 29.8 531.429 31.2H531.329C525.729 32.7 521.529 34.3 518.129 36.3L513.029 39.3L510.929 44.8C510.129 46.9 508.929 50 507.429 54L507.229 54.4C505.829 58.3 504.229 63 502.429 68.2C500.729 73.2 498.829 78.6 496.829 84.3C495.729 87.4 494.729 90.4 493.729 93.4C492.429 91.8 491.029 90.3 489.429 88.9C488.729 88.3 488.029 87.6 487.329 87C489.529 84.9 491.529 82.6 493.229 80L493.429 79.6C496.529 74.6 498.129 68.9 498.129 62.7C498.129 55.9 496.029 49.6 492.029 44.5C488.629 40 484.029 36.4 478.429 33.9C473.929 31.7 468.729 30.1 462.929 29.2C457.729 28.4 452.129 27.9 446.229 27.9C428.729 27.9 414.329 32.1 403.629 40.4L403.529 40.5C391.829 49.7 385.629 62.5 385.629 77.6C385.629 85.1 386.929 91.9 389.629 97.7L389.929 98.3C392.229 102.9 395.329 107.1 399.029 110.7C396.729 112.5 394.529 114.7 392.529 117.1C388.029 122.5 385.629 129.2 385.629 136.5C385.629 143.3 387.729 149.8 391.629 155.2L392.129 155.9C395.629 160.2 400.129 163.8 405.529 166.6L406.129 166.9C410.929 169.1 416.329 170.8 422.229 171.9C427.929 173 434.029 173.6 440.429 173.6C459.329 173.6 474.429 169.4 485.229 161C486.729 162.9 488.529 164.7 490.529 166.2L491.129 166.7C497.029 170.7 504.429 172.6 513.929 172.6C517.729 172.6 521.029 172.2 524.129 171.5C526.629 171 529.129 170.3 531.429 169.5L539.829 166.5L542.129 157.9C542.929 154.9 543.729 151.9 544.529 148.8H549.929C550.729 151.5 551.629 154 552.729 156.3L553.229 157.2C555.129 160.7 557.629 163.7 560.529 166.1L561.129 166.6C564.129 168.8 567.729 170.4 571.729 171.4L571.929 171.5C575.229 172.3 578.829 172.6 583.029 172.6C588.729 172.6 594.029 171.7 598.629 170.1C602.529 168.8 605.929 166.9 608.829 164.6C613.329 168.1 620.129 171.5 629.929 171.5H676.829C684.429 171.5 691.229 168.9 696.329 164.1L696.729 163.7C696.829 163.6 696.928 163.5 697.029 163.4C701.428 167.4 708.729 171.5 719.629 171.5H770.729C779.729 171.5 785.729 167.9 789.429 164.5L789.529 164.6C793.828 168.9 801.629 174.1 813.929 174.1C826.429 174.1 834.129 168.8 838.429 164.4C844.529 158.1 847.729 149.9 847.729 140.7C847.829 132.7 845.529 125.7 841.129 120Z" fill="url(#paint1_linear)"/>
</g>
<path d="M272.228 126.201V126.101L256.428 119.801L272.228 126.201Z" fill="url(#paint2_radial)"/>
<path d="M256.429 149.8L244.729 137.5L256.429 149.8Z" fill="url(#paint3_radial)"/>
<path d="M372.629 42.3004L356.429 47.4004L366.129 44.3004L372.629 42.3004C371.729 39.3004 370.429 36.1004 368.529 33.1004L363.529 25.2004H354.229H278.029C271.029 25.2004 264.029 27.5004 258.329 32.8004L258.129 33.0004L257.929 33.2004L269.929 45.2004L257.929 33.2004C256.129 35.0004 254.629 37.1004 253.529 39.1004C247.429 33.9004 240.529 29.9004 232.829 27.1004C232.829 27.1004 232.829 27.1004 232.729 27.1004C224.029 23.9004 214.829 22.4004 205.229 22.4004C195.629 22.4004 186.329 23.9004 177.629 27.1004C168.829 30.3004 161.029 35.2004 154.329 41.6004C152.429 43.4004 150.629 45.4004 148.929 47.5004C148.629 45.8004 148.129 44.1004 147.529 42.4004C145.829 37.9004 143.029 33.7004 138.629 30.4004L128.329 44.0004L138.529 30.4004C134.529 27.4004 130.129 25.8004 125.929 25.1004C122.729 24.4004 119.429 24.2004 116.129 24.2004C112.729 24.2004 109.329 24.5004 105.929 25.0004C103.129 25.4004 100.729 25.7004 98.9285 26.0004L85.0285 28.5004V42.7004V49.5004C84.7285 47.1004 84.1285 44.7004 83.3285 42.3004L67.4285 48.3004L83.3285 42.3004C81.6285 37.8004 78.8285 33.6004 74.4285 30.3004C70.4285 27.3004 66.0285 25.7004 61.8285 25.0004C58.6285 24.3004 55.3285 24.1004 52.0285 24.1004C48.6285 24.1004 45.2285 24.4004 41.8285 24.9004C39.0285 25.3004 36.6285 25.6004 34.8285 25.9004L37.8285 42.6004L34.8285 25.9004L20.7285 28.6004V42.7004V135C20.7285 139.1 21.1285 143.8 22.8285 148.3C24.5285 152.8 27.3285 157 31.7285 160.3C35.3285 163 39.3285 164.6 43.3285 165.4C43.4285 165.4 43.5285 165.4 43.5285 165.4C43.7285 165.4 43.8285 165.5 44.0285 165.5C47.3285 166.2 50.7285 166.5 54.1285 166.5C57.5285 166.5 60.9285 166.3 64.3285 165.8H64.4285C67.3285 165.4 70.3285 165 72.8285 164.3L85.3285 160.9V147.9V141.1C85.6285 143.5 86.2285 145.9 87.0285 148.3C88.7285 152.8 91.5285 157 95.9285 160.3C99.5285 163 103.529 164.6 107.529 165.4C107.629 165.4 107.729 165.4 107.729 165.4C107.929 165.4 108.029 165.5 108.229 165.5C111.529 166.2 114.929 166.5 118.329 166.5C121.729 166.5 125.129 166.3 128.529 165.8H128.629C131.529 165.4 134.529 165 137.029 164.3L149.529 160.9V147.9V144.5C150.929 146.1 152.329 147.7 153.929 149.2C160.629 155.7 168.429 160.6 177.229 163.9H177.329H177.429L183.229 148L177.429 163.9C186.229 167.1 195.529 168.6 205.229 168.6C214.929 168.6 224.229 167.1 233.029 163.9C241.829 160.7 249.729 155.9 256.429 149.6L244.729 137.3L256.429 149.6C263.329 143 268.529 135 272.229 126L256.429 119.7L272.229 125.9C275.929 116.5 277.629 106.2 277.629 95.4004C277.629 91.5004 277.429 87.8004 276.929 84.1004H279.429V135C279.429 139.1 279.829 143.8 281.529 148.3C283.229 152.8 286.029 157 290.429 160.3C294.029 163 298.029 164.6 302.029 165.4C302.129 165.4 302.229 165.4 302.229 165.4C302.429 165.4 302.529 165.5 302.729 165.5C306.029 166.2 309.429 166.5 312.829 166.5C316.229 166.5 319.629 166.3 323.029 165.8H323.129C326.029 165.4 329.029 165 331.529 164.3L344.029 160.9V147.9V84.2004H346.429C353.229 84.2004 360.329 82.0004 365.929 76.6004L366.029 76.5004C366.129 76.4004 366.129 76.4004 366.229 76.3004C372.929 69.7004 374.329 61.0004 374.329 54.5004C374.429 50.4004 373.829 46.3004 372.629 42.3004ZM149.429 69.5004L154.129 71.4004L149.429 69.5004ZM138.829 45.5004L131.429 48.3004L138.829 45.5004Z" fill="url(#paint4_radial)"/>
<path d="M403.829 35.1992V35.2992H403.729L414.229 48.6992L403.829 35.1992Z" fill="url(#paint5_radial)"/>
<path d="M553.029 151.1L553.229 151.6L553.529 152L568.429 144L553.029 151.1Z" fill="url(#paint6_radial)"/>
<path d="M838.529 159.1C844.929 152.5 847.829 144.2 847.829 135.4C847.829 128 845.729 120.9 841.129 114.9L841.729 111.5C842.629 106.6 843.429 101 844.029 94.8C844.629 88.6 845.129 82.5 845.429 76.5C845.829 70.4 846.029 64.7 846.129 59.5C846.229 54.3 846.329 50.3 846.329 47.4C846.329 39.6 843.929 30.8 836.429 24.4C836.329 24.4 836.329 24.3 836.229 24.3L836.129 24.2C829.429 18.6 821.429 17 814.329 17C809.929 17 805.629 17.6 801.429 18.7C801.329 18.7 801.129 18.8 801.029 18.8C797.029 19.8 793.029 21.3 789.429 23.3L797.629 38.2L789.429 23.3L784.629 25.7H777.529H719.829C711.329 25.7 702.729 28.3 695.929 35C689.129 41.8 686.629 50.4 686.629 58.9V107.5H684.629H661.529V55.5C661.529 51.4 661.129 46.7 659.429 42.2C657.729 37.7 654.929 33.5 650.529 30.2C646.529 27.2 642.129 25.6 637.929 24.9C634.729 24.2 631.429 24 628.129 24C624.729 24 621.329 24.3 617.929 24.8C615.129 25.2 612.729 25.5 610.929 25.8L613.929 42.5L610.929 25.8L597.029 28.3V42.5V73.4C596.429 71.5 595.829 69.5 595.329 67.6C592.829 59.4 590.529 52.1 588.329 45.8V45.7V45.6L572.329 51.3L588.329 45.6C585.029 36.2 577.629 30.5 569.829 27.6C569.729 27.6 569.729 27.6 569.629 27.5C569.529 27.5 569.429 27.4 569.329 27.4C562.629 24.9 555.529 23.8 548.229 23.8C542.629 23.8 537.129 24.5 531.729 25.9H531.629H531.529C527.029 27.1 522.329 28.7 518.329 31L513.229 34L511.129 39.5L526.929 45.7L511.029 39.7C510.229 41.8 509.029 44.9 507.529 48.9L523.429 55L507.529 48.9L507.429 49.1L507.329 49.3C505.929 53.3 504.329 57.9 502.629 63C500.829 68 499.029 73.4 497.029 79.1C495.929 82.2 494.929 85.2 493.929 88.2C492.629 86.7 491.329 85.2 489.729 83.8C489.629 83.7 489.629 83.7 489.529 83.6L489.429 83.5C488.829 82.9 488.129 82.3 487.429 81.7C489.629 79.6 491.729 77.3 493.429 74.7L493.529 74.5L493.629 74.3C497.029 69 498.329 63.1 498.329 57.4C498.329 51 496.429 44.7 492.329 39.3C492.329 39.2 492.229 39.2 492.229 39.1C492.229 39 492.129 39 492.129 38.9C488.529 34.3 484.029 30.9 479.029 28.6C478.829 28.5 478.629 28.4 478.429 28.3H478.329C473.629 26 468.429 24.6 463.129 23.7C457.829 22.8 452.229 22.4 446.429 22.4C430.429 22.4 415.529 25.8 403.829 34.9L414.229 48.7L403.729 35.3C391.929 44.6 385.829 57.5 385.829 72.4C385.829 79.3 386.929 86.1 389.829 92.5L389.929 92.8L390.029 93.1L405.229 85.5L390.029 93.1C392.329 97.8 395.429 101.9 399.129 105.5C396.729 107.4 394.629 109.5 392.729 111.8L392.629 111.9C392.629 112 392.529 112 392.429 112.1C387.729 117.8 385.629 124.5 385.629 131.4C385.629 138.1 387.629 144.6 391.629 150.1L391.929 150.5L392.229 150.8L405.429 140.1L392.229 150.8C395.929 155.4 400.629 158.9 405.629 161.5L413.429 146.4L405.629 161.5L405.929 161.7L406.229 161.8C411.229 164.1 416.529 165.7 422.129 166.7H422.229C422.329 166.7 422.329 166.7 422.429 166.7C428.229 167.8 434.229 168.4 440.429 168.4C457.429 168.4 473.229 165.1 485.229 155.8C486.729 157.7 488.429 159.5 490.529 161L500.729 147.4L490.529 161L490.829 161.2L491.129 161.4C498.229 166.2 506.729 167.3 513.929 167.3C517.229 167.3 520.729 167 524.129 166.2C526.629 165.7 529.029 165.1 531.429 164.2L539.829 161.2L542.129 152.6C542.929 149.7 543.729 146.6 544.529 143.5H549.929C550.729 146.1 551.629 148.6 552.729 150.9L568.129 143.8L553.129 151.9C554.829 155.1 557.229 158.2 560.429 160.8L571.029 147.5L560.429 160.8L560.729 161L561.029 161.2C564.429 163.7 568.029 165.2 571.629 166L575.729 149.5L571.629 165.9H571.729H571.829C575.429 166.8 579.229 167.1 582.929 167.1C588.029 167.1 593.229 166.4 598.229 164.6C598.329 164.6 598.429 164.5 598.529 164.5C598.629 164.5 598.729 164.4 598.829 164.4C602.129 163.3 605.529 161.6 608.729 159C615.029 163.9 622.429 165.8 629.829 165.8H676.729C683.429 165.8 690.529 163.8 696.229 158.4L696.429 158.2L696.629 158L684.629 146L696.629 158C696.729 157.9 696.829 157.8 696.929 157.7C703.529 163.5 711.629 165.8 719.529 165.8H770.629C777.029 165.8 783.829 163.9 789.329 158.8L789.429 158.9L801.429 146.9L792.929 154.7L801.429 146.9L789.429 158.9C796.329 165.8 805.129 168.4 813.829 168.4C822.729 168.8 831.629 166.2 838.529 159.1ZM799.729 91L792.629 91.6L799.729 91ZM797.829 54.1H797.729H797.829ZM452.529 112.7L448.929 117.9L452.529 112.7ZM444.329 77.7L443.629 79.8L444.329 77.7L443.629 79.8L444.329 77.7ZM440.629 71.3L438.229 67L440.629 71.3ZM437.329 106.6L436.329 109.5L437.329 106.6ZM463.429 68.5L463.929 66.7L463.429 68.5L463.929 66.7L463.429 68.5ZM410.429 113.8L412.329 117.2L410.429 113.8ZM566.529 138.7L563.329 139.7L566.529 138.7ZM477.229 74.8L474.229 70.9L473.129 72.6L474.229 70.9L477.229 74.8Z" fill="url(#paint7_radial)"/>
<path d="M137.509 148.192C136.227 148.541 134.187 148.891 131.389 149.241C128.707 149.591 126.026 149.765 123.345 149.765C120.663 149.765 118.273 149.532 116.175 149.066C114.193 148.716 112.503 148.017 111.104 146.967C109.705 145.918 108.655 144.461 107.956 142.596C107.256 140.73 106.907 138.282 106.907 135.251V107.971H73.3312V148.192C72.0488 148.541 70.0086 148.891 67.2106 149.241C64.5293 149.591 61.8479 149.765 59.1665 149.765C56.4851 149.765 54.0952 149.532 51.9967 149.066C50.0149 148.716 48.3244 148.017 46.9254 146.967C45.5265 145.918 44.4772 144.461 43.7777 142.596C43.0783 140.73 42.7285 138.282 42.7285 135.251V42.9185C44.0109 42.6853 46.0511 42.3939 48.849 42.0441C51.647 41.5778 54.3284 41.3446 56.8932 41.3446C59.5745 41.3446 61.9062 41.5778 63.8881 42.0441C65.9865 42.3939 67.7353 43.0934 69.1342 44.1426C70.5332 45.1918 71.5824 46.6491 72.2819 48.5144C72.9814 50.3797 73.3312 52.8279 73.3312 55.859V83.8386H106.907V42.9185C108.189 42.6853 110.229 42.3939 113.027 42.0441C115.825 41.5778 118.507 41.3446 121.071 41.3446C123.753 41.3446 126.084 41.5778 128.066 42.0441C130.165 42.3939 131.913 43.0934 133.312 44.1426C134.711 45.1918 135.761 46.6491 136.46 48.5144C137.16 50.3797 137.509 52.8279 137.509 55.859V148.192Z" fill="white"/>
<path d="M154.975 95.7299C154.975 86.6366 156.374 78.5924 159.172 71.5975C162.086 64.6026 165.992 58.7736 170.888 54.1103C175.901 49.3305 181.73 45.7164 188.375 43.2682C195.137 40.82 202.423 39.5959 210.234 39.5959C218.045 39.5959 225.273 40.82 231.918 43.2682C238.68 45.7164 244.568 49.3305 249.581 54.1103C254.594 58.7736 258.499 64.6026 261.297 71.5975C264.212 78.5924 265.669 86.6366 265.669 95.7299C265.669 104.823 264.27 112.926 261.472 120.037C258.674 127.032 254.768 132.919 249.755 137.699C244.859 142.363 239.03 145.918 232.268 148.366C225.506 150.815 218.162 152.039 210.234 152.039C202.307 152.039 194.962 150.815 188.2 148.366C181.439 145.802 175.61 142.129 170.713 137.35C165.817 132.57 161.97 126.682 159.172 119.687C156.374 112.693 154.975 104.707 154.975 95.7299ZM186.452 95.7299C186.452 106.339 188.608 114.266 192.922 119.513C197.235 124.759 203.006 127.382 210.234 127.382C217.579 127.382 223.408 124.759 227.722 119.513C232.035 114.266 234.192 106.339 234.192 95.7299C234.192 85.2376 232.035 77.3683 227.722 72.1222C223.525 66.876 217.754 64.2529 210.409 64.2529C203.181 64.2529 197.352 66.876 192.922 72.1222C188.608 77.2517 186.452 85.121 186.452 95.7299Z" fill="white"/>
<path d="M275.208 67.4006C274.391 66.1182 273.634 64.3695 272.934 62.1544C272.235 59.9394 271.885 57.6078 271.885 55.1595C271.885 50.6129 272.876 47.3486 274.858 45.3667C276.956 43.3848 279.638 42.3939 282.902 42.3939H359.146C359.962 43.6763 360.72 45.425 361.42 47.64C362.119 49.8551 362.469 52.1867 362.469 54.6349C362.469 59.1816 361.42 62.4459 359.321 64.4278C357.339 66.4097 354.716 67.4006 351.452 67.4006H332.041V148.192C330.759 148.541 328.718 148.891 325.92 149.241C323.239 149.591 320.558 149.765 317.876 149.765C315.195 149.765 312.805 149.532 310.707 149.066C308.725 148.716 307.034 148.017 305.635 146.967C304.236 145.918 303.187 144.461 302.488 142.596C301.788 140.73 301.438 138.282 301.438 135.251V67.4006H275.208Z" fill="white"/>
<path d="M442.361 106.747C437.231 104.998 432.568 103.249 428.371 101.501C424.174 99.6354 420.56 97.4203 417.529 94.8555C414.498 92.2908 412.108 89.2596 410.359 85.7622C408.727 82.1482 407.911 77.7764 407.911 72.6468C407.911 62.7373 411.7 54.8098 419.278 48.8641C426.972 42.9185 437.698 39.9457 451.454 39.9457C456.467 39.9457 461.13 40.2954 465.444 40.9949C469.757 41.6944 473.43 42.8019 476.461 44.3175C479.609 45.7164 482.057 47.5817 483.806 49.9134C485.554 52.1284 486.429 54.7515 486.429 57.7826C486.429 60.8137 485.729 63.4368 484.33 65.6519C482.931 67.7503 481.241 69.5574 479.259 71.0729C476.694 69.4408 473.255 68.0418 468.941 66.876C464.628 65.5936 459.906 64.9524 454.777 64.9524C449.531 64.9524 445.683 65.7102 443.235 67.2257C440.787 68.6247 439.563 70.4317 439.563 72.6468C439.563 74.3955 440.321 75.8528 441.836 77.0186C443.352 78.0678 445.625 79.0588 448.656 79.9914L457.924 82.9642C468.883 86.4617 477.277 90.9501 483.106 96.4294C489.052 101.792 492.025 109.137 492.025 118.463C492.025 128.373 488.119 136.417 480.308 142.596C472.497 148.658 461.014 151.689 445.858 151.689C440.496 151.689 435.483 151.223 430.819 150.29C426.273 149.474 422.251 148.25 418.753 146.618C415.372 144.869 412.691 142.771 410.709 140.322C408.844 137.758 407.911 134.843 407.911 131.579C407.911 128.198 408.902 125.342 410.884 123.01C412.866 120.562 415.022 118.696 417.354 117.414C420.618 119.979 424.582 122.194 429.245 124.059C434.025 125.925 439.213 126.857 444.809 126.857C450.522 126.857 454.544 125.983 456.875 124.234C459.207 122.485 460.373 120.445 460.373 118.114C460.373 115.782 459.44 114.033 457.575 112.867C455.709 111.585 453.086 110.361 449.705 109.195L442.361 106.747Z" fill="white"/>
<path d="M531.841 46.0662C533.823 44.9004 536.796 43.7928 540.759 42.7436C544.84 41.6944 548.92 41.1698 553 41.1698C558.829 41.1698 563.959 42.0441 568.389 43.7928C572.936 45.425 575.85 48.0481 577.133 51.6621C579.231 57.7243 581.505 64.7775 583.953 72.8216C586.401 80.8658 588.849 89.2013 591.297 97.8284C593.746 106.339 596.135 114.791 598.467 123.185C600.799 131.462 602.839 138.807 604.588 145.219C603.189 146.851 601.09 148.133 598.292 149.066C595.494 150.115 592.172 150.64 588.325 150.64C585.527 150.64 583.137 150.407 581.155 149.94C579.289 149.474 577.716 148.775 576.433 147.842C575.267 146.909 574.276 145.685 573.46 144.17C572.761 142.654 572.12 140.905 571.537 138.923L568.389 126.857H536.737C535.805 130.355 534.872 133.969 533.939 137.699C533.007 141.43 532.074 145.044 531.141 148.541C529.509 149.124 527.76 149.591 525.895 149.94C524.146 150.407 521.99 150.64 519.425 150.64C513.479 150.64 509.049 149.649 506.135 147.667C503.337 145.569 501.938 142.712 501.938 139.098C501.938 137.466 502.171 135.834 502.637 134.202C503.103 132.57 503.628 130.646 504.211 128.431C505.027 125.283 506.135 121.378 507.534 116.715C509.049 112.051 510.681 107.038 512.43 101.676C514.179 96.1962 516.044 90.6003 518.026 84.8878C520.008 79.1753 521.873 73.8126 523.622 68.7996C525.371 63.67 526.944 59.1233 528.343 55.1595C529.859 51.1958 531.025 48.1646 531.841 46.0662ZM552.825 68.6247C551.193 73.5211 549.328 79.0005 547.23 85.0627C545.248 91.0084 543.441 97.0706 541.809 103.249H563.493C561.861 96.954 560.17 90.8335 558.421 84.8878C556.789 78.8256 555.274 73.4045 553.875 68.6247H552.825Z" fill="white"/>
<path d="M635.182 149.416C630.169 149.416 626.205 147.958 623.291 145.044C620.376 142.129 618.919 138.166 618.919 133.153V42.7436C620.201 42.5104 622.242 42.219 625.04 41.8692C627.838 41.4029 630.519 41.1698 633.084 41.1698C635.765 41.1698 638.097 41.4029 640.079 41.8692C642.177 42.219 643.926 42.9185 645.325 43.9677C646.724 45.017 647.773 46.4742 648.472 48.3395C649.172 50.2048 649.522 52.653 649.522 55.6842V124.759H689.567C690.383 126.041 691.141 127.79 691.841 130.005C692.54 132.103 692.89 134.318 692.89 136.65C692.89 141.313 691.899 144.636 689.917 146.618C687.935 148.483 685.312 149.416 682.048 149.416H635.182Z" fill="white"/>
<path d="M708.575 59.1816C708.575 54.1686 710.032 50.2048 712.947 47.2903C715.862 44.3758 719.825 42.9185 724.838 42.9185H782.546C783.362 44.2009 784.062 45.8913 784.645 47.9898C785.344 50.0882 785.694 52.3033 785.694 54.6349C785.694 59.065 784.703 62.2127 782.721 64.078C780.856 65.9433 778.349 66.876 775.202 66.876H738.303V83.1391H777.65C778.466 84.4215 779.165 86.1119 779.748 88.2104C780.448 90.1923 780.797 92.349 780.797 94.6807C780.797 99.1108 779.865 102.258 778 104.124C776.134 105.989 773.628 106.922 770.48 106.922H738.303V125.283H783.246C784.062 126.566 784.761 128.256 785.344 130.355C786.044 132.453 786.393 134.668 786.393 137C786.393 141.43 785.402 144.636 783.421 146.618C781.555 148.483 779.049 149.416 775.901 149.416H724.838C719.825 149.416 715.862 147.958 712.947 145.044C710.032 142.129 708.575 138.166 708.575 133.153V59.1816Z" fill="white"/>
<path d="M834.457 47.4652C834.457 50.1465 834.399 54.052 834.282 59.1816C834.166 64.1946 833.933 69.6739 833.583 75.6196C833.233 81.4487 832.767 87.336 832.184 93.2817C831.601 99.1108 830.901 104.182 830.085 108.496C829.619 108.845 828.92 109.195 827.987 109.545C827.054 109.895 826.063 110.186 825.014 110.419C823.965 110.652 822.916 110.827 821.866 110.944C820.817 111.06 819.885 111.119 819.068 111.119C815.688 111.119 812.831 110.594 810.5 109.545C808.285 108.496 806.886 106.455 806.303 103.424C805.72 100.743 805.195 96.6626 804.729 91.1832C804.379 85.7039 804.029 79.7582 803.68 73.3463C803.33 66.9343 803.039 60.5806 802.805 54.2852C802.689 47.9898 802.63 42.627 802.63 38.1969C804.962 36.9145 807.585 35.9236 810.5 35.2241C813.531 34.408 816.504 34 819.418 34C824.198 34 827.87 35.1075 830.435 37.3226C833.117 39.5376 834.457 42.9185 834.457 47.4652ZM802.281 135.601C802.281 130.821 803.738 126.915 806.653 123.884C809.684 120.737 813.822 119.163 819.068 119.163C824.315 119.163 828.395 120.737 831.31 123.884C834.341 126.915 835.856 130.821 835.856 135.601C835.856 140.381 834.341 144.344 831.31 147.492C828.395 150.523 824.315 152.039 819.068 152.039C813.822 152.039 809.684 150.523 806.653 147.492C803.738 144.344 802.281 140.381 802.281 135.601Z" fill="white"/>
<defs>
<linearGradient id="paint0_linear" x1="197.429" y1="27.5" x2="197.429" y2="173.9" gradientUnits="userSpaceOnUse">
<stop stop-color="#914EC6"/>
<stop offset="1" stop-color="#50088F"/>
</linearGradient>
<linearGradient id="paint1_linear" x1="616.68" y1="22" x2="616.68" y2="174.1" gradientUnits="userSpaceOnUse">
<stop stop-color="#914EC6"/>
<stop offset="1" stop-color="#50088F"/>
</linearGradient>
<radialGradient id="paint2_radial" cx="0" cy="0" r="1" gradientUnits="userSpaceOnUse" gradientTransform="translate(266.105 121.028) rotate(125.899) scale(5.86979 10.9506)">
<stop stop-color="#B860CE"/>
<stop offset="0.674033" stop-color="#8D41C8"/>
</radialGradient>
<radialGradient id="paint3_radial" cx="0" cy="0" r="1" gradientUnits="userSpaceOnUse" gradientTransform="translate(251.894 139.859) rotate(105.584) scale(9.48694 9.6425)">
<stop stop-color="#B860CE"/>
<stop offset="0.674033" stop-color="#8D41C8"/>
</radialGradient>
<radialGradient id="paint4_radial" cx="0" cy="0" r="1" gradientUnits="userSpaceOnUse" gradientTransform="translate(237.286 50.4448) rotate(125.343) scale(133.159 246.789)">
<stop stop-color="#B860CE"/>
<stop offset="0.674033" stop-color="#8D41C8"/>
</radialGradient>
<radialGradient id="paint5_radial" cx="0" cy="0" r="1" gradientUnits="userSpaceOnUse" gradientTransform="translate(410.159 37.7888) rotate(102.847) scale(10.2872 8.75891)">
<stop stop-color="#B860CE"/>
<stop offset="0.674033" stop-color="#8D41C8"/>
</radialGradient>
<radialGradient id="paint6_radial" cx="0" cy="0" r="1" gradientUnits="userSpaceOnUse" gradientTransform="translate(562.46 145.535) rotate(119.441) scale(6.82491 11.4746)">
<stop stop-color="#B860CE"/>
<stop offset="0.674033" stop-color="#8D41C8"/>
</radialGradient>
<radialGradient id="paint7_radial" cx="0" cy="0" r="1" gradientUnits="userSpaceOnUse" gradientTransform="translate(668.688 46.0495) rotate(131.825) scale(150.983 294.69)">
<stop stop-color="#B860CE"/>
<stop offset="0.674033" stop-color="#8D41C8"/>
</radialGradient>
</defs>
</svg>
