<?xml version="1.0" encoding="utf-8"?>
<!-- Generator: Adobe Illustrator 23.1.0, SVG Export Plug-In . SVG Version: 6.00 Build 0)  -->
<svg version="1.1" id="图层_1" xmlns="http://www.w3.org/2000/svg" xmlns:xlink="http://www.w3.org/1999/xlink" x="0px" y="0px"
	 viewBox="0 0 116 113" style="enable-background:new 0 0 116 113;" xml:space="preserve">
<style type="text/css">
	.st0{fill:url(#SVGID_1_);}
	.st1{fill:url(#SVGID_2_);}
	.st2{fill:url(#SVGID_3_);}
	.st3{opacity:0.5;}
	.st4{fill:url(#SVGID_4_);}
	.st5{fill:url(#SVGID_5_);}
	.st6{fill:#FD897C;filter:url(#Adobe_OpacityMaskFilter);}
	.st7{mask:url(#mask0_1_);}
	.st8{fill:#FD897C;}
	.st9{fill:url(#SVGID_6_);}
	.st10{fill:url(#SVGID_7_);}
	.st11{fill:#CF3115;}
	.st12{fill:url(#SVGID_8_);}
	.st13{fill:#FFE29D;filter:url(#Adobe_OpacityMaskFilter_1_);}
	.st14{mask:url(#mask1_1_);}
	.st15{fill:#FFE29D;}
	.st16{fill:#FFE29D;stroke:#FFE29D;stroke-width:2.4428;}
	.st17{fill:url(#SVGID_9_);}
	.st18{fill:url(#SVGID_10_);}
	.st19{fill:#F78B0C;}
	.st20{fill:url(#SVGID_11_);}
	.st21{fill:url(#SVGID_12_);}
	.st22{fill:url(#SVGID_13_);}
	.st23{fill:url(#SVGID_14_);}
	.st24{fill:url(#SVGID_15_);}
	.st25{fill:#F79E0D;}
	.st26{fill:url(#SVGID_16_);}
	.st27{fill:#FFFFFF;filter:url(#Adobe_OpacityMaskFilter_2_);stroke:#FFFFFF;stroke-width:0.5274;}
	.st28{mask:url(#mask2_1_);}
	.st29{fill:#FFFFFF;}
	.st30{fill:#FDC541;}
	.st31{fill:#FFFFFF;filter:url(#Adobe_OpacityMaskFilter_3_);stroke:#FFFFFF;stroke-width:0.5274;}
	.st32{mask:url(#mask3_1_);}
	.st33{fill:#FFFFFF;filter:url(#Adobe_OpacityMaskFilter_4_);stroke:#FFFFFF;stroke-width:0.5274;}
	.st34{mask:url(#mask4_1_);}
	.st35{fill:url(#SVGID_17_);}
	.st36{fill:url(#SVGID_18_);}
	.st37{fill:url(#SVGID_19_);}
	.st38{fill:url(#SVGID_20_);}
	.st39{fill:url(#SVGID_21_);}
	.st40{fill:url(#SVGID_22_);}
	.st41{fill:url(#SVGID_23_);}
</style>
<linearGradient id="SVGID_1_" gradientUnits="userSpaceOnUse" x1="83.8583" y1="20.9535" x2="85.7738" y2="1.612" gradientTransform="matrix(1 0 0 -1 0 114)">
	<stop  offset="0" style="stop-color:#914EC6"/>
	<stop  offset="1" style="stop-color:#50088F"/>
</linearGradient>
<path class="st0" d="M80.8,112.9c0,0,8.3-1.4,9.3-7.8c0.3-2.3-9.5-10.9-9.5-10.9L80.8,112.9z"/>
<linearGradient id="SVGID_2_" gradientUnits="userSpaceOnUse" x1="5.8776" y1="74.1168" x2="10.9021" y2="83.1262" gradientTransform="matrix(1 0 0 -1 0 114)">
	<stop  offset="0" style="stop-color:#914EC6"/>
	<stop  offset="1" style="stop-color:#50088F"/>
</linearGradient>
<path class="st1" d="M0.9,31.5h19.3c-2.1-2.1-6.6-6.8-10.1-6.8C7.2,24.7,4.3,27.7,0.9,31.5z"/>
<linearGradient id="SVGID_3_" gradientUnits="userSpaceOnUse" x1="76.8201" y1="67.2975" x2="47.9845" y2="47.6629" gradientTransform="matrix(1 0 0 -1 0 114)">
	<stop  offset="0.1547" style="stop-color:#A64FDB"/>
	<stop  offset="0.7238" style="stop-color:#7526B9"/>
</linearGradient>
<path class="st2" d="M52,23.5c2.9-0.1,5.8,1.1,7.7,3.3L92,63c1.9,2.2,2.8,5,2.5,7.9l-4.4,34.3L10,24.7L52,23.5z"/>
<g class="st3">
	
		<linearGradient id="SVGID_4_" gradientUnits="userSpaceOnUse" x1="74.8051" y1="72.0662" x2="68.1153" y2="64.3502" gradientTransform="matrix(1 0 0 -1 0 114)">
		<stop  offset="0" style="stop-color:#5496AE"/>
		<stop  offset="1" style="stop-color:#3D4493;stop-opacity:0.72"/>
	</linearGradient>
	<path class="st4" d="M87.1,57.1c-1.8,2.1-12-1.1-19.8-8.2c-7.8-7-11.3-14.5-9.5-16.6c1.8-2.1,8,2.6,16.9,10.4S88.9,55,87.1,57.1z"
		/>
	
		<linearGradient id="SVGID_5_" gradientUnits="userSpaceOnUse" x1="77.184" y1="69.9979" x2="70.4942" y2="62.2819" gradientTransform="matrix(1 0 0 -1 0 114)">
		<stop  offset="0" style="stop-color:#5496AE"/>
		<stop  offset="1" style="stop-color:#3D4493;stop-opacity:0.72"/>
	</linearGradient>
	<path class="st5" d="M89.5,59.1c-1.8,2.1-12-1.1-19.8-8.2c-7.8-7-11.3-14.5-9.5-16.6c1.8-2.1,8,2.6,16.9,10.4S91.3,57,89.5,59.1z"
		/>
</g>
<defs>
	<filter id="Adobe_OpacityMaskFilter" filterUnits="userSpaceOnUse" x="64.3" y="13" width="39.2" height="40.4">
		<feColorMatrix  type="matrix" values="1 0 0 0 0  0 1 0 0 0  0 0 1 0 0  0 0 0 1 0"/>
	</filter>
</defs>
<mask maskUnits="userSpaceOnUse" x="64.3" y="13" width="39.2" height="40.4" id="mask0_1_">
	<path class="st6" d="M82.4,15.8c-6.2,2.4-13.6,7.4-15.6,7.9c-0.3,1-1,3.3-1.5,5.2c-0.7,2.3,5.1,6.4,6.1,7.5c0.8,0.9,4.3,6.5,6,9.1
		l5.1,5.7c2.6,1.3,8.7,3,12.1-0.6c3.3-3.6,5.6-14.2,6.2-19c-3.7,1.1-13.2,4.2-20.6,7.2C80.9,35,82.3,19,82.4,15.8z"/>
</mask>
<g class="st7">
	<path class="st8" d="M82.4,15.8c-6.2,2.4-13.6,7.4-15.6,7.9c-0.3,1-1,3.3-1.5,5.2c-0.7,2.3,5.1,6.4,6.1,7.5c0.8,0.9,4.3,6.5,6,9.1
		l5.1,5.7c2.6,1.3,8.7,3,12.1-0.6c3.3-3.6,5.6-14.2,6.2-19c-3.7,1.1-13.2,4.2-20.6,7.2C80.9,35,82.3,19,82.4,15.8z"/>
	
		<linearGradient id="SVGID_6_" gradientUnits="userSpaceOnUse" x1="99.63" y1="85.0528" x2="86.1632" y2="78.89" gradientTransform="matrix(1 0 0 -1 0 114)">
		<stop  offset="0" style="stop-color:#E23316;stop-opacity:0.52"/>
		<stop  offset="1" style="stop-color:#EC920C"/>
	</linearGradient>
	<path class="st9" d="M81.8,16.5c-6.2,2.4-13.9,6.8-16,7.3c-0.3,1-1,3.3-1.5,5.2c-0.7,2.3,5.1,6.4,6.1,7.5c0.8,0.9,4.3,6.5,6,9.1
		l5.1,5.7c2.6,1.3,9.8,3.8,13.2,0.1c3.2-3.4,4.5-13.2,5.2-18.3c0.1-0.4-0.3-0.7-0.7-0.6c-4,1.2-11.5,3.2-18.4,6
		C81.5,34.7,81.7,19.6,81.8,16.5z"/>
	
		<linearGradient id="SVGID_7_" gradientUnits="userSpaceOnUse" x1="91.5642" y1="89.3771" x2="74.0142" y2="69.1352" gradientTransform="matrix(1 0 0 -1 0 114)">
		<stop  offset="0" style="stop-color:#E23316"/>
		<stop  offset="1" style="stop-color:#EC920C;stop-opacity:0.87"/>
	</linearGradient>
	<path class="st10" d="M78.2,18.1c-5.3,2.4-10.6,5.3-12.3,5.7c-0.3,1-1,3.3-1.5,5.2c-0.7,2.3,5.1,6.4,6.1,7.5c0.8,0.9,4.3,6.5,6,9.1
		l5.1,5.7c2.6,1.3,9.8,3.8,13.2,0.1c1.7-1.9,2.9-5.6,3.7-9.4c1-4.5-3.4-8.3-7.8-7c-3.1,1-6.6,2.1-9.9,3.4c0.6-3,0.9-12.3,1-18.1
		C81.8,18.6,79.9,17.3,78.2,18.1z"/>
	<ellipse transform="matrix(0.3454 -0.9385 0.9385 0.3454 39.8767 88.0835)" class="st11" cx="83.1" cy="15.5" rx="2.5" ry="2.5"/>
	<ellipse transform="matrix(0.3454 -0.9385 0.9385 0.3454 36.2553 115.5906)" class="st11" cx="101" cy="31.8" rx="2.5" ry="2.5"/>
	
		<linearGradient id="SVGID_8_" gradientUnits="userSpaceOnUse" x1="78.8616" y1="77.5811" x2="91.9338" y2="98.3035" gradientTransform="matrix(1 0 0 -1 0 114)">
		<stop  offset="0" style="stop-color:#CF3016"/>
		<stop  offset="1" style="stop-color:#CF3016;stop-opacity:0"/>
	</linearGradient>
	<path class="st12" d="M75.4,18.8c-6.4,3.4-7.5,4.5-9.5,5c-0.3,1-1,3.3-1.5,5.2c-0.7,2.3,5.1,6.4,6.1,7.5c0.8,0.9,4.3,6.5,6,9.1
		l5.1,5.7c2.6,1.3,9.4-0.7,9.4-0.7S92.4,38.7,93,34c-3.8,1.3-9.5,4.7-16.9,7.7C76.9,37.7,75.3,21.9,75.4,18.8z"/>
</g>
<defs>
	<filter id="Adobe_OpacityMaskFilter_1_" filterUnits="userSpaceOnUse" x="45.6" y="0.3" width="70.4" height="69.2">
		<feColorMatrix  type="matrix" values="1 0 0 0 0  0 1 0 0 0  0 0 1 0 0  0 0 0 1 0"/>
	</filter>
</defs>
<mask maskUnits="userSpaceOnUse" x="45.6" y="0.3" width="70.4" height="69.2" id="mask1_1_">
	<path class="st13" d="M58.4,33.1c0,0,9.6-15.8,14.9-24.2c-0.3,2.6-0.7,12.5-2.6,21.5c1.1-1,16.5-6.2,22.5-7.6
		c-0.3,3.9-4.6,16.4-6.7,22.2l0,0c2.2-0.5,10.1-2.5,23.4-4.5C105.9,45,95,53.8,88.9,58.9c-4.4-1.2-14.6-4.9-20.2-9.7
		S59.5,36.5,58.4,33.1z"/>
</mask>
<g class="st14">
	<polygon class="st15" points="72,0.3 116.1,38.5 89.7,69.4 45.6,31.2 	"/>
	<path class="st16" d="M57.4,32.5L57.1,33l0.2,0.5c1.1,3.4,4.8,11.6,10.7,16.6c2.9,2.5,7,4.7,10.9,6.4c3.9,1.7,7.6,2.9,9.8,3.6
		l0.6,0.2l0.5-0.4c1.1-0.9,2.4-2,3.8-3.2c2.4-2,5-4.1,7.5-6.3c4-3.4,7.7-6.8,9.7-9.1l2.1-2.5l-3.3,0.5c-10.5,1.6-17.6,3.2-21.3,4
		c1-2.8,2.2-6.3,3.3-9.7c0.7-2.2,1.3-4.3,1.8-6.2c0.5-1.8,0.8-3.4,0.9-4.5l0.1-1.6l-1.6,0.4c-3,0.7-8.4,2.4-13.2,4
		c-2.4,0.8-4.6,1.6-6.3,2.3c-0.4,0.1-0.7,0.3-1.1,0.4c1.2-6.2,1.6-12.6,1.9-16.3c0.1-1.3,0.2-2.3,0.2-2.9l-2.2-0.8
		c-2.7,4.2-6.4,10.3-9.4,15.3c-1.5,2.5-2.9,4.7-3.9,6.4c-0.5,0.8-0.9,1.5-1.2,1.9l-0.3,0.5L57.4,32.5L57.4,32.5L57.4,32.5L57.4,32.5
		L57.4,32.5c0,0,0,0,1,0.6L57.4,32.5z"/>
	
		<radialGradient id="SVGID_9_" cx="-483.8242" cy="1310.7852" r="1" gradientTransform="matrix(-16.3487 16.4368 23.3014 23.1765 -38367.168 -22393.3965)" gradientUnits="userSpaceOnUse">
		<stop  offset="0.2604" style="stop-color:#FDE87B"/>
		<stop  offset="1" style="stop-color:#FAB011"/>
	</radialGradient>
	<path class="st17" d="M58.4,33.1c0,0,8.5-15,14.9-24.2c-0.3,2.6-2,13.2-4,22.3c1.1-1,11.7-5.3,22-6.7C91,28.4,87,39.6,84.9,45.3
		c2.2-0.5,10-2,23.3-4c-3.8,4.5-13.2,13-19.3,18.2c-4.4-1.2-14.5-5.4-20.1-10.3S59.5,36.5,58.4,33.1z"/>
	
		<linearGradient id="SVGID_10_" gradientUnits="userSpaceOnUse" x1="93.0049" y1="91.5614" x2="52.7" y2="44.5869" gradientTransform="matrix(1 0 0 -1 0 114)">
		<stop  offset="0" style="stop-color:#FDCA46"/>
		<stop  offset="1" style="stop-color:#F78B0C"/>
	</linearGradient>
	<path class="st18" d="M58.9,32c0,0,8.1-13.9,14.5-23.2c-0.3,2.3-3.9,13.8-6.1,22.7c-0.4,1.7,1.2,3,2.7,2.2
		c4.5-2.4,9.5-5.7,21.3-8.9c-0.2,3.6-3.8,14.6-6,20.9c-0.3,0.8,0.4,1.5,1.2,1.3c3.6-1.3,11.1-4.1,21.8-5.7
		c-3.8,4.5-12.9,11.7-19,16.9c-4.4-1.2-14.4-5-20-9.9S60,35.4,58.9,32z"/>
	<path class="st19" d="M63,48.7c1.5-1.2,19.5-16.6,28-23.8c-1.9,10.5-5.1,16.3-6.8,21.3l-4.7,13C78.8,59.9,69.1,54.4,63,48.7z"/>
	
		<linearGradient id="SVGID_11_" gradientUnits="userSpaceOnUse" x1="72.73" y1="59.2366" x2="93.3859" y2="66.8926" gradientTransform="matrix(1 0 0 -1 0 114)">
		<stop  offset="2.604170e-02" style="stop-color:#F7122E;stop-opacity:0.72"/>
		<stop  offset="1" style="stop-color:#F8600B;stop-opacity:0"/>
	</linearGradient>
	<path class="st20" d="M60.7,55.3c1.5-1.2,18.9-11.6,27.4-18.8c-1,3.8-0.6,7.1,4.8,5.9L77.2,65.7C76.5,66.4,66.8,60.9,60.7,55.3z"/>
	
		<linearGradient id="SVGID_12_" gradientUnits="userSpaceOnUse" x1="93.7977" y1="89.5423" x2="87.5798" y2="81.1707" gradientTransform="matrix(1 0 0 -1 0 114)">
		<stop  offset="0" style="stop-color:#FFF8E7;stop-opacity:0"/>
		<stop  offset="0.2559" style="stop-color:#FFFFFF"/>
		<stop  offset="1" style="stop-color:#FFF8E7;stop-opacity:0"/>
	</linearGradient>
	<path class="st21" d="M91,25l1.5-3.4l3,5.2c-0.1,0.2-3.7,3.4-6.7,7.4C88.8,34,90.5,27.8,91,25z"/>
	
		<linearGradient id="SVGID_13_" gradientUnits="userSpaceOnUse" x1="108.7178" y1="74.5774" x2="102.4999" y2="66.2058" gradientTransform="matrix(1 0 0 -1 0 114)">
		<stop  offset="0" style="stop-color:#FFF8E7;stop-opacity:0"/>
		<stop  offset="0.2559" style="stop-color:#FFFFFF"/>
		<stop  offset="1" style="stop-color:#FFF8E7;stop-opacity:0"/>
	</linearGradient>
	<path class="st22" d="M106.8,41.1l4.9-1.8l-0.4,3.2c-0.1,0.2-17,14.3-20.9,15.6C86,60,106.4,44,106.8,41.1z"/>
	
		<linearGradient id="SVGID_14_" gradientUnits="userSpaceOnUse" x1="75.282" y1="103.1219" x2="69.0641" y2="94.7503" gradientTransform="matrix(1 0 0 -1 0 114)">
		<stop  offset="0" style="stop-color:#FFF8E7;stop-opacity:0"/>
		<stop  offset="0.2559" style="stop-color:#FFFFFF"/>
		<stop  offset="1" style="stop-color:#FFF8E7;stop-opacity:0"/>
	</linearGradient>
	<path class="st23" d="M72.4,11.4L74,8.1l3,5.2c-0.1,0.2-3.7,3.4-6.7,7.4C70.3,20.4,72,14.3,72.4,11.4z"/>
	
		<linearGradient id="SVGID_15_" gradientUnits="userSpaceOnUse" x1="77.3616" y1="93.9553" x2="52.9366" y2="86.1181" gradientTransform="matrix(1 0 0 -1 0 114)">
		<stop  offset="0.1028" style="stop-color:#FD754A;stop-opacity:0"/>
		<stop  offset="0.5885" style="stop-color:#F78B0C"/>
	</linearGradient>
	<path class="st24" d="M73.4,9.1L68.7,26l-9.9,12.2l-6.3-6.5L73.4,9.1z"/>
	<ellipse transform="matrix(0.3453 -0.9385 0.9385 0.3453 40.4954 102.9949)" class="st25" cx="94.1" cy="22.5" rx="2.5" ry="2.5"/>
	<ellipse transform="matrix(0.3453 -0.9385 0.9385 0.3453 39.7016 75.1035)" class="st25" cx="73.7" cy="9.1" rx="2.5" ry="2.5"/>
	<ellipse transform="matrix(0.3453 -0.9385 0.9385 0.3453 33.103 130.1264)" class="st25" cx="109.8" cy="41.3" rx="2.5" ry="2.5"/>
	
		<linearGradient id="SVGID_16_" gradientUnits="userSpaceOnUse" x1="105.186" y1="67.1092" x2="80.8082" y2="57.3401" gradientTransform="matrix(1 0 0 -1 0 114)">
		<stop  offset="0.1028" style="stop-color:#FE7E21;stop-opacity:0"/>
		<stop  offset="0.7445" style="stop-color:#F79E0C"/>
	</linearGradient>
	<path class="st26" d="M92.4,45c1.6-0.4,3.5-0.8,5.4-1.2c2.5-0.5,4,2.6,2.1,4.4L85.2,62l-1.7-2.9C83.4,59.1,89.6,49.5,92.4,45z"/>
</g>
<defs>
	<filter id="Adobe_OpacityMaskFilter_2_" filterUnits="userSpaceOnUse" x="90.6" y="18.1" width="6.8" height="7.4">
		<feColorMatrix  type="matrix" values="1 0 0 0 0  0 1 0 0 0  0 0 1 0 0  0 0 0 1 0"/>
	</filter>
</defs>
<mask maskUnits="userSpaceOnUse" x="90.6" y="18.1" width="6.8" height="7.4" id="mask2_1_">
	<path class="st27" d="M96.1,23.5L96.1,23.5L96.1,23.5c1.1-1.3,0.7-2.9-0.1-3.7c-0.5-0.4-1.2-0.5-1.8-0.4c-0.6,0.1-1.3,0.4-1.7,0.9
		c-0.8,0.9-0.4,2.4,0.6,3.4l0,0l0,0C93.8,24.4,95.3,24.4,96.1,23.5z"/>
</mask>
<g class="st28">
	<path class="st29" d="M96.5,24.4c-1.2,1.4-3.2,1.4-4.5,0.4c-1.2-1.1-1.9-3.6-0.8-5c1.2-1.4,4-2.1,5.3-1
		C97.8,19.9,97.7,23,96.5,24.4z"/>
	<path class="st30" d="M96.2,23.1c-0.9,1.1-2.6,1-3.7,0.1c-1.1-0.9-1.8-3-0.8-4.1c0.9-1.1,3.2-1.5,4.3-0.6
		C97,19.5,97.1,22,96.2,23.1z"/>
</g>
<defs>
	<filter id="Adobe_OpacityMaskFilter_3_" filterUnits="userSpaceOnUse" x="107.1" y="37.2" width="5.8" height="6.1">
		<feColorMatrix  type="matrix" values="1 0 0 0 0  0 1 0 0 0  0 0 1 0 0  0 0 0 1 0"/>
	</filter>
</defs>
<mask maskUnits="userSpaceOnUse" x="107.1" y="37.2" width="5.8" height="6.1" id="mask3_1_">
	<path class="st31" d="M112.2,40.4L112.2,40.4L112.2,40.4c0-1.4-1.1-2.3-2.1-2.3c-0.5,0-1,0.3-1.4,0.7c-0.4,0.4-0.6,1-0.6,1.5
		c0,1.1,1,1.8,2.1,1.9v0l0,0C111.2,42.2,112.2,41.4,112.2,40.4z"/>
</mask>
<g class="st32">
	<path class="st29" d="M112.9,40.7c0,1.5-1.3,2.6-2.7,2.6c-1.4,0-3.1-1.2-3.1-2.7c0-1.5,1.5-3.4,2.8-3.4
		C111.3,37.2,112.9,39.2,112.9,40.7z"/>
	<path class="st30" d="M112,40.1c0,1.1-1.1,2-2.3,2c-1.2,0-2.7-0.9-2.7-2.1c0-1.1,1.3-2.6,2.4-2.6C110.7,37.4,112,39,112,40.1z"/>
</g>
<defs>
	<filter id="Adobe_OpacityMaskFilter_4_" filterUnits="userSpaceOnUse" x="70.7" y="5.7" width="5.8" height="6.1">
		<feColorMatrix  type="matrix" values="1 0 0 0 0  0 1 0 0 0  0 0 1 0 0  0 0 0 1 0"/>
	</filter>
</defs>
<mask maskUnits="userSpaceOnUse" x="70.7" y="5.7" width="5.8" height="6.1" id="mask4_1_">
	<path class="st33" d="M75.8,8.8L75.8,8.8L75.8,8.8c0-1.4-1.1-2.3-2.1-2.3c-0.5,0-1,0.3-1.4,0.7c-0.4,0.4-0.6,1-0.6,1.5
		c0,1.1,1,1.8,2.1,1.9v0h0C74.8,10.6,75.8,9.9,75.8,8.8z"/>
</mask>
<g class="st34">
	<path class="st29" d="M76.5,9.2c0,1.5-1.3,2.6-2.7,2.6c-1.4,0-3.1-1.2-3.1-2.7c0-1.5,1.5-3.4,2.8-3.4C75,5.7,76.5,7.7,76.5,9.2z"/>
	<path class="st30" d="M75.6,8.6c0,1.1-1.1,2-2.3,2c-1.2,0-2.7-0.9-2.7-2.1c0-1.1,1.3-2.6,2.4-2.6C74.3,5.9,75.7,7.4,75.6,8.6z"/>
</g>
<radialGradient id="SVGID_17_" cx="-523.6348" cy="1537.1455" r="1" gradientTransform="matrix(-4.5248 1.5978 1.5837 4.5485 -4707.7471 -6130.6587)" gradientUnits="userSpaceOnUse">
	<stop  offset="0.1354" style="stop-color:#FFFFFF"/>
	<stop  offset="0.5315" style="stop-color:#FFB629"/>
	<stop  offset="0.6823" style="stop-color:#E77E31"/>
	<stop  offset="1" style="stop-color:#D58205"/>
</radialGradient>
<path class="st35" d="M95.6,19.9c0.9,0.8,1,2.1,0.2,3c-0.8,0.9-2.1,1-3,0.2c-0.9-0.8-1-2.1-0.2-3C93.4,19.2,94.8,19.1,95.6,19.9z"/>
<radialGradient id="SVGID_18_" cx="-317.8768" cy="1536.7151" r="1" gradientTransform="matrix(-2.0336 3.4107 3.372 2.0105 -5717.3955 -1966.1351)" gradientUnits="userSpaceOnUse">
	<stop  offset="0.1354" style="stop-color:#FFFFFF"/>
	<stop  offset="0.5315" style="stop-color:#FFB629"/>
	<stop  offset="0.6823" style="stop-color:#E77E31"/>
	<stop  offset="1" style="stop-color:#D58205"/>
</radialGradient>
<path class="st36" d="M111.7,40.1c0,1-0.8,1.8-1.8,1.7c-1,0-1.7-0.8-1.7-1.8c0-1,0.8-1.8,1.8-1.7C110.9,38.4,111.7,39.2,111.7,40.1z
	"/>
<radialGradient id="SVGID_19_" cx="-317.8778" cy="1536.7104" r="1" gradientTransform="matrix(-2.0336 3.4108 3.3721 2.0105 -5753.8486 -1997.7101)" gradientUnits="userSpaceOnUse">
	<stop  offset="0.1354" style="stop-color:#FFFFFF"/>
	<stop  offset="0.5315" style="stop-color:#FFB629"/>
	<stop  offset="0.6823" style="stop-color:#E77E31"/>
	<stop  offset="1" style="stop-color:#D58205"/>
</radialGradient>
<path class="st37" d="M75.3,8.6c0,1-0.8,1.8-1.8,1.7c-1,0-1.7-0.8-1.7-1.8c0-1,0.8-1.8,1.8-1.7C74.6,6.8,75.3,7.6,75.3,8.6z"/>
<radialGradient id="SVGID_20_" cx="-573.9006" cy="1606.5863" r="1" gradientTransform="matrix(-3.6333 0.7487 0.7541 3.6592 -3211.8113 -5433.6079)" gradientUnits="userSpaceOnUse">
	<stop  offset="0.4688" style="stop-color:#FEF2CB"/>
	<stop  offset="1" style="stop-color:#D52A05"/>
</radialGradient>
<path class="st38" d="M84.8,16.4c-0.8,0.9-2.3,1.3-3.2,0.5s-1.1-2.6-0.3-3.5c0.8-0.9,2.4-1.1,3.3-0.3C85.4,13.9,85.6,15.5,84.8,16.4
	z"/>
<radialGradient id="SVGID_21_" cx="-390.4883" cy="1702.5416" r="1" gradientTransform="matrix(-2.2346 1.7996 1.7721 2.2377 -3805.491 -3089.8792)" gradientUnits="userSpaceOnUse">
	<stop  offset="0" style="stop-color:#FEF2CB"/>
	<stop  offset="0.349" style="stop-color:#F4B540"/>
	<stop  offset="1" style="stop-color:#D52A05"/>
</radialGradient>
<path class="st39" d="M84.3,13.4c0.8,0.7,0.9,1.9,0.2,2.7c-0.7,0.8-1.9,0.9-2.7,0.2c-0.8-0.7-0.9-1.9-0.2-2.7
	C82.3,12.8,83.5,12.8,84.3,13.4z"/>
<radialGradient id="SVGID_22_" cx="-537.8387" cy="1603.1571" r="1" gradientTransform="matrix(-3.6406 1.1552 1.1604 3.6571 -3715.2004 -5210.9717)" gradientUnits="userSpaceOnUse">
	<stop  offset="0.6428" style="stop-color:#FEF2CB"/>
	<stop  offset="1" style="stop-color:#D52A05"/>
</radialGradient>
<path class="st40" d="M103.7,31.3c-0.3,1.2-1.4,2.2-2.6,2c-1.2-0.3-2.2-1.8-1.9-2.9c0.3-1.2,1.6-2.1,2.7-1.8
	C103.1,28.8,103.9,30.2,103.7,31.3z"/>
<radialGradient id="SVGID_23_" cx="-633.1946" cy="1622.2788" r="1" gradientTransform="matrix(-3.3796 0.192 0.194 3.4146 -2351.8796 -5387.123)" gradientUnits="userSpaceOnUse">
	<stop  offset="0.1406" style="stop-color:#FEF2CB"/>
	<stop  offset="0.5625" style="stop-color:#F4B540"/>
	<stop  offset="1" style="stop-color:#D52A05"/>
</radialGradient>
<path class="st41" d="M103.2,31.3c-0.2,1-1.3,1.7-2.3,1.5c-1-0.2-1.7-1.3-1.4-2.3c0.2-1,1.3-1.7,2.3-1.5
	C102.8,29.2,103.5,30.2,103.2,31.3z"/>
<g>
	<path class="st29" d="M40.8,37.2l-1-1l-1.2,1.1l1,1l-1.3,1.2l-1-1L36,40c0,0.2,0.8,1.1,2.3,2.6c1,1.1,2.4,2.5,4.2,4.2
		c-0.7,0.3-1.3,0.7-1.8,0.9c-2.7-2.8-4.4-4.6-5.2-5.4c-0.8-0.9-1.3-1.6-1.6-2.3s-0.3-1.3-0.2-2c-0.8,0.5-1.4,0.8-2,1
		c0-0.6,0-1.3,0-2c1.2-0.5,2.7-1.6,4.6-3.4l1.2,1.2c-0.6,0.6-1.2,1.1-1.7,1.6c-0.3,0.6-0.5,1.1-0.4,1.7l3.2-3.1l-2.2-2.3l1.3-1.2
		l1.7,1.8l0.9-0.9l-1.4-1.5l1.3-1.2l1.4,1.5l1.3-1.3l1.3,1.3l-1.3,1.3l1.3,1.3l-1.3,1.2l-1.3-1.3l-0.9,0.9l1.4,1.5L40.8,37.2z
		 M41.6,37.4l4.4,4.6l-3.6,3.6L38,41L41.6,37.4z M42.3,43.1l1.3-1.3l-1.9-1.9l-1.3,1.3L42.3,43.1z M44.1,39.2
		c0.2-0.3,0.5-0.8,0.8-1.5c0.3,0.3,0.5,0.6,0.7,0.8c0.3,0.3,0.5,0.5,0.7,0.4c0.2,0,0.7-0.4,1.4-1.1l-1.1-1.2
		c-1.5,1.2-3.1,1.4-4.7,0.8c0.1-0.4,0.2-1,0.3-1.7c1.1,0.4,2.1,0.3,3.1-0.4l-1.1-1.2l1.2-1.1l4.9,5.1c-1.5,1.3-2.4,2.1-2.7,2.3
		c-0.3,0.2-0.6,0.4-1,0.4c-0.3,0-0.7-0.1-1-0.3C45.4,40.4,44.9,40,44.1,39.2z"/>
	<path class="st29" d="M53.2,40.3l1,1.7c-1.1,0.5-2.2,1-3.3,1.5l-7.5,7.3l-1.3-1.3l4.8-4.7c-0.5,0.1-1,0.3-1.6,0.4
		c0.5-0.6,1-1.4,1.6-2.2C48.9,42.4,51,41.5,53.2,40.3z M45.1,49.8l0.8,0.8l6.2-6l2.4,2.4l0.6-0.6l-2.6-2.7l1.2-1.1l2.6,2.7l0.8-0.8
		l1.3,1.4l-0.8,0.8l2.9,3l-1.2,1.1l-2.9-3l-0.6,0.6l2.4,2.5l-6.2,6l0.7,0.7l-1.2,1.1L44,51L45.1,49.8z M47.2,51.9l3.6,3.7l0.5-0.5
		l-3.6-3.7L47.2,51.9z M48.7,50.4l3.6,3.7l0.5-0.5l-3.6-3.7L48.7,50.4z M50.3,48.9l3.6,3.7l0.5-0.5l-3.6-3.7L50.3,48.9z M55.9,50.6
		l-3.6-3.7l-0.5,0.5l3.6,3.7L55.9,50.6z"/>
	<path class="st29" d="M64.9,57c-0.2-0.6-0.5-1.2-1-1.7c-0.6-0.6-1.3-0.9-2.2-0.8s-1.7,0.5-2.4,1.3l0,0c1-0.2,1.8,0.1,2.6,0.9
		c0.7,0.7,1,1.4,0.9,2.3c-0.1,0.9-0.5,1.6-1.2,2.4c-0.8,0.8-1.7,1.2-2.8,1.2c-1,0-1.9-0.4-2.7-1.2c-0.9-0.9-1.3-2-1.1-3.1
		c0.2-1.1,0.9-2.3,2-3.4c1.4-1.3,2.8-2.1,4.3-2.3c1.5-0.2,2.8,0.3,3.9,1.4c0.6,0.6,1,1.2,1.2,1.7L64.9,57z M57.8,57.5
		c-0.4,0.4-0.7,0.9-0.8,1.3c-0.1,0.5,0,0.9,0.4,1.3c0.3,0.3,0.7,0.5,1.2,0.4c0.5-0.1,0.9-0.3,1.3-0.7c0.9-0.9,1-1.7,0.3-2.4
		c-0.3-0.3-0.7-0.5-1.2-0.5C58.5,56.9,58.1,57.1,57.8,57.5z"/>
	<path class="st29" d="M60.5,64.2c0.3-0.3,0.6-0.4,0.9-0.3c0.4,0,0.7,0.2,0.9,0.5c0.3,0.3,0.4,0.6,0.4,1c0,0.4-0.1,0.7-0.4,0.9
		c-0.3,0.3-0.6,0.4-0.9,0.3c-0.4,0-0.7-0.2-1-0.5c-0.3-0.3-0.4-0.6-0.4-0.9C60.2,64.7,60.3,64.4,60.5,64.2z"/>
	<path class="st29" d="M63.3,68.1l1.5-1.4c0.2,0.9,0.6,1.7,1.2,2.3c0.5,0.5,0.9,0.7,1.4,0.8c0.5,0,0.9-0.1,1.3-0.5
		c0.8-0.8,0.7-1.8-0.4-2.9c-0.4-0.4-0.9-0.9-1.5-1.4l4.8-4l4.2,4.3l-1.4,1.3l-2.8-2.9l-1.8,1.5c0.3,0.3,0.6,0.5,0.8,0.8
		c0.8,0.8,1.2,1.6,1.2,2.5c0,0.9-0.3,1.7-1.1,2.4c-0.8,0.8-1.7,1.2-2.8,1.1c-1.1,0-2-0.5-3-1.5C64.1,69.6,63.6,68.9,63.3,68.1z"/>
	<path class="st29" d="M75.9,67.4l1.1,1.1l1.8-1.7l1.4,1.4l-1.8,1.7l1,1.1l-1.3,1.3l-1-1.1l-1.6,1.6l1.4,1c-0.1,0.1-0.6,0.5-1.5,1.2
		L74,74.2l-2.7,2.6c-0.4,0.4-0.8,0.6-1.2,0.7c-0.4,0.1-0.8-0.1-1.2-0.5c-0.4-0.4-0.8-0.7-1.2-1.1c0.3-0.5,0.7-1,1.1-1.6l0.7,0.8
		c0.2,0.2,0.5,0.2,0.8-0.1l1.9-1.9l-1.3-0.9l1.4-1.5c0.4,0.3,0.8,0.7,1.3,1l1.9-1.8l-1.1-1.1L75.9,67.4z M87,75.5l-1,1.8
		c-1.2-0.9-2.9-2.3-5.1-4.2l-1.6,1.6l4.7,4.8l-1.3,1.3l-1.5-1.5l-5.2,5l-1.4-1.4l5.2-5L78,76L78,76c-2.2,2.1-4.4,3.4-6.6,3.6
		c0.1-0.7,0.1-1.5,0.1-2.3c1.6-0.1,3.4-1.2,5.4-3.1l4-3.9C82.9,72.3,84.9,74,87,75.5z"/>
</g>
</svg>
