<svg width="219" height="113" viewBox="0 0 219 113" fill="none" xmlns="http://www.w3.org/2000/svg">
<g clip-path="url(#clip0)">
<rect width="238" height="111" rx="7" transform="matrix(-1 0 0 1 218.773 2.80566)" fill="url(#paint0_linear)"/>
<rect width="225" height="90" rx="5" transform="matrix(-1 0 0 1 216 20)" fill="white"/>
<path fill-rule="evenodd" clip-rule="evenodd" d="M211.773 0.805664C214.535 0.805664 216.773 3.04424 216.773 5.80566V105.806C216.773 108.567 214.535 110.806 211.773 110.806H-28.2266C-30.988 110.806 -33.2266 108.567 -33.2266 105.806V5.80566C-33.2266 3.04424 -30.988 0.805664 -28.2266 0.805664H211.773ZM-28.2266 19.8057V105.806H211.773V19.8057H-28.2266Z" fill="url(#paint1_linear)"/>
</g>
<defs>
<linearGradient id="paint0_linear" x1="126.796" y1="-7.07901" x2="126.796" y2="111" gradientUnits="userSpaceOnUse">
<stop stop-color="#5496AE"/>
<stop offset="1" stop-color="#3D4493" stop-opacity="0.72"/>
</linearGradient>
<linearGradient id="paint1_linear" x1="68.0234" y1="0.805664" x2="68.1631" y2="19.9777" gradientUnits="userSpaceOnUse">
<stop offset="0.154696" stop-color="#1BC4FA"/>
<stop offset="0.657459" stop-color="#3196D4"/>
</linearGradient>
<clipPath id="clip0">
<rect width="218" height="112" fill="white" transform="translate(0.773438 0.805664)"/>
</clipPath>
</defs>
</svg>
