<?xml version="1.0" encoding="utf-8"?>
<!-- Generator: Adobe Illustrator 23.1.0, SVG Export Plug-In . SVG Version: 6.00 Build 0)  -->
<svg version="1.1" id="图层_1" xmlns="http://www.w3.org/2000/svg" xmlns:xlink="http://www.w3.org/1999/xlink" x="0px" y="0px"
	 viewBox="0 0 122 36" style="enable-background:new 0 0 122 36;" xml:space="preserve">
<style type="text/css">
	.st0{enable-background:new    ;}
	.st1{fill:#394864;}
</style>
<g class="st0">
	<path class="st1" d="M35.71,10.29l-4.19,7.17h2.97v2.16h-3.67v1.64h3.67v2.18h-3.67v2.99H27.5v-2.99h-3.79v-2.18h3.79v-1.64h-3.79
		v-2.16h3.05l-4.08-7.17h3.54c1.61,3.32,2.62,5.51,3.04,6.57h0.07c0.06-0.15,0.12-0.34,0.2-0.57c0.13-0.37,0.63-1.45,1.5-3.25
		l1.3-2.74H35.71z"/>
	<path class="st1" d="M41.41,22.91c1.08,0.81,2.33,1.21,3.77,1.21c0.91,0,1.63-0.2,2.17-0.6c0.54-0.4,0.8-0.98,0.8-1.72
		c0-0.76-0.32-1.35-0.95-1.75c-0.64-0.4-1.53-0.61-2.67-0.61h-1.44v-2.6h1.32c2.17,0,3.25-0.73,3.25-2.19
		c0-1.38-0.83-2.06-2.49-2.06c-1.08,0-2.14,0.35-3.16,1.06v-2.78c1.11-0.58,2.42-0.87,3.93-0.87c1.53,0,2.77,0.35,3.72,1.06
		c0.95,0.71,1.43,1.68,1.43,2.93c0,2.11-1.07,3.44-3.21,3.98v0.05c1.13,0.13,2.03,0.54,2.7,1.24c0.67,0.7,1.01,1.55,1.01,2.55
		c0,1.54-0.56,2.73-1.68,3.6c-1.12,0.86-2.62,1.29-4.49,1.29c-1.66,0-3-0.28-4.01-0.82V22.91z"/>
	<path class="st1" d="M54.74,23.29c0.86,0.56,1.88,0.83,3.04,0.83c2.61,0,3.94-1.7,3.99-5.09l-0.06-0.02
		c-0.71,1.09-1.8,1.64-3.28,1.64c-1.34,0-2.44-0.47-3.31-1.41c-0.87-0.94-1.3-2.13-1.3-3.56c0-1.68,0.52-3.05,1.56-4.1
		c1.04-1.05,2.4-1.57,4.08-1.57c1.74,0,3.11,0.66,4.11,1.99c0.99,1.33,1.49,3.18,1.49,5.56c0,2.82-0.6,5.05-1.8,6.69
		c-1.2,1.64-2.92,2.46-5.18,2.46c-1.27,0-2.39-0.21-3.35-0.62V23.29z M57.13,15.37c0,0.85,0.21,1.53,0.62,2.01
		c0.41,0.49,0.98,0.73,1.69,0.73c0.64,0,1.17-0.23,1.58-0.7c0.41-0.47,0.62-1.04,0.62-1.73c0-0.83-0.21-1.55-0.62-2.17
		c-0.41-0.62-0.97-0.93-1.66-0.93c-0.67,0-1.21,0.27-1.62,0.8C57.33,13.93,57.13,14.59,57.13,15.37z"/>
	<path class="st1" d="M76.43,10.28L68.58,29.1h-3.01l7.82-18.82H76.43z"/>
	<path class="st1" d="M79.64,29.31c-0.92-0.82-1.82-1.58-2.71-2.29c1.24-1.26,2.03-2.5,2.36-3.72c0.33-1.22,0.5-3.07,0.5-5.56V9.63
		h15.34V25.2c0,1.22-0.26,2.14-0.77,2.77c-0.51,0.63-1.23,0.98-2.14,1.03c-0.91,0.06-2.44,0.07-4.59,0.05
		c-0.21-1.08-0.48-2.15-0.81-3.21c1.38,0.08,2.58,0.13,3.61,0.13c1.08,0,1.63-0.51,1.63-1.52v-1.5h-9.37c-0.17,1.53-0.5,2.75-1,3.66
		C81.18,27.52,80.5,28.42,79.64,29.31z M82.84,20.14h9.2V17.7h-9.17C82.87,18.1,82.86,18.91,82.84,20.14z M92.05,12.44h-9.17v2.44
		h9.17V12.44z"/>
</g>
</svg>
