<?xml version="1.0" encoding="utf-8"?>
<!-- Generator: Adobe Illustrator 23.1.0, SVG Export Plug-In . SVG Version: 6.00 Build 0)  -->
<svg version="1.1" id="图层_1" xmlns="http://www.w3.org/2000/svg" xmlns:xlink="http://www.w3.org/1999/xlink" x="0px" y="0px"
	 viewBox="0 0 122 36" style="enable-background:new 0 0 122 36;" xml:space="preserve">
<style type="text/css">
	.st0{enable-background:new    ;}
	.st1{fill:#394864;}
</style>
<g class="st0">
	<path class="st1" d="M35.44,10.29l-4.19,7.17h2.97v2.16h-3.67v1.64h3.67v2.18h-3.67v2.99h-3.31v-2.99h-3.79v-2.18h3.79v-1.64h-3.79
		v-2.16h3.05l-4.08-7.17h3.54c1.61,3.32,2.62,5.51,3.04,6.57h0.07c0.06-0.15,0.12-0.34,0.2-0.57c0.13-0.37,0.63-1.45,1.5-3.25
		l1.3-2.74H35.44z"/>
	<path class="st1" d="M41.31,23.29c0.86,0.56,1.88,0.83,3.04,0.83c2.61,0,3.94-1.7,3.99-5.09l-0.06-0.02
		c-0.71,1.09-1.8,1.64-3.28,1.64c-1.34,0-2.44-0.47-3.31-1.41c-0.87-0.94-1.3-2.13-1.3-3.56c0-1.68,0.52-3.05,1.56-4.1
		c1.04-1.05,2.4-1.57,4.08-1.57c1.74,0,3.11,0.66,4.11,1.99s1.49,3.18,1.49,5.56c0,2.82-0.6,5.05-1.8,6.69
		c-1.2,1.64-2.92,2.46-5.18,2.46c-1.27,0-2.39-0.21-3.35-0.62V23.29z M43.7,15.37c0,0.85,0.21,1.53,0.62,2.01
		c0.41,0.49,0.98,0.73,1.69,0.73c0.64,0,1.17-0.23,1.58-0.7c0.41-0.47,0.62-1.04,0.62-1.73c0-0.83-0.21-1.55-0.62-2.17
		c-0.41-0.62-0.97-0.93-1.66-0.93c-0.67,0-1.21,0.27-1.62,0.8C43.9,13.93,43.7,14.59,43.7,15.37z"/>
	<path class="st1" d="M54.48,23.29c0.86,0.56,1.88,0.83,3.04,0.83c2.61,0,3.94-1.7,3.99-5.09l-0.06-0.02
		c-0.71,1.09-1.8,1.64-3.28,1.64c-1.34,0-2.44-0.47-3.31-1.41c-0.87-0.94-1.3-2.13-1.3-3.56c0-1.68,0.52-3.05,1.56-4.1
		c1.04-1.05,2.4-1.57,4.08-1.57c1.74,0,3.11,0.66,4.11,1.99c0.99,1.33,1.49,3.18,1.49,5.56c0,2.82-0.6,5.05-1.8,6.69
		c-1.2,1.64-2.92,2.46-5.18,2.46c-1.27,0-2.39-0.21-3.35-0.62V23.29z M56.87,15.37c0,0.85,0.21,1.53,0.62,2.01
		c0.41,0.49,0.98,0.73,1.69,0.73c0.64,0,1.17-0.23,1.58-0.7c0.41-0.47,0.62-1.04,0.62-1.73c0-0.83-0.21-1.55-0.62-2.17
		c-0.41-0.62-0.97-0.93-1.66-0.93c-0.67,0-1.21,0.27-1.62,0.8C57.07,13.93,56.87,14.59,56.87,15.37z"/>
	<path class="st1" d="M76.17,10.28L68.32,29.1h-3.01l7.82-18.82H76.17z"/>
	<path class="st1" d="M76.36,22.79h9.07v-0.54l2.48-1.29h-7.5v-1.42c-0.98,0.5-2.05,0.98-3.21,1.44c-0.21-0.72-0.53-1.55-0.96-2.48
		c2.74-0.79,4.97-1.79,6.69-3.02h-6.25v-2.13h8.63v-1.48l-7.15,0.17c-0.11-0.69-0.25-1.43-0.42-2.21c5.91-0.07,11.67-0.23,17.3-0.48
		c0.01,0.04,0.15,0.8,0.42,2.27l-7.46,0.19v1.54h8.53v2.13h-6.46c1.82,1.35,4.13,2.29,6.92,2.81c-0.38,0.97-0.67,1.83-0.9,2.56
		c-1.3-0.39-2.5-0.85-3.59-1.4v1.52l-3.54,1.81h7.86v2.29h-8.46v1.29c0,0.88-0.23,1.55-0.68,2c-0.45,0.45-1.06,0.69-1.83,0.71
		c-0.77,0.03-2,0.04-3.7,0.04c-0.22-1-0.47-1.88-0.75-2.63c0.79,0.04,1.7,0.06,2.73,0.06c0.88,0,1.31-0.44,1.31-1.31v-0.17h-9.07
		V22.79z M87.99,16.15v2.1H85.3v-2.08c-0.98,0.95-2.19,1.85-3.64,2.69h9.72C90.09,18.07,88.96,17.17,87.99,16.15z"/>
</g>
</svg>
