<?xml version="1.0" encoding="utf-8"?>
<!-- Generator: Adobe Illustrator 23.1.0, SVG Export Plug-In . SVG Version: 6.00 Build 0)  -->
<svg version="1.1" id="图层_1" xmlns="http://www.w3.org/2000/svg" xmlns:xlink="http://www.w3.org/1999/xlink" x="0px" y="0px"
	 viewBox="0 0 254 51" style="enable-background:new 0 0 254 51;" xml:space="preserve">
<style type="text/css">
	.st0{fill:url(#SVGID_1_);}
	.st1{fill:url(#SVGID_2_);}
	.st2{fill:url(#SVGID_3_);}
	.st3{fill:url(#SVGID_4_);}
	.st4{fill:url(#SVGID_5_);}
	.st5{fill:url(#SVGID_6_);}
	.st6{fill:url(#SVGID_7_);}
	.st7{fill:#FFFFFF;}
</style>
<linearGradient id="SVGID_1_" gradientUnits="userSpaceOnUse" x1="126.4834" y1="47.2944" x2="126.4834" y2="7.1362" gradientTransform="matrix(1 0 0 -1 0 52)">
	<stop  offset="0" style="stop-color:#EA7523"/>
	<stop  offset="1" style="stop-color:#C7681F"/>
</linearGradient>
<path class="st0" d="M5.3,24.2C5.9,14,14.3,6,24.5,6l202.7-1.3c10.6-0.1,19.4,7.9,20.5,18.4c1.2,12.1-8.3,22.6-20.5,22.5l-202.7-1
	C13.4,44.6,4.6,35.2,5.3,24.2z"/>
<linearGradient id="SVGID_2_" gradientUnits="userSpaceOnUse" x1="126.7576" y1="46.0287" x2="125.6946" y2="8.4213" gradientTransform="matrix(1 0 0 -1 0 52)">
	<stop  offset="0.1354" style="stop-color:#FDE44A"/>
	<stop  offset="0.7445" style="stop-color:#FF6D03"/>
</linearGradient>
<path class="st1" d="M7.4,24C8,14.7,15.7,7.5,24.9,7.5L226.2,6c9.3-0.1,17.2,6.7,18.6,15.9c1.7,11.3-7.1,21.5-18.5,21.5L25,42.8
	C14.8,42.8,6.7,34.2,7.4,24z"/>
<radialGradient id="SVGID_3_" cx="-394.5343" cy="1248.8191" r="1" gradientTransform="matrix(-7.1263 24.1911 150.1065 44.2186 -190131.2813 -45658.75)" gradientUnits="userSpaceOnUse">
	<stop  offset="0.1713" style="stop-color:#FACC28"/>
	<stop  offset="1" style="stop-color:#FA8F11"/>
</radialGradient>
<path class="st2" d="M8.8,24c0.4-8.8,7.6-15.7,16.4-15.8l201.1-0.5c7.8,0,14.4,5.4,16,13c2,10-5.6,19.4-15.9,19.5L25.3,41.1
	C15.9,41.1,8.4,33.3,8.8,24z"/>
<g>
	<linearGradient id="SVGID_4_" gradientUnits="userSpaceOnUse" x1="71.2715" y1="24.3994" x2="87.4199" y2="24.3994">
		<stop  offset="0" style="stop-color:#DF7F35"/>
		<stop  offset="1" style="stop-color:#FC8D3F"/>
	</linearGradient>
	<path class="st3" d="M71.3,30.1h8.3c1.3-2.6,2.5-5.3,3.5-8.2l2.4,0.8c-1,2.5-2.2,4.9-3.4,7.4h5.2v2.2H71.3V30.1z M71.7,19.5h6.8
		c-0.3-0.6-0.7-1.3-1.2-1.9l2.3-1c0.6,0.8,1.1,1.6,1.5,2.4L80,19.5h7.1v2.2H71.7V19.5z M75.4,21.9c1.1,2.5,2.1,4.8,2.9,7l-2.4,0.9
		c-0.8-2.4-1.7-4.8-2.7-7.1L75.4,21.9z"/>
	<linearGradient id="SVGID_5_" gradientUnits="userSpaceOnUse" x1="103.5186" y1="25.0586" x2="118.6772" y2="25.0586">
		<stop  offset="0" style="stop-color:#DF7F35"/>
		<stop  offset="1" style="stop-color:#FC8D3F"/>
	</linearGradient>
	<path class="st4" d="M112,30.5l-1.9,1.1l-0.6-1.2c-2.3,0.8-3.9,1.5-4.9,2l-1.1-1.7c0.4-0.4,0.5-1,0.5-1.7V17.3h7.3v8.9h-1.8
		C110.4,27.6,111.2,29.1,112,30.5z M109.2,19.3h-3v1.5h3V19.3z M109.2,24.1v-1.5h-3v1.5H109.2z M107.7,27l1.5-0.8h-3v3.4l2.4-0.9
		L107.7,27z M112.2,17.7h6.5V28c0,0.8-0.1,1.3-0.4,1.7c-0.3,0.4-0.7,0.6-1.2,0.6c-0.5,0-1.3,0-2.3,0c-0.1-0.9-0.2-1.6-0.3-2.2
		c0.6,0.1,1.2,0.1,1.6,0.1c0.4,0,0.6-0.2,0.6-0.7v-7.7h-2.2v13h-2.1V17.7z"/>
	<linearGradient id="SVGID_6_" gradientUnits="userSpaceOnUse" x1="134.9912" y1="24.7622" x2="150.8594" y2="24.7622">
		<stop  offset="0" style="stop-color:#DF7F35"/>
		<stop  offset="1" style="stop-color:#FC8D3F"/>
	</linearGradient>
	<path class="st5" d="M138.1,20h1.6v5.7c0,0.6,0,1.1-0.1,1.6c0.9,0.9,2,2.1,3.3,3.6l-1.5,1.5c-0.7-1-1.5-2-2.3-3.1
		c-0.6,1.4-1.5,2.5-2.9,3.6c-0.3-0.5-0.7-1-1.2-1.7c2.1-1.3,3.1-3.2,3.1-5.5V20z M143.9,16.6l2,0.3c-0.2,0.7-0.4,1.3-0.6,1.9h5.6
		l0,6.3l0,4.4c0,0.9-0.2,1.6-0.5,2.1c-0.3,0.5-0.8,0.8-1.3,0.8s-1.8,0.1-3.7,0.2c-0.1-0.7-0.3-1.4-0.5-2.2c1.6,0,2.5,0.1,2.9,0.1
		c0.8,0,1.2-0.5,1.2-1.4v-0.3l-1.2,0.4l-0.3-0.9c-2.4,0.2-3.9,0.4-4.4,0.6l-0.7-1.4h-1.7v-8.3h-3.1v8.4h-1.7V17.4h6.5V21
		C142.9,19.7,143.4,18.3,143.9,16.6z M147.5,23.7c0.4,1,0.8,2.1,1.2,3.3c0-1.6,0-3.6,0-6.1h-4.3c-0.5,1-0.9,1.9-1.5,2.6
		c-0.3-0.3-0.6-0.6-0.8-0.9v4.2c0.7-0.6,1.5-2.3,2.5-5.1l1.9,0.6c-0.8,1.8-1.4,3.2-2,4.3l2.1-0.2c-0.3-0.8-0.5-1.6-0.8-2.3
		L147.5,23.7z"/>
	<linearGradient id="SVGID_7_" gradientUnits="userSpaceOnUse" x1="167.2207" y1="25.3057" x2="183.3691" y2="25.3057">
		<stop  offset="0" style="stop-color:#DF7F35"/>
		<stop  offset="1" style="stop-color:#FC8D3F"/>
	</linearGradient>
	<path class="st6" d="M167.2,26h4.3c-1.1-0.7-2.3-1.4-3.6-2.1l1.2-1.8c1.5,0.8,2.8,1.5,4.1,2.3l-1,1.6h3c0.4-1.4,0.6-3.5,0.5-6.1
		h2.3c0,2.5-0.1,4.5-0.5,6.1h5.7v2.1h-6.4c2.1,0.9,4.3,1.8,6.6,2.9l-1.1,2c-2.1-1.1-4.4-2.1-6.7-3.2c-1.4,1.3-3.6,2.4-6.8,3.2
		c-0.5-0.8-0.9-1.6-1.4-2.3c3.4-0.5,5.6-1.4,6.6-2.6h-6.8V26z M179.3,22.6c0.4-1,0.7-2,1.1-3h-8.9c1.1,0.5,2.2,1.1,3.3,1.7l-1.2,1.9
		c-1.3-0.8-2.6-1.5-3.8-2.2l0.9-1.5h-2.9v-2h14.9v1.8c-0.5,1.4-0.9,2.7-1.3,3.9C180.7,23,180,22.7,179.3,22.6z"/>
</g>
<g>
	<path class="st7" d="M71.3,29.1h8.3c1.3-2.6,2.5-5.3,3.5-8.2l2.4,0.8c-1,2.5-2.2,4.9-3.4,7.4h5.2v2.2H71.3V29.1z M71.7,18.5h6.8
		c-0.3-0.6-0.7-1.3-1.2-1.9l2.3-1c0.6,0.8,1.1,1.6,1.5,2.4L80,18.5h7.1v2.2H71.7V18.5z M75.4,21c1.1,2.5,2.1,4.8,2.9,7l-2.4,0.9
		c-0.8-2.4-1.7-4.8-2.7-7.1L75.4,21z"/>
	<path class="st7" d="M112,29.6l-1.9,1.1l-0.6-1.2c-2.3,0.8-3.9,1.5-4.9,2l-1.1-1.7c0.4-0.4,0.5-1,0.5-1.7V16.4h7.3v8.9h-1.8
		C110.4,26.7,111.2,28.1,112,29.6z M109.2,18.4h-3v1.5h3V18.4z M109.2,23.2v-1.5h-3v1.5H109.2z M107.7,26l1.5-0.8h-3v3.4l2.4-0.9
		L107.7,26z M112.2,16.7h6.5V27c0,0.8-0.1,1.3-0.4,1.7c-0.3,0.4-0.7,0.6-1.2,0.6c-0.5,0-1.3,0-2.3,0c-0.1-0.9-0.2-1.6-0.3-2.2
		c0.6,0.1,1.2,0.1,1.6,0.1c0.4,0,0.6-0.2,0.6-0.7v-7.7h-2.2v13h-2.1V16.7z"/>
	<path class="st7" d="M138.1,19h1.6v5.7c0,0.6,0,1.1-0.1,1.6c0.9,0.9,2,2.1,3.3,3.6l-1.5,1.5c-0.7-1-1.5-2-2.3-3.1
		c-0.6,1.4-1.5,2.5-2.9,3.6c-0.3-0.5-0.7-1-1.2-1.7c2.1-1.3,3.1-3.2,3.1-5.5V19z M143.9,15.7l2,0.3c-0.2,0.7-0.4,1.3-0.6,1.9h5.6
		l0,6.3l0,4.4c0,0.9-0.2,1.6-0.5,2.1c-0.3,0.5-0.8,0.8-1.3,0.8s-1.8,0.1-3.7,0.2c-0.1-0.7-0.3-1.4-0.5-2.2c1.6,0,2.5,0.1,2.9,0.1
		c0.8,0,1.2-0.5,1.2-1.4v-0.3l-1.2,0.4l-0.3-0.9c-2.4,0.2-3.9,0.4-4.4,0.6l-0.7-1.4h-1.7v-8.3h-3.1v8.4h-1.7V16.5h6.5V20
		C142.9,18.8,143.4,17.3,143.9,15.7z M147.5,22.7c0.4,1,0.8,2.1,1.2,3.3c0-1.6,0-3.6,0-6.1h-4.3c-0.5,1-0.9,1.9-1.5,2.6
		c-0.3-0.3-0.6-0.6-0.8-0.9v4.2c0.7-0.6,1.5-2.3,2.5-5.1l1.9,0.6c-0.8,1.8-1.4,3.2-2,4.3l2.1-0.2c-0.3-0.8-0.5-1.6-0.8-2.3
		L147.5,22.7z"/>
	<path class="st7" d="M167.2,25.1h4.3c-1.1-0.7-2.3-1.4-3.6-2.1l1.2-1.8c1.5,0.8,2.8,1.5,4.1,2.3l-1,1.6h3c0.4-1.4,0.6-3.5,0.5-6.1
		h2.3c0,2.5-0.1,4.5-0.5,6.1h5.7v2.1h-6.4c2.1,0.9,4.3,1.8,6.6,2.9l-1.1,2c-2.1-1.1-4.4-2.1-6.7-3.2c-1.4,1.3-3.6,2.4-6.8,3.2
		c-0.5-0.8-0.9-1.6-1.4-2.3c3.4-0.5,5.6-1.4,6.6-2.6h-6.8V25.1z M179.3,21.6c0.4-1,0.7-2,1.1-3h-8.9c1.1,0.5,2.2,1.1,3.3,1.7
		l-1.2,1.9c-1.3-0.8-2.6-1.5-3.8-2.2l0.9-1.5h-2.9v-2h14.9v1.8c-0.5,1.4-0.9,2.7-1.3,3.9C180.7,22,180,21.8,179.3,21.6z"/>
</g>
</svg>
