<?xml version="1.0" encoding="utf-8"?>
<!-- Generator: Adobe Illustrator 23.1.0, SVG Export Plug-In . SVG Version: 6.00 Build 0)  -->
<svg version="1.1" id="图层_1" xmlns="http://www.w3.org/2000/svg" xmlns:xlink="http://www.w3.org/1999/xlink" x="0px" y="0px"
	 viewBox="0 0 102 35" style="enable-background:new 0 0 102 35;" xml:space="preserve">
<style type="text/css">
	.st0{fill:url(#SVGID_1_);}
	.st1{fill:url(#SVGID_2_);}
	.st2{fill:url(#SVGID_3_);}
	.st3{fill:#0E79A8;}
	.st4{fill:#FFFFFF;}
</style>
<linearGradient id="SVGID_1_" gradientUnits="userSpaceOnUse" x1="50.3676" y1="35.4699" x2="50.3676" y2="5.2416" gradientTransform="matrix(1 0 0 -1 0 36)">
	<stop  offset="0" style="stop-color:#5496AE"/>
	<stop  offset="1" style="stop-color:#3D4493"/>
</linearGradient>
<path class="st0" d="M4.3,16c0.4-6.9,6-12.4,13-12.5l65-1c7.4-0.1,13.6,5.6,14.2,13c0.6,8.2-5.9,15.2-14.1,15.1l-65-0.7
	C9.8,29.9,3.8,23.5,4.3,16z"/>
<linearGradient id="SVGID_2_" gradientUnits="userSpaceOnUse" x1="50.7836" y1="33.132" x2="50.0381" y2="6.2295" gradientTransform="matrix(1 0 0 -1 0 36)">
	<stop  offset="0.1547" style="stop-color:#64E0F1"/>
	<stop  offset="0.6575" style="stop-color:#3196D4"/>
</linearGradient>
<path class="st1" d="M4.9,16.3c0.2-6.7,5.7-12,12.4-12.1l65.1-0.9c7-0.1,12.9,5.3,13.4,12.3c0.5,7.6-5.6,14.1-13.3,14.1l-65.2-0.3
	C10.3,29.3,4.7,23.4,4.9,16.3z"/>
<radialGradient id="SVGID_3_" cx="-498.8695" cy="1262.9568" r="1" gradientTransform="matrix(-21.969 17.2376 28.8423 36.7588 -47325.5547 -37815.8203)" gradientUnits="userSpaceOnUse">
	<stop  offset="0" style="stop-color:#45D4E2"/>
	<stop  offset="0.674" style="stop-color:#16B4E2"/>
</radialGradient>
<path class="st2" d="M6.2,16.2C6.4,9.9,11.5,4.9,17.8,4.8l64.6-0.3c5.9,0,10.9,4.4,11.5,10.3c0.7,6.8-4.6,12.7-11.4,12.7l-64.6,0.5
	C11.4,28.1,6.1,22.7,6.2,16.2z"/>
<g>
	<path class="st3" d="M35.2,13.2h1.1v4.1c0,0.4,0,0.8-0.1,1.1c0.6,0.6,1.4,1.5,2.3,2.5l-1.1,1c-0.5-0.7-1-1.4-1.7-2.2
		c-0.4,1-1.1,1.8-2,2.5c-0.2-0.3-0.5-0.7-0.8-1.2c1.5-0.9,2.2-2.2,2.2-3.9V13.2z M39.3,10.8l1.4,0.2c-0.1,0.5-0.3,0.9-0.4,1.4h4
		l0,4.5l0,3.1c0,0.6-0.1,1.1-0.4,1.5c-0.2,0.3-0.5,0.5-0.9,0.6c-0.4,0.1-1.2,0.1-2.6,0.1c-0.1-0.5-0.2-1-0.4-1.6c1.1,0,1.8,0,2,0
		c0.6,0,0.9-0.3,0.9-1v-0.2l-0.9,0.3l-0.2-0.6c-1.7,0.1-2.8,0.3-3.1,0.4l-0.5-1h-1.2v-5.9h-2.2v5.9h-1.2v-7.3h4.6v2.5
		C38.6,13,39,11.9,39.3,10.8z M41.9,15.8c0.3,0.7,0.6,1.5,0.9,2.3c0-1.1,0-2.5,0-4.3h-3.1c-0.3,0.7-0.7,1.3-1,1.9
		c-0.2-0.2-0.4-0.4-0.6-0.6v3c0.5-0.4,1.1-1.6,1.7-3.6l1.3,0.4c-0.6,1.3-1,2.3-1.4,3.1l1.5-0.1c-0.2-0.6-0.4-1.1-0.6-1.6L41.9,15.8z
		"/>
	<path class="st3" d="M55.8,17.4h3c-0.8-0.5-1.6-1-2.5-1.5l0.9-1.3c1,0.5,2,1.1,2.9,1.6l-0.7,1.2h2.1c0.3-1,0.4-2.4,0.4-4.3h1.6
		c0,1.8-0.1,3.2-0.3,4.3h4v1.5h-4.5c1.5,0.6,3,1.3,4.6,2.1l-0.8,1.4c-1.5-0.8-3.1-1.5-4.8-2.2c-1,0.9-2.6,1.7-4.8,2.2
		c-0.3-0.6-0.6-1.1-1-1.6c2.4-0.4,4-1,4.7-1.9h-4.8V17.4z M64.3,15c0.3-0.7,0.5-1.4,0.8-2.1h-6.3c0.8,0.4,1.5,0.8,2.4,1.2l-0.8,1.4
		c-0.9-0.6-1.8-1.1-2.7-1.5l0.7-1h-2.1v-1.4h10.5v1.3c-0.3,1-0.6,1.9-0.9,2.7C65.3,15.3,64.8,15.1,64.3,15z"/>
</g>
<g>
	<path class="st4" d="M35.2,12.5h1.1v4.1c0,0.4,0,0.8-0.1,1.1c0.6,0.6,1.4,1.5,2.3,2.5l-1.1,1c-0.5-0.7-1-1.4-1.7-2.2
		c-0.4,1-1.1,1.8-2,2.5c-0.2-0.3-0.5-0.7-0.8-1.2c1.5-0.9,2.2-2.2,2.2-3.9V12.5z M39.3,10.1l1.4,0.2c-0.1,0.5-0.3,0.9-0.4,1.4h4
		l0,4.5l0,3.1c0,0.6-0.1,1.1-0.4,1.5c-0.2,0.3-0.5,0.5-0.9,0.6c-0.4,0.1-1.2,0.1-2.6,0.1c-0.1-0.5-0.2-1-0.4-1.6c1.1,0,1.8,0,2,0
		c0.6,0,0.9-0.3,0.9-1v-0.2l-0.9,0.3l-0.2-0.6c-1.7,0.1-2.8,0.3-3.1,0.4l-0.5-1h-1.2V12h-2.2V18h-1.2v-7.3h4.6v2.5
		C38.6,12.3,39,11.3,39.3,10.1z M41.9,15.1c0.3,0.7,0.6,1.5,0.9,2.3c0-1.1,0-2.5,0-4.3h-3.1c-0.3,0.7-0.7,1.3-1,1.9
		c-0.2-0.2-0.4-0.4-0.6-0.6v3c0.5-0.4,1.1-1.6,1.7-3.6l1.3,0.4c-0.6,1.3-1,2.3-1.4,3.1l1.5-0.1c-0.2-0.6-0.4-1.1-0.6-1.6L41.9,15.1z
		"/>
	<path class="st4" d="M55.8,16.8h3c-0.8-0.5-1.6-1-2.5-1.5l0.9-1.3c1,0.5,2,1.1,2.9,1.6l-0.7,1.2h2.1c0.3-1,0.4-2.4,0.4-4.3h1.6
		c0,1.8-0.1,3.2-0.3,4.3h4v1.5h-4.5c1.5,0.6,3,1.3,4.6,2.1l-0.8,1.4c-1.5-0.8-3.1-1.5-4.8-2.2c-1,0.9-2.6,1.7-4.8,2.2
		c-0.3-0.6-0.6-1.1-1-1.6c2.4-0.4,4-1,4.7-1.9h-4.8V16.8z M64.3,14.4c0.3-0.7,0.5-1.4,0.8-2.1h-6.3c0.8,0.4,1.5,0.8,2.4,1.2
		l-0.8,1.4c-0.9-0.6-1.8-1.1-2.7-1.5l0.7-1h-2.1v-1.4h10.5v1.3c-0.3,1-0.6,1.9-0.9,2.7C65.3,14.6,64.8,14.5,64.3,14.4z"/>
</g>
</svg>
