<?xml version="1.0" encoding="utf-8"?>
<!-- Generator: Adobe Illustrator 23.1.0, SVG Export Plug-In . SVG Version: 6.00 Build 0)  -->
<svg version="1.1" id="图层_1" xmlns="http://www.w3.org/2000/svg" xmlns:xlink="http://www.w3.org/1999/xlink" x="0px" y="0px"
	 viewBox="0 0 271.8 124.2" style="enable-background:new 0 0 271.8 124.2;" xml:space="preserve">
<style type="text/css">
	.st0{opacity:0.2;fill:#64DFFA;enable-background:new    ;}
	.st1{fill:#64DFFA;}
	.st2{opacity:0.8;enable-background:new    ;}
	.st3{opacity:0.3;enable-background:new    ;}
	.st4{opacity:0.5;enable-background:new    ;}
	.st5{fill:#4675A0;}
	.st6{fill:#FFFFFF;}
	.st7{opacity:0.2;fill:#1C315F;enable-background:new    ;}
	.st8{fill:#1C315F;}
	.st9{opacity:0.8;fill:#44B3AE;enable-background:new    ;}
	.st10{opacity:0.3;fill:url(#SVGID_1_);enable-background:new    ;}
	.st11{opacity:0.5;fill:#394864;enable-background:new    ;}
	.st12{opacity:0.3;fill:url(#SVGID_2_);enable-background:new    ;}
	.st13{fill:#FDCF09;}
</style>
<g>
	<path class="st0" d="M96.9,78c0,0-23.3-8.6-53.4-4.5l11.9-40.1c0,0,35.8-0.7,41.2,4.1"/>
	<path class="st1" d="M96.9,78c0,0-23.3-14.2-53.4-10l11.9-40.1c0,0,35.8-0.7,41.2,4.1"/>
	<g class="st2">
		<path class="st1" d="M67.4,6.9L55.5,46.6c0,0,17.3,6.6,25.4,13.5s15.7,17.3,16,18.3V32.1C96.9,32.1,81.5,14.5,67.4,6.9z"/>
	</g>
	<g class="st2">
		<path class="st1" d="M50.1,56.3c0,0,29.5,2.8,46.8,22.1V32.1c0,0-27.6-15.9-34.9-15.9C58.6,27.6,50.1,56.3,50.1,56.3z"/>
	</g>
	<g class="st3">
		<path class="st1" d="M67.4,6.9L55.5,46.6c0,0,17.3,6.6,25.4,13.5s15.7,17.3,16,18.3V32.1C96.9,32.1,81.5,14.5,67.4,6.9z"/>
	</g>
	<g class="st4">
		<path class="st1" d="M51.4,59.7c0,0,28.9,2.4,45.6,18.7C82.8,62.5,60.2,58,52.6,56.6L51.4,59.7z"/>
	</g>
	<g class="st4">
		<path class="st1" d="M80.9,59.7C74,53.5,60.2,48,56.4,46.6l-0.9,2.8c0,0,17.3,5.9,25.4,12.1c8.2,6.2,15.7,15.5,16,16.2
			C96.6,77,89.1,67,80.9,59.7z"/>
	</g>
	<path class="st0" d="M96.9,78c0,0,23.3-8.6,53.4-4.5l-11.9-40.1c0,0-35.8-0.7-41.2,4.1"/>
	<path class="st1" d="M96.9,78c0,0,23.3-14.2,53.4-10l-11.9-40.1c0,0-35.8-0.7-41.2,4.1"/>
	<g class="st2">
		<path class="st1" d="M126.5,6.9l11.9,39.4c0,0-17.3,6.6-25.4,13.5S97.2,77,96.9,78V32.1C96.9,32.1,112.3,14.5,126.5,6.9z"/>
	</g>
	<g class="st2">
		<path class="st1" d="M143.8,56.3c0,0-29.5,2.8-46.8,22.1V32.1c0,0,27.6-15.9,34.9-15.9C135.3,27.6,143.8,56.3,143.8,56.3z"/>
	</g>
	<g class="st3">
		<path class="st1" d="M126.5,6.9l11.9,39.4c0,0-17.3,6.6-25.4,13.5S97.2,77,96.9,78V32.1C96.9,32.1,112.3,14.5,126.5,6.9z"/>
	</g>
	<g class="st4">
		<path class="st1" d="M142.5,59.7c0,0-28.9,2.4-45.6,18.7c14.1-15.9,36.8-20.4,44.3-21.8L142.5,59.7z"/>
	</g>
	<g class="st4">
		<path class="st1" d="M113,59.7c6.9-6.2,20.7-11.7,24.5-13.1l0.9,2.8c0,0-17.3,5.9-25.4,12.1c-7.8,6.2-15.7,15.5-16,16.2
			C97.3,77,105.1,67,113,59.7z"/>
	</g>
</g>
<g>
	<g>
		<path class="st1" d="M29.6,115.9c-5.2,0-8.9-3.7-8.9-8.9v-8.8h-4.9c-5.2,0-8.9-3.7-8.9-8.9s3.7-8.9,8.9-8.9h4.9v-4.5
			c0-5.2,3.7-8.9,8.9-8.9c3.5,0,6.3,1.7,7.8,4.3h4.2c5.1,0,8.5,3.4,8.5,8.5c0,0.6,0,1.2-0.1,1.8c3,1.4,4.8,4.3,4.8,8
			c0,3.1-1.3,5.6-3.5,7.2c0.2,0.6,0.3,1.2,0.3,1.8c0,1,0,3.4-1.8,5.7c-0.6,1-1.4,1.9-2.1,2.6c-1.2,1.2-2.9,1.9-4.7,1.9
			c-1.3,0-2.4-0.4-3.2-0.7l-0.8-0.3c0,0-0.4-0.2-0.4-0.2C38.1,112.4,34.5,115.9,29.6,115.9z"/>
		<path class="st1" d="M29.6,73c1.8,0,2.9,1.1,2.9,2.9v1.5h9c1.8,0,2.5,0.7,2.5,2.5s-0.7,2.5-2.5,2.5h-8.7v4.3h0h0h13
			c1.8,0,2.9,1.1,2.9,2.9c0,1.8-1.1,2.9-2.9,2.9h-13v3.3l0.7-1.1c0.4-0.4,0.7-0.7,1.1-0.7c3.6,1.1,6.5,2.2,9.4,3.3
			c1.1,0.4,1.5,1.1,1.5,1.4c0,0.7,0,1.4-0.7,2.2c-0.4,0.7-1.1,1.5-1.5,1.8c-0.1,0.1-0.2,0.1-0.4,0.1c-0.4,0-1-0.3-1.8-0.5
			c-2.2-1.1-5.1-2.2-8.7-3.6v8.3c0,1.8-1.1,2.9-2.9,2.9c-1.8,0-2.9-1.1-2.9-2.9V92.1H15.8c-1.8,0-2.9-1.1-2.9-2.9
			c0-1.8,1.1-2.9,2.9-2.9h10.9V75.8C26.7,74,27.8,73,29.6,73 M29.6,61c-8,0-14.1,5.7-14.8,13.4C6.8,74.9,0.9,81.1,0.9,89.2
			c0,8.1,5.8,14.3,13.8,14.9v2.9c0,8.5,6.4,14.9,14.9,14.9c5.6,0,10.3-2.8,12.8-7.1c0.2,0,0.3,0,0.5,0c3.4,0,6.5-1.3,8.9-3.7
			c0.8-0.8,1.9-1.9,2.8-3.3c1.9-2.4,2.8-5.4,2.9-8.7c2.1-2.5,3.3-5.8,3.3-9.5c0-4.5-1.8-8.4-4.8-11.1c-0.6-7.7-6.5-13.2-14.5-13.2
			h-1.2C37.6,62.6,33.9,61,29.6,61L29.6,61z"/>
	</g>
	<g>
		<path class="st1" d="M71.9,116.6c-3.4,0-6.1-1.6-7.6-4.2c-1,0.3-2.1,0.5-3.2,0.5c-4.8,0-8.4-3.3-8.8-7.9c-2.1-0.6-4-2.1-5.1-4.3
			C45.5,98,45.6,95.6,46,94c0.4-1.5,1.3-3.6,3.8-5.3c0.1-0.1,0.2-0.2,0.2-0.2c-2.1-1.6-3.4-4.1-3.4-7.3c0-5.1,3.4-8.5,8.5-8.5h3.2
			c1.4-2.9,4.4-4.8,7.9-4.8c0.7,0,1.4,0.1,2,0.2c2.9,0.6,5,2.3,6.2,4.6h10c5.1,0,8.5,3.4,8.5,8.5c0,2.6-0.9,4.9-2.4,6.5
			c0.6,1.2,1,2.6,1,4v9.4c0,1.8,0,3.6-1,5.6c-0.9,1.9-2.6,3.6-4.5,4.5c-1.7,0.8-4.1,1.4-6.3,1.4c-0.1,0-0.3,0-0.4,0
			C77.9,115,75.2,116.6,71.9,116.6z"/>
		<path class="st1" d="M66.3,74c0.3,0,0.6,0,0.9,0.1c1.8,0.4,2.5,1.8,2.2,3.6c0,0.4-0.4,0.7-0.4,1.1h15.6c1.8,0,2.5,0.7,2.5,2.5
			c0,1.8-0.7,2.9-2.5,2.9H66.8c-1.1,2.2-1.8,4-2.9,5.1H69v-1.1c0-1.8,1.1-2.9,2.9-2.9s2.9,1.1,2.9,2.9v1.1h8.3
			c0.7,0,1.4,0.4,1.8,0.7s0.7,1.1,0.7,1.8v9.4c0,1.4,0,2.2-0.4,2.9s-1.1,1.4-1.8,1.8s-2.2,0.7-3.6,0.7c-1.8,0-2.9-0.7-3.6-1.8
			c-0.4-1.1-0.4-1.8,0.4-2.2c0.4-0.4,1.5-0.7,2.5-0.7c0.4,0,0.7-0.4,0.7-0.7v-6.5h-5.1v13c0,1.8-1.1,2.9-2.9,2.9
			c-1.8,0-2.9-1.1-2.9-2.9v-13h-5.1v9.4c0,1.8-1.1,2.9-2.9,2.9c-1.8,0-2.9-1.1-2.9-2.9v-7.6c-0.7,0.7-1.5,1.5-1.8,1.8
			c-0.7,0.7-1.4,1.1-2.2,1.1s-1.5-0.7-1.8-1.4c-1.1-1.8-0.7-3.3,1.1-4.3c2.5-2.2,5.1-5.4,7.2-9.4h-5.4c-1.8,0-2.5-1.1-2.5-2.9
			c0-1.8,0.7-2.5,2.5-2.5h7.6c0.4-1.1,0.7-1.8,0.7-2.5C63.9,74.7,64.9,74,66.3,74 M66.3,62c-4.3,0-8.2,1.8-11,4.8h-0.1
			c-8.4,0-14.5,6.1-14.5,14.5c0,2.5,0.5,4.7,1.5,6.8c-0.9,1.4-1.6,2.9-2,4.5c-0.9,3.7-0.3,7.6,1.7,11.1c1.3,2.4,3.1,4.3,5.2,5.6
			c2,5.8,7.4,9.7,14,9.7c0.3,0,0.6,0,0.9,0c2.6,2.3,6.1,3.6,10,3.6c4.2,0,7.9-1.6,10.5-4.1c2.3-0.3,4.6-0.9,6.5-1.8
			c3-1.5,5.7-4.1,7.2-7.2c1.6-3.3,1.6-6.1,1.6-8.3v-9.4c0-1-0.1-2.1-0.3-3.1c1.1-2.1,1.8-4.7,1.8-7.4c0-8.4-6.1-14.5-14.5-14.5h-6.9
			c-2-2.2-4.8-3.8-8.1-4.5C68.5,62.1,67.4,62,66.3,62L66.3,62z"/>
	</g>
	<g>
		<path class="st1" d="M114.2,116.6c-4,0-7.1-2.2-8.3-5.6c0,0,0,0,0,0c-1.2,3.4-4.4,5.6-8.3,5.6c-5.2,0-8.9-3.7-8.9-8.9v-10
			c-1.1-0.7-2.3-1.9-3.2-3.7c-2.1-3.7-1.8-8,0.8-11.5l0.1-0.2l0.2-0.2c2.3-2.6,4-5.3,5.1-8c1.4-3.6,4.6-5.9,8.2-5.9
			c1.2,0,2.4,0.2,3.5,0.7c1.4,0.5,2.5,1.3,3.4,2.1c1.6-2,4.1-3.3,7-3.3c5.2,0,8.9,3.7,8.9,8.9v0.1h1.2c5.2,0,8.9,3.7,8.9,8.9
			c0,3.4-1.7,6.3-4.3,7.7c0.5,0.7,0.9,1.4,1.4,2.1c1.2,1.2,2.9,3.2,2.9,6.1c0,1.6-0.5,4.1-2.9,6.4c-0.9,0.9-2.9,2.9-6,2.9
			c-0.5,0-0.9,0-1.4-0.1C121.5,114.3,118.3,116.6,114.2,116.6z"/>
		<path class="st1" d="M113.9,73.7c1.8,0,2.9,1.1,2.9,2.9v6.2h0.4h6.9c1.8,0,2.9,1.1,2.9,2.9s-1.1,2.9-2.9,2.9h-4.7
			c1.8,4.3,4,8,6.2,10.9c0.7,0.7,1.4,1.4,1.4,2.2s-0.4,1.5-1.1,2.2c-0.6,0.6-1.2,1.2-1.8,1.2c-0.1,0-0.3,0-0.4-0.1
			c-0.7,0-1.5-0.7-2.2-1.5c-1.4-2.2-3.3-4.7-4.3-8v12.3c0,1.8-1.1,2.9-2.9,2.9c-1.8,0-2.9-1.1-2.9-2.9V96.1
			c-1.8,3.3-3.6,6.2-5.4,8.3c-0.4,0.7-1.1,0.7-1.8,0.7c-0.7,0-1.1-0.4-1.8-1.1c-0.4-0.7-1.1-1.1-1.8-1.8v5.4c0,1.8-1.1,2.9-2.9,2.9
			c-1.8,0-2.9-1.1-2.9-2.9V91.8c-0.6,0.8-1.3,1.2-1.8,1.2c-0.8,0-1.5-0.6-2.1-1.9c-1.1-1.8-0.7-3.6,0.4-5.1c2.5-2.9,4.7-6.2,6.2-9.8
			c0.5-1.3,1.5-2.1,2.7-2.1c0.4,0,0.9,0.1,1.3,0.3c1.8,0.7,2.5,1.8,1.8,3.6c-1.1,2.2-1.8,4-2.9,5.4v17.7c3.6-3.3,6.1-7.6,8.7-13
			h-4.3c-1.8,0-2.9-1.1-2.9-2.9c0-1.8,1.1-2.9,2.9-2.9h6.5v-5.8C111,74.8,112.1,73.7,113.9,73.7 M113.9,61.7c-2.8,0-5.3,0.7-7.5,1.9
			c-0.2-0.1-0.5-0.2-0.8-0.3c-1.9-0.7-3.8-1.1-5.8-1.1c-6.1,0-11.4,3.7-13.8,9.7c-0.8,2.1-2.2,4.2-4,6.3l-0.3,0.4l-0.3,0.4
			c-4,5.4-4.5,12.3-1.3,18c0.7,1.3,1.5,2.5,2.5,3.5v7.3c0,8.5,6.4,14.9,14.9,14.9c3.1,0,6-0.9,8.3-2.4c2.3,1.5,5.2,2.4,8.3,2.4
			c5,0,9.3-2.3,12-5.9c4.2-0.7,6.9-3.4,8-4.5c3-3,4.6-6.8,4.6-10.7c0-3.2-1.1-5.8-2.4-7.6c1.5-2.3,2.4-5.2,2.4-8.3
			c0-7.2-4.5-12.8-11.1-14.4C125.8,65.5,120.5,61.7,113.9,61.7L113.9,61.7z"/>
	</g>
	<g>
		<path class="st1" d="M138.8,113c-3.2,0-7.9-0.4-12.2-3.9l-0.2-0.2l-0.2-0.2c-3.5-3.5-3.5-8.3,0-11.7c0.9-0.9,1.8-1.8,3.4-2.6
			c0.1-0.1,0.2-0.1,0.3-0.2c-0.2-0.8-0.4-1.6-0.4-2.4c0-0.8,0.1-1.6,0.3-2.4c-0.9-0.4-1.9-1.1-2.9-2.1l-0.3-0.3l-0.3-0.3
			c-1.5-1.9-2.1-4-2-6c0.1-1.6,0.8-4,3.5-6l0.1-0.1l0.1-0.1c3.7-2.5,7.4-2.8,10.2-2.8c4.3,0,8.1,1.2,11,3.5
			c3.2,2.5,4.8,6.1,4.8,10.5c0,2-0.4,3.9-1.2,5.5c1.7,1.9,2.6,4.4,2.6,7.5c0,4.6-2.2,8.6-5.9,11.1C146.6,111.9,142.9,113,138.8,113z
			"/>
		<path class="st1" d="M138.5,77.6c2.9,0,5.4,0.7,7.2,2.2c1.8,1.4,2.5,3.3,2.5,5.8c0,2.7-1.3,4.8-4.2,6.3c-0.2,0-0.3-0.1-0.5-0.1
			v0.4c0.2-0.1,0.3-0.2,0.5-0.2c1.5,0.4,2.5,1.4,3.5,2.4c1.8,1.1,2.1,2.5,2.1,4.4c0,2.5-1.1,4.7-3.3,6.1c-2.2,1.5-4.7,2.2-7.6,2.2
			c-3.6,0-6.1-0.7-8.3-2.5c-1.1-1.1-1.1-2.2,0-3.3c0.7-0.7,1.1-1.1,1.8-1.5c0.2-0.1,0.4-0.1,0.6-0.1c0.5,0,1.1,0.3,1.6,0.9
			c1.1,0.7,2.5,1.1,3.6,1.1c1.5,0,2.5-0.4,3.3-0.7c0.7-0.7,1.1-1.5,1.1-2.5c0-1.1-0.4-1.8-0.7-2.2c-0.4-0.4-1.4-1.1-2.5-1.4
			c-1.1,0-1.8-0.4-2.9-1.1c-0.4-0.4-0.7-1.1-0.7-1.8c0-0.7,0.4-1.4,1.1-1.8c0.7-0.4,1.8-0.7,2.5-1.1c1.8-0.7,2.5-1.8,2.5-3.3
			c0-1.1-0.4-1.8-0.7-2.2s-1.4-0.7-2.5-0.7c-1.1,0-1.8,0.4-2.9,0.7c-0.7,0.5-1.3,0.8-2,0.8c-0.8,0-1.5-0.4-2.3-1.1
			c-1.1-1.5-1.1-2.5,0.4-3.6C133.8,78,136,77.6,138.5,77.6 M138.5,65.6c-3.4,0-8.4,0.4-13.5,3.8l-0.3,0.2l-0.3,0.2
			c-6.7,5-7.9,13.6-2.7,20.4l0.5,0.7l0.6,0.6c0.1,0.1,0.1,0.1,0.2,0.2c-0.4,0.3-0.7,0.6-1,0.9c-2.8,2.8-4.3,6.4-4.3,10.1
			c0,3.7,1.5,7.3,4.3,10.1l0.4,0.4l0.4,0.3c4.3,3.6,9.5,5.3,16,5.3c5.3,0,10.1-1.4,14.3-4.2c5.5-3.6,8.6-9.5,8.6-16.1
			c0-3.4-0.8-6.2-2-8.4c0.4-1.5,0.5-3,0.5-4.6c0-7.9-3.8-12.6-7-15.2C149.3,67.3,144.2,65.6,138.5,65.6L138.5,65.6z"/>
	</g>
	<g>
		<path class="st1" d="M157.3,112.6c-3.2,0-5.1-1.9-5.7-2.5c-0.6-0.6-2.5-2.5-2.5-5.7V80.2c0-2.2,0.9-4.5,2.5-6.1
			c1.5-1.5,3.8-2.5,6-2.5h5.8c6.4,0,11.3,1.7,14.9,5.2c2.7,2.4,5.9,7,5.9,15.3c0,8.1-3,12.7-5.7,15.1c-2.3,2.5-6.6,5.4-14.4,5.4
			H157.3z"/>
		<path class="st1" d="M163.4,77.7c4.7,0,8.3,1.1,10.9,3.6c2.5,2.2,4,5.8,4,10.9s-1.4,8.7-4,10.9c-2.2,2.5-5.8,3.6-10.1,3.6h-6.9
			c-0.7,0-1.1-0.4-1.4-0.7s-0.7-0.7-0.7-1.4V80.2c0-0.7,0.4-1.5,0.7-1.8s1.1-0.7,1.8-0.7H163.4 M162.4,100.8h1.1
			c2.5,0,4.3-0.7,5.8-2.2c1.5-1.5,2.2-3.6,2.2-6.9c0-3.3-0.7-5.4-2.2-6.9c-1.4-1.4-3.3-1.8-5.8-1.8h-1.1v0V100.8 M163.4,65.7h-5.8
			c-3.8,0-7.6,1.6-10.3,4.2c-2.7,2.7-4.2,6.5-4.2,10.3v24.3c0,3.8,1.4,7.1,4.2,9.9c2.8,2.8,6.2,4.2,9.9,4.2h6.9
			c9.7,0,15.4-3.7,18.6-7.1c3.6-3.3,7.5-9.3,7.5-19.4c0-10.4-4.2-16.4-7.8-19.7C177.7,67.9,171.4,65.7,163.4,65.7L163.4,65.7z"/>
	</g>
	<g>
		<path class="st1" d="M214,115.8c-1,0-2.8-0.2-4.6-1.4c-0.1,0-1.6,0.3-1.6,0.3c-5.2,0.8-8.8,0.8-10,0.8c-2.8,0-5.4-1.3-6.8-3.3
			c-0.6,0.3-1.1,0.5-1.3,0.6l-0.4,0.4l-1.2,0.5c-1.3,0.5-2.5,0.8-3.7,0.8c-1.7,0-6-0.6-7.9-6.2c-0.6-1.9-1-4.1,0.3-6.8l0.2-0.4
			c-0.1-0.3-0.2-0.5-0.3-0.8c-0.3-0.6-0.5-1.5-0.5-2.7v-1.1c0-1.5,0.5-2.6,1-3.5c0,0,0-0.1,0-0.1c-0.3-0.4-0.5-0.8-0.8-1.3l-0.1-0.2
			l-0.1-0.2c-1.5-3.8-0.8-7.7,2-10.4c0,0,0.1-0.1,0.1-0.1c0.3-0.8,0.7-1.8,1.1-2.9c0.2-0.6,0.5-1.3,0.7-2c0.5-1.5,1.2-3.2,2.9-4.8
			c1.9-1.9,3.9-2.3,5.3-2.3c1.5,0,3,0.4,4.4,1.3c2.5,1.4,4.1,3.6,4.6,6.1c0.6-0.8,1.1-1.6,1.6-2.4c1.3-2.3,3.3-3.3,4.3-3.9
			c1.1-0.5,2.2-0.8,3.4-0.8c0.7,0,1.3,0.1,1.7,0.2h1.2l1.3,0.6l0.1,0.1c0.8,0.3,2.4,1.1,3.7,3.1c0.4,0.6,0.9,1.5,1.1,2.6
			c1.4,1.6,2.9,3,4.4,4.5c3.7,3,4.7,7.8,2.5,11.8c-0.1,0.1-0.1,0.3-0.2,0.4c0.3,0.9,0.5,1.9,0.5,3c0,2.3-0.7,4.3-1.9,5.7
			c0.6,1.2,1.1,2.2,1.4,3.1c1.4,3,0.9,6.3-1.3,8.5c-0.7,0.7-1.5,1.5-3,2.2L218,115l-0.3,0.1C216.5,115.6,215.2,115.8,214,115.8z"/>
		<path class="st1" d="M188.5,74.6c0.4,0,0.9,0.2,1.4,0.5c1.4,0.7,2.2,1.8,1.4,3.6c-1.1,2.5-2.2,4.7-3.3,6.9c0,0.4-0.4,0.4,0,0.7
			c0,0,0.4,0,0.7,0h0.7c0,0,0.4-0.4,0.4-0.7c0-0.4,0.4-0.7,0.4-0.7c0.4-0.7,1.1-1.5,2.2-1.5c1.1,0,1.8,0,2.5,0.7
			c0.4,0.4,0.7,0.4,0.7,0.7s0,0.7,0,1.1c3.6-2.5,6.5-5.8,8.7-9.4c0.4-0.7,1.1-1.1,1.8-1.4c0.2-0.1,0.5-0.2,0.7-0.2
			c0.5,0,1,0.2,1.4,0.2c0.7,0.4,1.1,0.4,1.4,1.1c0.4,0.4,0.4,0.7,0,1.4c2.2,2.5,4.3,4.7,6.5,6.9c1.4,1.1,2.2,2.9,1.1,4.7
			c-0.4,1.1-1,1.6-1.6,1.6c-0.5,0-1-0.3-1.6-0.9v1.1c-0.3-0.4-0.7-0.4-1.4-0.4h-11.6c-0.4,0-0.7,0-1.1-0.4c-0.4-0.4-0.4-0.7-0.4-1.1
			c0,0-0.7,0.4-1.4,1.1c-0.4,0.4-0.7,0.4-0.7,0.4c-0.4,0-0.4-0.4-0.7-0.4c-0.7-1.4-1.1-2.9-1.8-4.3c-1.1,2.2-2.5,4.7-4.3,7.2
			l1.5-0.4c0.3-0.1,0.6-0.1,0.8-0.1c1.3,0,2,0.8,2,2.3c0,0.7-0.4,1.4-1.5,1.8c-1.1,0.7-1.8,1.1-2.9,1.4c-1.1,0.4-1.8,0.4-2.5,0.7
			c-0.7,0-1.1,0.4-1.8,0.4s-1.1,0.4-1.4,0.4s-0.7,0-1.1,0c-0.4,0-0.7-0.4-0.7-0.4s-0.4-0.4-0.4-0.7s-0.4-0.7-0.4-1.1
			c0-0.4,0-0.7,0-1.1c0-0.4,0.4-0.7,0.4-0.7c0-0.4,0.4-0.4,0.4-0.7s0.4-0.4,0.7-0.7s0.4-0.4,0.7-0.7c0.4-0.7,1.1-1.4,1.8-2.9
			c-0.4,0-0.7,0-0.7,0c-0.5,0.2-1,0.3-1.4,0.3s-0.6-0.1-0.8-0.3c-0.4-0.4-1.1-1.1-1.4-1.8c-0.7-1.8-0.4-3.3,1.1-4.3
			c0,0,0-0.4,0.4-0.4c0.7-1.4,1.4-3.6,2.5-6.5c0.4-1.1,0.7-1.8,1.4-2.5C187.7,74.8,188.1,74.6,188.5,74.6 M203.6,86h6.2
			c0.7,0,0.7-0.4,0.4-0.7c-1.1-1.1-2.2-2.5-3.6-4.3c-1.1,1.4-2.2,2.9-3.3,4.3C202.9,85.6,202.9,86,203.6,86 M214.5,92.9
			c1.8,0,2.5,0.7,2.5,2.5s-0.7,2.5-2.5,2.5h-7.2c-0.4,0.7-0.7,1.5-1.8,2.9c-0.7,1.5-1.4,2.2-1.8,2.9l6.1-0.4c0,0,0-0.4-0.4-0.4v-0.4
			c-0.7-1.5-0.4-2.5,1.1-3.3c0.5-0.2,0.9-0.4,1.3-0.4c0.8,0,1.4,0.5,1.9,1.5c1.4,2.2,2.5,4.3,3.3,6.2c0.4,0.7,0.4,1.4,0,1.8
			c-0.4,0.4-0.7,0.7-1.4,1.1c-0.6,0.2-1.1,0.3-1.5,0.3c-0.9,0-1.6-0.6-2.1-1.8c-1.1,0-2.9,0.4-5.1,0.7c-4.7,0.7-8,0.7-9.1,0.7
			c-1.1,0-2.2-0.7-2.2-1.4c0-0.7,0-1.1,0-1.5s0-0.7,0.4-1.1c0.4-0.4,0.4-0.4,0.7-0.7s0.4-0.4,0.7-0.4c0.4-0.4,0.4-0.4,0.7-0.4
			c0.4-0.7,1.4-2.5,3.3-5.4h-2.5c-1.8,0-2.5-0.7-2.5-2.5c-0.3-2.5,0.4-3.2,2.2-3.2H214.5 M192.4,100.2c0.4,0,0.7,0.1,1.1,0.3
			c0.7,0.4,1.1,0.7,1.1,1.8c0.4,1.1-0.4,2.2-1.4,2.5c-4.7,1.8-6.9,2.9-7.2,3.3c-0.5,0.2-1,0.3-1.5,0.3c-1,0-1.7-0.6-2.2-2.1
			c-0.4-1.1-0.4-1.5,0-2.2c0.4-0.4,0.7-0.7,1.4-1.1c1.4-0.4,4-1.5,7.6-2.5C191.7,100.3,192,100.2,192.4,100.2 M188.5,62.6
			c-3.6,0-7,1.4-9.6,4c-2.5,2.5-3.7,5.2-4.3,7c-0.3,0.7-0.5,1.3-0.7,1.9c-0.2,0.6-0.4,1.2-0.6,1.7c-3.7,4.3-4.7,10.2-2.5,15.9
			c-0.3,1.1-0.4,2.2-0.4,3.3v1.1c0,1.2,0.2,2.3,0.4,3.2c-1.3,3.8-0.5,7.1,0.2,9.3l0,0l0,0c2.6,7.6,8.7,10.3,13.5,10.3
			c1.9,0,3.7-0.4,5.6-1.1c2.2,1.4,4.9,2.2,7.7,2.2c1.3,0,5.1,0,10.6-0.8c1.7,0.8,3.6,1.2,5.6,1.2c1.9,0,3.9-0.4,5.9-1.2l0.5-0.2
			l0.5-0.2c0.5-0.3,1-0.5,1.4-0.8l3.7,4.3v-7.5c3.4-3.9,4.1-9.5,1.9-14.4c-0.1-0.1-0.1-0.3-0.2-0.4c0.8-1.8,1.2-3.8,1.2-6
			c0-0.8-0.1-1.6-0.2-2.4c2.4-6.1,0.6-12.9-4.5-17.3c-1-1.1-2.1-2.1-3.1-3.1c-0.4-1.1-0.9-2.1-1.5-2.9c-2.2-3.5-5.2-4.8-6.2-5.3
			l-2.4-1.2H209c-0.5-0.1-1.3-0.2-2.2-0.2c-2.1,0-4.2,0.5-6.1,1.4c-0.6,0.3-1.7,0.8-2.8,1.7c-0.6-0.5-1.3-0.9-2.1-1.3
			C193.5,63.3,191,62.6,188.5,62.6L188.5,62.6z"/>
	</g>
	<g>
		<path class="st1" d="M239.4,116.6c-4.4,0-7.7-2.5-8.6-6.4c-0.7-0.2-1.4-0.5-2.1-0.8c-1.4,0.6-2.7,0.8-3.6,0.8
			c-1.7,0-4.2-0.5-6.6-2.9l-0.4-0.4l-0.3-0.5c-0.7-1.1-2.1-3.2-2.1-5.8c0-2.7,1.4-5,4.2-7c0.7-0.6,1.3-1.1,1.9-1.7
			c-3.4-1.2-5.7-4.4-5.7-8.4c0-5.2,3.7-8.9,8.9-8.9h5.4c0.7-4.3,4.2-7.2,8.8-7.2c4.6,0,8,3,8.8,7.2h5.7c5.2,0,8.9,3.7,8.9,8.9
			c0,3.7-2,6.7-5,8.1c0.3,0.3,0.6,0.5,1,0.8c1.9,1.3,3.3,2.7,4.1,4.4c1.2,2.5,1.3,6.3-2.2,9.8c-1.1,1.1-3.2,3.2-6.4,3.2
			c-1.3,0-2.4-0.3-3.4-0.7c-0.6,0.4-1.4,0.9-2.4,1.2C247,114,243.7,116.6,239.4,116.6z"/>
		<path class="st1" d="M239.1,73.3c1.8,0,2.9,1.1,2.9,2.9l0,4.3h0h0h11.6c1.8,0,2.9,1.1,2.9,2.9c0,1.8-1.1,2.9-2.9,2.9h-8
			c2.5,4.3,5.4,8,9.4,10.9c1.1,0.7,1.8,1.4,2.2,2.2c0.4,0.7,0,1.8-1.1,2.9c-0.7,0.7-1.4,1.4-2.2,1.4c-0.7,0-1.4-0.4-2.5-1.1
			c-1.1-0.7-2.2-1.8-3.3-2.9v2.5c0,0.7-0.4,1.1-0.7,1.4c-0.4,0.4-0.7,0.7-1.4,0.7h-3.6v3.3c0,1.8-1.1,2.9-2.9,2.9
			c-2.2,0-2.9-1.1-2.9-2.9v-3.3h-3.6c-0.7,0-1.4-0.4-1.8-0.7c-0.4-0.4-0.7-1.1-0.7-1.8v-1.4c-0.7,0.7-1.8,1.8-3.3,2.9
			c-0.7,0.5-1.3,0.8-2,0.8c-0.8,0-1.5-0.4-2.3-1.1c-0.7-1.1-1.1-1.8-1.1-2.5s0.7-1.5,1.8-2.2c4-3.3,7.2-6.9,9.4-11.9h-8
			c-1.8,0-2.9-1.1-2.9-2.9c0-1.8,1.1-2.9,2.9-2.9h11.2v-4.3C236.2,74.4,237.3,73.3,239.1,73.3 M242,98.3h4.7
			c-1.8-2.2-3.3-4.3-4.7-6.9V98.3 M231.1,98.3h4.7v-6.5C234.4,94.3,232.9,96.5,231.1,98.3 M239.1,61.3c-5.6,0-10.4,2.8-12.9,7.2H225
			c-8.5,0-14.9,6.4-14.9,14.9c0,3.3,0.9,6.2,2.6,8.6c-2.5,3.2-3,6.4-3,8.4c0,4.5,2.2,7.7,3.1,9.1l0.7,1l0.9,0.9
			c3,3,6.8,4.7,10.8,4.7c0.6,0,1.2,0,1.7-0.1c2.6,4,7.1,6.6,12.6,6.6c5.5,0,10.2-2.7,12.7-7c0.6,0.1,1.1,0.1,1.7,0.1
			c5.7,0,9.2-3.5,10.6-5c4.8-4.7,6.1-11.3,3.3-16.7c-0.5-0.9-1-1.8-1.6-2.6c1.4-2.3,2.2-5,2.2-8c0-8.5-6.4-14.9-14.9-14.9H252
			C249.5,64.2,244.7,61.3,239.1,61.3L239.1,61.3z"/>
	</g>
</g>
<g>
	<g>
		<path class="st5" d="M30.5,112.9c-3.5,0-5.9-2.4-5.9-5.9V95.2h-7.9c-3.5,0-5.9-2.4-5.9-5.9c0-3.5,2.4-5.9,5.9-5.9h7.9v-7.5
			c0-3.5,2.4-5.9,5.9-5.9c2.9,0,5.1,1.7,5.7,4.3h6.2c3.5,0,5.5,2.1,5.5,5.5c0,1.6-0.5,2.9-1.3,3.9h0.1c3.5,0,5.9,2.4,5.9,5.9
			c0,3.1-1.9,5.4-4.8,5.8c1.1,0.9,1.6,2.2,1.6,3.2c0,0.9,0,2.4-1.3,3.9c-0.6,1-1.4,1.8-1.8,2.2c-0.7,0.7-1.6,1-2.5,1
			c-0.8,0-1.5-0.3-2.2-0.5l-0.7-0.2l-0.2-0.1c-1.2-0.6-2.6-1.2-4.3-1.9v3.9C36.3,110.5,33.9,112.9,30.5,112.9z"/>
		<path class="st5" d="M30.4,73c1.8,0,2.9,1.1,2.9,2.9v1.4h9.1c1.8,0,2.5,0.7,2.5,2.5c0,1.8-0.7,2.5-2.5,2.5h-8.7v4.3h0h0h13
			c1.8,0,2.9,1.1,2.9,2.9s-1.1,2.9-2.9,2.9h-13v3.3l0.7-1.1c0.4-0.4,0.7-0.7,1.1-0.7c3.6,1.1,6.5,2.2,9.4,3.3
			c1.1,0.4,1.5,1.1,1.5,1.4c0,0.7,0,1.5-0.7,2.2c-0.4,0.7-1.1,1.4-1.5,1.8c-0.1,0.1-0.2,0.1-0.4,0.1c-0.4,0-1-0.3-1.8-0.5
			c-2.2-1.1-5.1-2.2-8.7-3.6v8.3c0,1.8-1.1,2.9-2.9,2.9c-1.8,0-2.9-1.1-2.9-2.9V92.2H16.7c-1.8,0-2.9-1.1-2.9-2.9s1.1-2.9,2.9-2.9
			h10.9V75.9C27.6,74.1,28.6,73,30.4,73 M30.4,67c-5.2,0-8.9,3.7-8.9,8.9v4.5h-4.9c-5.2,0-8.9,3.7-8.9,8.9s3.7,8.9,8.9,8.9h4.9v8.8
			c0,5.2,3.7,8.9,8.9,8.9c4.9,0,8.6-3.4,8.9-8.2c0,0,0,0,0,0l0.4,0.2l0.4,0.1c0.2,0.1,0.3,0.1,0.4,0.1c0.8,0.3,1.9,0.7,3.2,0.7
			c1.8,0,3.4-0.7,4.7-1.9c0.7-0.7,1.5-1.5,2.1-2.6c1.8-2.3,1.8-4.7,1.8-5.7c0-0.6-0.1-1.2-0.3-1.8c2.2-1.6,3.5-4.1,3.5-7.2
			c0-3.7-1.9-6.6-4.8-8c0.1-0.6,0.1-1.1,0.1-1.8c0-5.1-3.4-8.5-8.5-8.5h-4.2C36.7,68.7,33.9,67,30.4,67L30.4,67z"/>
	</g>
	<g>
		<path class="st5" d="M72.8,113.7c-3.5,0-5.9-2.4-5.9-5.9v-0.3c-1,1.6-2.8,2.5-5,2.5c-3.5,0-5.9-2.4-5.9-5.9v-1.8
			c-0.4,0.1-0.7,0.1-1,0.1c-2.1,0-3.7-1.6-4.4-3c-1.1-2-1.1-3.6-0.8-4.6c0.4-1.4,1.3-2.7,2.8-3.6c1.2-1.1,2.4-2.4,3.6-4
			c-3.3,0-5.5-2.3-5.5-5.9c0-3.5,2.1-5.5,5.5-5.5h5.3l0-0.1c0.6-2.8,2.8-4.7,5.7-4.7c0.5,0,1,0,1.5,0.1c2.5,0.5,4.2,2.3,4.6,4.7
			h12.2c3.5,0,5.5,2.1,5.5,5.5c0,3-1.6,5.2-4.1,5.7c0.4,0.2,0.8,0.5,1.1,0.8c1,1,1.6,2.5,1.6,3.9v9.4c0,1.7,0,2.9-0.7,4.2
			c-0.6,1.3-1.9,2.5-3.2,3.2c-1.3,0.6-3.2,1-5,1c-0.8,0-1.6-0.1-2.3-0.3C77.8,112,75.7,113.7,72.8,113.7z"/>
		<path class="st5" d="M67.2,74c0.3,0,0.6,0,0.9,0.1c1.8,0.4,2.5,1.8,2.2,3.6c0,0.4-0.4,0.7-0.4,1.1h15.6c1.8,0,2.5,0.7,2.5,2.5
			c0,1.8-0.7,2.9-2.5,2.9H67.7c-1.1,2.2-1.8,4-2.9,5.1h5.1v-1.1c0-1.8,1.1-2.9,2.9-2.9c1.8,0,2.9,1.1,2.9,2.9v1.1H84
			c0.7,0,1.4,0.4,1.8,0.7c0.4,0.4,0.7,1.1,0.7,1.8v9.4c0,1.5,0,2.2-0.4,2.9s-1.1,1.5-1.8,1.8c-0.7,0.4-2.2,0.7-3.6,0.7
			c-1.8,0-2.9-0.7-3.6-1.8c-0.4-1.1-0.4-1.8,0.4-2.2c0.4-0.4,1.5-0.7,2.5-0.7c0.4,0,0.7-0.4,0.7-0.7v-6.5h-5.1v13
			c0,1.8-1.1,2.9-2.9,2.9c-1.8,0-2.9-1.1-2.9-2.9v-13h-5.1v9.4c0,1.8-1.1,2.9-2.9,2.9c-1.8,0-2.9-1.1-2.9-2.9v-7.6
			c-0.7,0.7-1.5,1.4-1.8,1.8c-0.7,0.7-1.4,1.1-2.2,1.1s-1.5-0.7-1.8-1.5c-1.1-1.8-0.7-3.3,1.1-4.3c2.5-2.2,5.1-5.4,7.2-9.4h-5.4
			c-1.8,0-2.5-1.1-2.5-2.9c0-1.8,0.7-2.5,2.5-2.5h7.6c0.4-1.1,0.7-1.8,0.7-2.5C64.8,74.8,65.8,74,67.2,74 M67.2,68
			c-3.5,0-6.4,1.9-7.9,4.8h-3.2c-5.1,0-8.5,3.4-8.5,8.5c0,3.1,1.3,5.7,3.4,7.3c-0.1,0.1-0.2,0.2-0.2,0.2c-2.5,1.7-3.5,3.8-3.8,5.3
			c-0.4,1.6-0.5,4,1.1,6.8c1.1,2.1,3,3.7,5.1,4.3c0.5,4.6,4,7.9,8.8,7.9c1.1,0,2.2-0.2,3.2-0.5c1.5,2.5,4.3,4.2,7.6,4.2
			c3.3,0,6-1.5,7.6-4c0.1,0,0.3,0,0.4,0c2.2,0,4.6-0.5,6.3-1.4c1.9-0.9,3.6-2.6,4.5-4.5c1-2,1-3.7,1-5.6v-9.4c0-1.4-0.4-2.8-1-4
			c0.2-0.2,0.3-0.4,0.5-0.5c1.3-1.6,2-3.6,2-5.9c0-5.1-3.4-8.5-8.5-8.5h-10c-1.1-2.3-3.3-4-6.2-4.6C68.6,68.1,67.9,68,67.2,68
			L67.2,68z"/>
	</g>
	<g>
		<path class="st5" d="M115.1,113.6c-3.5,0-5.9-2.4-5.9-5.9v-1.5c-1.2,1.9-3.4,1.9-4.2,1.9c-0.2,0-0.4,0-0.6,0
			c-0.2,3.2-2.6,5.5-5.9,5.5c-3.5,0-5.9-2.4-5.9-5.9V95.8c-1.1-0.3-2.5-1.1-3.6-3.3c-1.5-2.6-1.3-5.7,0.6-8.3l0.1-0.1l0.1-0.1
			c2.5-2.9,4.4-5.9,5.6-8.9c1-2.5,3-4,5.4-4c0.8,0,1.6,0.2,2.4,0.5c1.6,0.6,2.7,1.6,3.4,2.8c0.5,1,1,2.6,0.1,4.7l0,0.1
			c0,0-0.1,0.1-0.1,0.1h2.3v-2.8c0-3.5,2.4-5.9,5.9-5.9s5.9,2.4,5.9,5.9v3.2h4.2c3.5,0,5.9,2.4,5.9,5.9c0,3.5-2.4,5.9-5.9,5.9
			c1.1,2.1,2.3,4.1,3.7,5.9c1,1,2.2,2.3,2.2,4.1c0,1.1-0.3,2.7-2,4.3c-0.8,0.8-2,2-3.9,2c-0.4,0-0.7,0-1.1-0.1
			c-1.2-0.2-2.1-0.9-2.8-1.5v1.5C121,111.2,118.6,113.6,115.1,113.6z M104,92.7c0.3-0.5,0.6-1,0.8-1.5c-0.3,0-0.6-0.1-0.8-0.1V92.7z
			"/>
		<path class="st5" d="M114.8,73.8c1.8,0,2.9,1.1,2.9,2.9v6.1h0.4h6.9c1.8,0,2.9,1.1,2.9,2.9c0,1.8-1.1,2.9-2.9,2.9h-4.7
			c1.8,4.3,4,8,6.2,10.9c0.7,0.7,1.4,1.5,1.4,2.2c0,0.7-0.4,1.4-1.1,2.2c-0.6,0.6-1.2,1.2-1.8,1.2c-0.1,0-0.3,0-0.4-0.1
			c-0.7,0-1.5-0.7-2.2-1.4c-1.4-2.2-3.3-4.7-4.3-8v12.3c0,1.8-1.1,2.9-2.9,2.9c-1.8,0-2.9-1.1-2.9-2.9V96.2
			c-1.8,3.3-3.6,6.2-5.4,8.3c-0.4,0.7-1.1,0.7-1.8,0.7c-0.7,0-1.1-0.4-1.8-1.1c-0.4-0.7-1.1-1.1-1.8-1.8v5.4c0,1.8-1.1,2.9-2.9,2.9
			c-1.8,0-2.9-1.1-2.9-2.9V91.8C95,92.6,94.3,93,93.7,93c-0.8,0-1.5-0.6-2.1-1.9c-1.1-1.8-0.7-3.6,0.4-5.1c2.5-2.9,4.7-6.1,6.2-9.8
			c0.5-1.3,1.5-2.1,2.7-2.1c0.4,0,0.9,0.1,1.3,0.3c1.8,0.7,2.5,1.8,1.8,3.6c-1.1,2.2-1.8,4-2.9,5.4v17.7c3.6-3.3,6.2-7.6,8.7-13
			h-4.3c-1.8,0-2.9-1.1-2.9-2.9c0-1.8,1.1-2.9,2.9-2.9h6.5v-5.8C111.9,74.8,113,73.8,114.8,73.8 M114.8,67.8c-3,0-5.5,1.2-7,3.3
			c-0.9-0.9-2-1.6-3.4-2.1c-1.2-0.5-2.4-0.7-3.5-0.7c-3.6,0-6.8,2.2-8.2,5.9c-1.1,2.7-2.8,5.4-5.1,8l-0.2,0.2l-0.1,0.2
			c-2.6,3.5-2.9,7.8-0.8,11.5c1,1.8,2.1,3,3.2,3.7v10c0,5.2,3.7,8.9,8.9,8.9c4,0,7.1-2.2,8.3-5.6c0,0,0,0,0,0
			c1.2,3.4,4.4,5.6,8.3,5.6c4.1,0,7.2-2.3,8.4-5.8c0.5,0.1,0.9,0.1,1.4,0.1c3.1,0,5.1-2,6-2.9c2.3-2.3,2.8-4.8,2.8-6.4
			c0-2.9-1.7-4.9-2.9-6.1c-0.5-0.7-1-1.4-1.4-2.1c2.6-1.5,4.3-4.3,4.3-7.7c0-5.2-3.7-8.9-8.9-8.9h-1.2v-0.1
			C123.7,71.5,119.9,67.8,114.8,67.8L114.8,67.8z"/>
	</g>
	<g>
		<path class="st5" d="M139.7,110c-4.4,0-7.6-1-10.2-3.2l-0.1-0.1l-0.1-0.1c-1.4-1.4-1.7-2.8-1.7-3.8s0.3-2.3,1.7-3.8
			c0.8-0.8,1.4-1.4,2.6-2c0.6-0.3,1.3-0.5,1.9-0.5c1.2,0,2.4,0.5,3.4,1.5c0.6,0.3,1.3,0.5,1.8,0.5c0.5,0,0.9-0.1,1.3-0.2
			c0,0,0-0.2,0-0.2c-0.2-0.1-0.5-0.3-0.9-0.5c-1.7-0.1-2.9-0.9-3.9-1.6l-0.2-0.2l-0.2-0.2c-1-1-1.6-2.5-1.6-3.9
			c0-1.9,1.1-3.7,2.8-4.5c0.4-0.2,0.9-0.4,1.4-0.6c0.4-0.2,0.8-0.3,1.1-0.5l0.1-0.1l0.1-0.1c0.4-0.2,0.6-0.3,0.6-0.3
			c-0.1,0-0.2,0-0.2,0c-0.3,0-0.6,0.1-1.2,0.3c-0.1,0-0.2,0.1-0.3,0.1c-1.1,0.7-2.2,1.1-3.4,1.1c-1.1,0-2.8-0.3-4.4-2l-0.1-0.1
			l-0.1-0.2c-1-1.4-1.5-2.7-1.4-4c0.1-1.5,0.9-2.8,2.3-3.8l0.1-0.1c3.1-2,6-2.3,8.5-2.3c3.7,0,6.8,1,9.1,2.8c2.5,2,3.7,4.6,3.7,8.1
			c0,1.8-0.4,4.1-2.1,6.1c0.1,0.1,0.2,0.2,0.3,0.3c2.9,2,3.2,4.8,3.2,6.7c0,3.6-1.6,6.7-4.6,8.6C146.3,109.1,143.2,110,139.7,110z"
			/>
		<path class="st5" d="M139.4,77.7c2.9,0,5.4,0.7,7.2,2.2c1.8,1.5,2.5,3.3,2.5,5.8c0,2.7-1.3,4.8-4.2,6.3c-0.2,0-0.3-0.1-0.5-0.1
			v0.4c0.2-0.1,0.3-0.2,0.5-0.2c1.5,0.4,2.5,1.4,3.5,2.4c1.8,1.1,2.1,2.6,2.1,4.4c0,2.5-1.1,4.7-3.3,6.2c-2.2,1.4-4.7,2.2-7.6,2.2
			c-3.6,0-6.1-0.7-8.3-2.5c-1.1-1.1-1.1-2.2,0-3.3c0.7-0.7,1.1-1.1,1.8-1.4c0.2-0.1,0.4-0.1,0.6-0.1c0.5,0,1.1,0.3,1.6,0.9
			c1.1,0.7,2.5,1.1,3.6,1.1c1.4,0,2.5-0.4,3.3-0.7c0.7-0.7,1.1-1.4,1.1-2.5c0-1.1-0.4-1.8-0.7-2.2s-1.4-1.1-2.5-1.4
			c-1.1,0-1.8-0.4-2.9-1.1c-0.4-0.4-0.7-1.1-0.7-1.8s0.4-1.5,1.1-1.8c0.7-0.4,1.8-0.7,2.5-1.1c1.8-0.7,2.5-1.8,2.5-3.3
			c0-1.1-0.4-1.8-0.7-2.2c-0.4-0.4-1.4-0.7-2.5-0.7c-1.1,0-1.8,0.4-2.9,0.7c-0.7,0.5-1.3,0.8-2,0.8c-0.8,0-1.5-0.4-2.3-1.1
			c-1.1-1.4-1.1-2.5,0.4-3.6C134.7,78.1,136.9,77.7,139.4,77.7 M139.4,71.7c-2.8,0-6.5,0.3-10.2,2.8l-0.1,0.1l-0.1,0.1
			c-4,3-4.7,7.9-1.6,12l0.3,0.3l0.3,0.3c1,1,2,1.6,2.9,2.1c-0.2,0.8-0.3,1.5-0.3,2.4c0,0.8,0.1,1.6,0.4,2.4c-0.1,0-0.2,0.1-0.3,0.2
			c-1.6,0.8-2.5,1.7-3.4,2.6c-2.1,2.1-2.6,4.4-2.6,5.9c0,1.5,0.4,3.7,2.6,5.9l0.2,0.2l0.2,0.2c4.2,3.5,9,3.9,12.2,3.9
			c4.1,0,7.8-1.1,10.9-3.2c3.8-2.5,5.9-6.6,5.9-11.1c0-3.1-0.9-5.6-2.6-7.5c0.8-1.7,1.2-3.5,1.2-5.5c0-4.4-1.6-7.9-4.8-10.5
			C147.5,72.9,143.7,71.7,139.4,71.7L139.4,71.7z"/>
	</g>
	<g>
		<path class="st5" d="M158.2,109.7c-2,0-3.1-1.1-3.6-1.6c-0.5-0.5-1.6-1.6-1.6-3.6V80.3c0-1.4,0.6-2.9,1.6-3.9c1-1,2.5-1.6,3.9-1.6
			h5.8c5.6,0,9.9,1.4,12.9,4.4c2.3,2,4.9,5.9,4.9,13.1c0,7.1-2.6,11-4.9,13c-2.6,2.9-6.9,4.5-12.3,4.5H158.2z M166.2,97.6
			c0.8-0.2,1.4-0.7,1.8-1.1c0.3-0.3,1.3-1.3,1.3-4.8s-1-4.4-1.3-4.8c-0.4-0.4-0.9-0.7-1.8-0.8V97.6z"/>
		<path class="st5" d="M164.3,77.7c4.7,0,8.3,1.1,10.9,3.6c2.5,2.2,4,5.8,4,10.9c0,5.1-1.5,8.7-4,10.9c-2.2,2.5-5.8,3.6-10.1,3.6
			h-6.9c-0.7,0-1.1-0.4-1.4-0.7c-0.4-0.4-0.7-0.7-0.7-1.4V80.3c0-0.7,0.4-1.4,0.7-1.8s1.1-0.7,1.8-0.7H164.3 M163.2,100.9h1.1
			c2.5,0,4.3-0.7,5.8-2.2c1.4-1.4,2.2-3.6,2.2-6.9s-0.7-5.4-2.2-6.9c-1.4-1.5-3.3-1.8-5.8-1.8h-1.1v0V100.9 M164.3,71.7h-5.8
			c-2.2,0-4.5,0.9-6.1,2.5c-1.6,1.6-2.5,3.8-2.5,6.1v24.3c0,3.2,1.9,5.1,2.5,5.7c0.6,0.6,2.5,2.5,5.7,2.5h6.9
			c7.7,0,12.1-2.8,14.4-5.4c2.7-2.5,5.7-7,5.7-15.1c0-8.3-3.2-12.8-5.9-15.3C175.7,73.4,170.8,71.7,164.3,71.7L164.3,71.7z"/>
	</g>
	<g>
		<path class="st5" d="M214.9,112.9c-0.9,0-2.4-0.3-3.7-1.6c-0.5,0.1-1.1,0.2-1.7,0.3l-1.4,0.2c-5,0.8-8.4,0.8-9.5,0.8
			c-2.4,0-5.1-1.7-5.2-4.3c-3.3,1.3-4.5,1.9-4.8,2.1l-0.3,0.3l-0.6,0.2c-0.9,0.4-1.8,0.5-2.6,0.5c-1.3,0-3.8-0.5-5-4.2
			c-0.5-1.6-0.7-2.8,0.2-4.5l0.2-0.4l0.3-0.3c0.2-0.2,0.4-0.4,0.6-0.6c-0.3-0.4-0.9-1.1-1.1-2.1c-0.2-0.4-0.4-1-0.4-1.7v-1.1
			c0-0.9,0.3-1.6,0.7-2.1c0.1-0.2,0.2-0.3,0.3-0.5c0.2-0.4,0.4-0.9,0.8-1.3c-0.6-0.7-1.3-1.5-1.8-2.4l-0.1-0.1l0-0.1
			c-1.1-2.8-0.6-5.4,1.4-7.3c0.1-0.2,0.3-0.4,0.5-0.6c0.4-0.9,0.8-2,1.3-3.4c0.2-0.6,0.5-1.3,0.7-2c0.4-1.2,0.9-2.4,2.2-3.7
			c1.2-1.2,2.4-1.4,3.2-1.4c1,0,1.9,0.3,2.9,0.9c2.9,1.5,3.9,4.3,2.7,7.3c-0.1,0.2-0.2,0.4-0.3,0.7c0.8,0.1,1.7,0.4,2.6,1
			c2-1.8,3.8-4,5.3-6.4c0.8-1.5,2.2-2.2,3.1-2.7c0.6-0.3,1.3-0.5,2.1-0.5c0.5,0,0.9,0.1,1.2,0.1c0.1,0,0.2,0,0.3,0h0.7l0.6,0.3
			c0.1,0.1,0.2,0.1,0.3,0.1c0.6,0.2,1.6,0.7,2.3,1.9c0.4,0.5,0.8,1.3,0.8,2.3c1.7,1.9,3.4,3.6,5.2,5.4l0,0c2.6,2.1,3.4,5.4,1.8,8.3
			c-0.3,0.6-0.6,1.1-0.9,1.5c0.5,0.9,0.8,2,0.8,3.3c0,2.4-1,4.1-2.8,5c1.2,2,2,3.8,2.5,5c0.9,1.9,0.6,3.9-0.6,5.2
			c-0.4,0.4-1.1,1.1-2.2,1.6l-0.1,0.1l-0.1,0C216.6,112.7,215.7,112.9,214.9,112.9z"/>
		<path class="st5" d="M189.3,74.7c0.4,0,0.9,0.2,1.4,0.5c1.4,0.7,2.2,1.8,1.4,3.6c-1.1,2.5-2.2,4.7-3.3,6.9c0,0.4-0.4,0.4,0,0.7
			c0,0,0.4,0,0.7,0h0.7c0,0,0.4-0.4,0.4-0.7s0.4-0.7,0.4-0.7c0.4-0.7,1.1-1.4,2.2-1.4c1.1,0,1.8,0,2.5,0.7c0.4,0.4,0.7,0.4,0.7,0.7
			c0,0.4,0,0.7,0,1.1c3.6-2.5,6.5-5.8,8.7-9.4c0.4-0.7,1.1-1.1,1.8-1.4c0.2-0.1,0.5-0.2,0.7-0.2c0.5,0,1,0.2,1.4,0.2
			c0.7,0.4,1.1,0.4,1.4,1.1c0.4,0.4,0.4,0.7,0,1.5c2.2,2.5,4.3,4.7,6.5,6.9c1.4,1.1,2.2,2.9,1.1,4.7c-0.4,1.1-1,1.6-1.6,1.6
			c-0.5,0-1-0.3-1.6-0.9v1.1c-0.3-0.4-0.7-0.4-1.4-0.4H202c-0.4,0-0.7,0-1.1-0.4c-0.4-0.4-0.4-0.7-0.4-1.1c0,0-0.7,0.4-1.4,1.1
			c-0.4,0.4-0.7,0.4-0.7,0.4c-0.4,0-0.4-0.4-0.7-0.4c-0.7-1.5-1.1-2.9-1.8-4.3c-1.1,2.2-2.5,4.7-4.3,7.2l1.5-0.4
			c0.3-0.1,0.6-0.1,0.8-0.1c1.3,0,2,0.8,2,2.3c0,0.7-0.4,1.5-1.5,1.8c-1.1,0.7-1.8,1.1-2.9,1.4c-1.1,0.4-1.8,0.4-2.5,0.7
			c-0.7,0-1.1,0.4-1.8,0.4c-0.7,0-1.1,0.4-1.5,0.4s-0.7,0-1.1,0c-0.4,0-0.7-0.4-0.7-0.4s-0.4-0.4-0.4-0.7s-0.4-0.7-0.4-1.1
			c0-0.4,0-0.7,0-1.1c0-0.4,0.4-0.7,0.4-0.7c0-0.4,0.4-0.4,0.4-0.7s0.4-0.4,0.7-0.7s0.4-0.4,0.7-0.7c0.4-0.7,1.1-1.5,1.8-2.9
			c-0.4,0-0.7,0-0.7,0c-0.5,0.2-1,0.3-1.4,0.3s-0.6-0.1-0.8-0.3c-0.4-0.4-1.1-1.1-1.4-1.8c-0.7-1.8-0.4-3.3,1.1-4.3
			c0,0,0-0.4,0.4-0.4c0.7-1.5,1.4-3.6,2.5-6.5c0.4-1.1,0.7-1.8,1.4-2.5C188.6,74.9,188.9,74.7,189.3,74.7 M204.5,86h6.2
			c0.7,0,0.7-0.4,0.4-0.7c-1.1-1.1-2.2-2.5-3.6-4.3c-1.1,1.5-2.2,2.9-3.3,4.3C203.8,85.7,203.8,86,204.5,86 M215.3,92.9
			c1.8,0,2.5,0.7,2.5,2.5s-0.7,2.5-2.5,2.5h-7.2c-0.4,0.7-0.7,1.4-1.8,2.9c-0.7,1.4-1.4,2.2-1.8,2.9l6.1-0.4c0,0,0-0.4-0.4-0.4v-0.4
			c-0.7-1.4-0.4-2.5,1.1-3.3c0.5-0.2,0.9-0.4,1.3-0.4c0.8,0,1.4,0.5,1.9,1.5c1.4,2.2,2.5,4.3,3.3,6.2c0.4,0.7,0.4,1.4,0,1.8
			s-0.7,0.7-1.4,1.1c-0.6,0.2-1.1,0.3-1.5,0.3c-0.9,0-1.6-0.6-2.1-1.8c-1.1,0-2.9,0.4-5.1,0.7c-4.7,0.7-8,0.7-9.1,0.7
			s-2.2-0.7-2.2-1.5c0-0.7,0-1.1,0-1.4c0-0.4,0-0.7,0.4-1.1c0.4-0.4,0.4-0.4,0.7-0.7s0.4-0.4,0.7-0.4c0.4-0.4,0.4-0.4,0.7-0.4
			c0.4-0.7,1.4-2.5,3.3-5.4h-2.5c-1.8,0-2.5-0.7-2.5-2.5c-0.3-2.5,0.4-3.2,2.2-3.2H215.3 M193.3,100.3c0.4,0,0.7,0.1,1.1,0.3
			c0.7,0.4,1.1,0.7,1.1,1.8c0.4,1.1-0.4,2.2-1.4,2.5c-4.7,1.8-6.9,2.9-7.2,3.3c-0.5,0.2-1,0.3-1.5,0.3c-1,0-1.7-0.6-2.2-2.1
			c-0.4-1.1-0.4-1.4,0-2.2c0.4-0.4,0.7-0.7,1.4-1.1c1.4-0.4,4-1.4,7.6-2.5C192.6,100.3,192.9,100.3,193.3,100.3 M189.3,68.7
			c-1.4,0-3.5,0.4-5.4,2.3c-1.6,1.6-2.4,3.3-2.9,4.8c-0.3,0.7-0.5,1.4-0.7,2c-0.4,1.1-0.8,2.1-1.1,2.9c0,0-0.1,0.1-0.1,0.1
			c-2.7,2.7-3.5,6.6-2,10.4l0.1,0.2l0.1,0.2c0.2,0.5,0.5,0.9,0.8,1.3c0,0,0,0.1,0,0.1c-0.5,0.9-1,2.1-1,3.5v1.1
			c0,1.1,0.3,2.1,0.6,2.7c0.1,0.3,0.2,0.6,0.3,0.8l-0.2,0.4c-1.4,2.7-1,4.8-0.3,6.7c1.9,5.7,6.1,6.3,7.9,6.3c1.2,0,2.4-0.2,3.7-0.8
			l1.2-0.5l0.4-0.4c0.3-0.1,0.7-0.3,1.3-0.6c1.5,2,4,3.3,6.8,3.3c1.2,0,4.8,0,10-0.8l0,0l0,0c0.5-0.1,0.9-0.2,1.4-0.2
			c0.1,0,0.2,0,0.2,0c1.8,1.2,3.6,1.4,4.6,1.4c1.2,0,2.4-0.3,3.7-0.8l0.3-0.1l0.2-0.1c1.5-0.7,2.3-1.5,3-2.2
			c2.2-2.2,2.6-5.5,1.3-8.5c-0.3-0.8-0.8-1.9-1.4-3.1c1.2-1.5,1.9-3.4,1.9-5.7c0-1.1-0.2-2.1-0.5-3c0.1-0.1,0.1-0.3,0.2-0.4
			c2.2-4.1,1.2-8.8-2.5-11.8c-1.5-1.5-2.9-3-4.4-4.5c-0.2-1.1-0.7-2-1.1-2.6c-1.2-2.1-2.9-2.8-3.7-3.1c0,0-0.1,0-0.1-0.1l-1.3-0.6
			l-1.2,0l0,0c-0.4-0.1-1-0.2-1.7-0.2c-1.2,0-2.4,0.3-3.4,0.8c-1,0.5-3.1,1.5-4.3,3.9c-0.5,0.8-1.1,1.6-1.6,2.4
			c-0.4-2.5-2-4.7-4.6-6.1C192.3,69.1,190.9,68.7,189.3,68.7L189.3,68.7z"/>
	</g>
	<g>
		<path class="st5" d="M240.3,113.6c-3.6,0-5.9-2.3-5.9-5.9v-0.3h-0.6c-1.4,0-2.9-0.6-3.9-1.6c0,0-0.1-0.1-0.1-0.1
			c-1.2,0.9-2.5,1.4-3.8,1.4c-1.1,0-2.8-0.3-4.4-2l-0.2-0.2l-0.2-0.3c-0.8-1.2-1.6-2.5-1.6-4.2c0-2.5,2.1-4,3-4.6
			c2.6-2.1,4.6-4.3,6.1-6.5h-2.9c-3.5,0-5.9-2.4-5.9-5.9c0-3.5,2.4-5.9,5.9-5.9h8.2v-1.3c0-3.5,2.4-5.9,5.9-5.9
			c3.5,0,5.9,2.4,5.9,5.9v1.3h8.6c3.5,0,5.9,2.4,5.9,5.9c0,3.5-2.4,5.9-5.9,5.9h-2.3c1.7,2.2,3.5,3.9,5.5,5.4c1.5,1,2.5,2.1,3.1,3.3
			c1,2,0.4,4.4-1.7,6.4c-1,1-2.3,2.3-4.3,2.3c-1.5,0-2.8-0.7-3.9-1.4c-0.2,0.2-0.4,0.4-0.5,0.5c-0.5,0.5-1.6,1.6-3.6,1.6h-0.6v0.3
			C246.2,111.2,243.8,113.6,240.3,113.6z"/>
		<path class="st5" d="M240,73.4c1.8,0,2.9,1.1,2.9,2.9l0,4.3h0h0h11.6c1.8,0,2.9,1.1,2.9,2.9c0,1.8-1.1,2.9-2.9,2.9h-8
			c2.5,4.3,5.4,8,9.4,10.9c1.1,0.7,1.8,1.5,2.2,2.2c0.4,0.7,0,1.8-1.1,2.9c-0.7,0.7-1.4,1.4-2.2,1.4c-0.7,0-1.4-0.4-2.5-1.1
			c-1.1-0.7-2.2-1.8-3.3-2.9v2.5c0,0.7-0.4,1.1-0.7,1.4s-0.7,0.7-1.4,0.7h-3.6v3.3c0,1.8-1.1,2.9-2.9,2.9c-2.2,0-2.9-1.1-2.9-2.9
			v-3.3h-3.6c-0.7,0-1.4-0.4-1.8-0.7s-0.7-1.1-0.7-1.8v-1.5c-0.7,0.7-1.8,1.8-3.3,2.9c-0.7,0.5-1.3,0.8-2,0.8
			c-0.8,0-1.5-0.4-2.3-1.1c-0.7-1.1-1.1-1.8-1.1-2.5s0.7-1.4,1.8-2.2c4-3.3,7.2-6.9,9.4-11.9h-8c-1.8,0-2.9-1.1-2.9-2.9
			c0-1.8,1.1-2.9,2.9-2.9h11.2v-4.3C237.1,74.5,238.2,73.4,240,73.4 M242.9,98.4h4.7c-1.8-2.2-3.3-4.3-4.7-6.9V98.4 M232,98.3h4.7
			v-6.5C235.2,94.4,233.8,96.5,232,98.3 M240,67.4c-4.6,0-8,3-8.8,7.2h-5.4c-5.2,0-8.9,3.7-8.9,8.9c0,4,2.3,7.2,5.7,8.4
			c-0.6,0.5-1.2,1.1-1.9,1.7c-2.8,1.9-4.2,4.3-4.2,7c0,2.7,1.4,4.7,2.1,5.8l0.3,0.5l0.4,0.4c2.4,2.4,4.9,2.9,6.6,2.9
			c0.9,0,2.2-0.2,3.6-0.8c0.7,0.4,1.4,0.6,2.1,0.8c0.9,3.9,4.2,6.4,8.6,6.4c4.3,0,7.6-2.6,8.6-6.4c1-0.3,1.8-0.7,2.4-1.2
			c1,0.4,2.2,0.7,3.4,0.7c3.2,0,5.3-2.1,6.4-3.2c2.9-2.9,3.8-6.7,2.2-9.8c-0.8-1.6-2.2-3.1-4.1-4.4c-0.3-0.2-0.7-0.5-1-0.8
			c3-1.4,5-4.4,5-8.1c0-5.2-3.7-8.9-8.9-8.9h-5.7C248,70.4,244.5,67.4,240,67.4L240,67.4z"/>
	</g>
</g>
<g>
	<path class="st6" d="M33.8,86.9h13c1.8,0,2.9,1.1,2.9,2.9s-1.1,2.9-2.9,2.9h-13v3.3l0.7-1.1c0.4-0.4,0.7-0.7,1.1-0.7
		c3.6,1.1,6.5,2.2,9.4,3.3c1.1,0.4,1.5,1.1,1.5,1.4c0,0.7,0,1.4-0.7,2.2c-0.4,0.7-1.1,1.4-1.5,1.8s-1.1,0-2.2-0.4
		c-2.2-1.1-5.1-2.2-8.7-3.6v8.3c0,1.8-1.1,2.9-2.9,2.9c-1.8,0-2.9-1.1-2.9-2.9V92.3H16.8c-1.8,0-2.9-1.1-2.9-2.9s1.1-2.9,2.9-2.9
		h10.9V76c0-1.8,1.1-2.9,2.9-2.9c1.8,0,2.9,1.1,2.9,2.9v1.4h9c1.8,0,2.5,0.7,2.5,2.5s-0.7,2.5-2.5,2.5h-8.7L33.8,86.9L33.8,86.9z"/>
	<path class="st6" d="M85.6,84.3H67.8c-1.1,2.2-1.8,4-2.9,5.1H70v-1.1c0-1.8,1.1-2.9,2.9-2.9c1.8,0,2.9,1.1,2.9,2.9v1.1h8.3
		c0.7,0,1.4,0.4,1.8,0.7s0.7,1.1,0.7,1.8v9.4c0,1.4,0,2.2-0.4,2.9s-1.1,1.4-1.8,1.8s-2.2,0.7-3.6,0.7c-1.8,0-2.9-0.7-3.6-1.8
		c-0.4-1.1-0.4-1.8,0.4-2.2c0.4-0.4,1.4-0.7,2.5-0.7l0,0c0.4,0,0.7-0.4,0.7-0.7v-6.5h-5.1v13c0,1.8-1.1,2.9-2.9,2.9
		c-1.8,0-2.9-1.1-2.9-2.9v-13h-5.1v9.4c0,1.8-1.1,2.9-2.9,2.9c-1.8,0-2.9-1.1-2.9-2.9v-7.6c-0.7,0.7-1.5,1.4-1.8,1.8
		c-0.7,0.7-1.5,1.1-2.2,1.1s-1.5-0.7-1.8-1.4c-1.1-1.8-0.7-3.3,1.1-4.3c2.5-2.2,5.1-5.4,7.2-9.4h-5.4c-1.8,0-2.5-1.1-2.5-2.9
		s0.7-2.5,2.5-2.5h7.6c0.4-1.1,0.7-1.8,0.7-2.5c0.4-1.8,1.8-2.5,3.6-2.2s2.5,1.8,2.2,3.6c0,0.4-0.4,0.7-0.4,1.1h15.6
		c1.8,0,2.5,0.7,2.5,2.5C88.1,83.3,87.4,84.3,85.6,84.3z"/>
	<path class="st6" d="M118.1,82.9h6.9c1.8,0,2.9,1.1,2.9,2.9s-1.1,2.9-2.9,2.9h-4.7c1.8,4.3,4,8,6.2,10.9c0.7,0.7,1.4,1.4,1.4,2.2
		s-0.4,1.4-1.1,2.2c-0.7,0.7-1.4,1.4-2.2,1.1c-0.7,0-1.4-0.7-2.2-1.4c-1.4-2.2-3.3-4.7-4.3-8v12.3c0,1.8-1.1,2.9-2.9,2.9
		s-2.9-1.1-2.9-2.9V96.3c-1.8,3.3-3.6,6.2-5.4,8.3c-0.4,0.7-1.1,0.7-1.8,0.7s-1.1-0.4-1.8-1.1c-0.4-0.7-1.1-1.1-1.8-1.8v5.4
		c0,1.8-1.1,2.9-2.9,2.9s-2.9-1.1-2.9-2.9V91.9l0,0l0,0c-1.4,1.8-2.9,1.4-4-0.7c-1.1-1.8-0.7-3.6,0.4-5.1c2.5-2.9,4.7-6.2,6.2-9.8
		c0.7-1.8,2.2-2.5,4-1.8c1.8,0.7,2.5,1.8,1.8,3.6c-1.1,2.2-1.8,4-2.9,5.4v17.7c3.6-3.3,6.2-7.6,8.7-13h-4.3c-1.8,0-2.9-1.1-2.9-2.9
		s1.1-2.9,2.9-2.9h6.5v-5.8c0-1.8,1.1-2.9,2.9-2.9s2.9,1.1,2.9,2.9v6.2H118.1z"/>
	<path class="st6" d="M150.7,98.8c0,2.5-1.1,4.7-3.3,6.2s-4.7,2.2-7.6,2.2c-3.6,0-6.2-0.7-8.3-2.5c-1.1-1.1-1.1-2.2,0-3.3
		c0.7-0.7,1.1-1.1,1.8-1.4s1.4,0,2.2,0.7c1.1,0.7,2.5,1.1,3.6,1.1c1.4,0,2.5-0.4,3.3-0.7c0.7-0.7,1.1-1.4,1.1-2.5
		c0-1.1-0.4-1.8-0.7-2.2s-1.4-1.1-2.5-1.4c-1.1,0-1.8-0.4-2.9-1.1c-0.4-0.4-0.7-1.1-0.7-1.8s0.4-1.4,1.1-1.8
		c0.7-0.4,1.8-0.7,2.5-1.1c1.8-0.7,2.5-1.8,2.5-3.3c0-1.1-0.4-1.8-0.7-2.2s-1.4-0.7-2.5-0.7c-1.1,0-1.8,0.4-2.9,0.7
		c-1.4,1.1-2.9,1.1-4.3-0.4c-1.1-1.4-1.1-2.5,0.4-3.6c2.2-1.4,4.3-1.8,6.9-1.8c2.9,0,5.4,0.7,7.2,2.2c1.8,1.4,2.5,3.3,2.5,5.8
		c0,2.9-1.4,5.1-4.7,6.5v-0.4c1.8,0.4,2.9,1.4,4,2.5C150.3,95.6,150.7,97,150.7,98.8z"/>
	<path class="st6" d="M165.2,106.8h-6.9c-0.7,0-1.1-0.4-1.4-0.7s-0.7-0.7-0.7-1.4V80.4c0-0.7,0.4-1.4,0.7-1.8s1.1-0.7,1.8-0.7h5.8
		c4.7,0,8.3,1.1,10.9,3.6c2.5,2.2,4,5.8,4,10.9s-1.4,8.7-4,10.9C173.1,105.7,169.5,106.8,165.2,106.8z M163.4,83.3V101h1.1
		c2.5,0,4.3-0.7,5.8-2.2s2.2-3.6,2.2-6.9c0-3.3-0.7-5.4-2.2-6.9s-3.3-1.8-5.8-1.8L163.4,83.3L163.4,83.3z"/>
	<path class="st6" d="M213.7,90.9h-11.6c-0.4,0-0.7,0-1.1-0.4c-0.4-0.4-0.4-0.7-0.4-1.1l0,0c0,0-0.7,0.4-1.4,1.1
		c-0.4,0.4-0.7,0.4-0.7,0.4c-0.4,0-0.4-0.4-0.7-0.4c-0.7-1.4-1.1-2.9-1.8-4.3c-1.1,2.2-2.5,4.7-4.3,7.2L193,93
		c1.8-0.4,2.9,0.4,2.9,2.2c0,0.7-0.4,1.4-1.4,1.8c-1.1,0.7-1.8,1.1-2.9,1.4c-1.1,0.4-1.8,0.4-2.5,0.7c-0.7,0-1.1,0.4-1.8,0.4
		s-1.1,0.4-1.4,0.4s-0.7,0-1.1,0c-0.4,0-0.7-0.4-0.7-0.4s-0.4-0.4-0.4-0.7s-0.4-0.7-0.4-1.1c0-0.4,0-0.7,0-1.1
		c0-0.4,0.4-0.7,0.4-0.7c0-0.4,0.4-0.4,0.4-0.7s0.4-0.4,0.7-0.7s0.4-0.4,0.7-0.7c0.4-0.7,1.1-1.4,1.8-2.9c-0.4,0-0.7,0-0.7,0
		c-1.1,0.4-1.8,0.4-2.2,0s-1.1-1.1-1.4-1.8c-0.7-1.8-0.4-3.3,1.1-4.3c0,0,0-0.4,0.4-0.4c0.7-1.4,1.4-3.6,2.5-6.5
		c0.4-1.1,0.7-1.8,1.4-2.5c0.7-0.7,1.4-0.7,2.5,0c1.4,0.7,2.2,1.8,1.4,3.6c-1.1,2.5-2.2,4.7-3.3,6.9c0,0.4-0.4,0.4,0,0.7
		c0,0,0.4,0,0.7,0h0.7c0,0,0.4-0.4,0.4-0.7s0.4-0.7,0.4-0.7c0.4-0.7,1.1-1.4,2.2-1.4c1.1,0,1.8,0,2.5,0.7c0.4,0.4,0.7,0.4,0.7,0.7
		s0,0.7,0,1.1c3.6-2.5,6.5-5.8,8.7-9.4c0.4-0.7,1.1-1.1,1.8-1.4s1.4,0,2.2,0c0.7,0.4,1.1,0.4,1.4,1.1c0.4,0.4,0.4,0.7,0,1.4l0,0l0,0
		c2.2,2.5,4.3,4.7,6.5,6.9c1.4,1.1,2.2,2.9,1.1,4.7c-0.7,1.8-1.8,2.2-3.3,0.7l0,0l0,0v1.1C214.7,90.9,214.4,90.9,213.7,90.9z
		 M194.1,105c-4.7,1.8-6.9,2.9-7.2,3.3c-1.8,0.7-2.9,0.4-3.6-1.8c-0.4-1.1-0.4-1.4,0-2.2c0.4-0.4,0.7-0.7,1.4-1.1
		c1.4-0.4,4-1.4,7.6-2.5c0.7-0.4,1.4-0.4,2.2,0s1.1,0.7,1.1,1.8C195.9,103.5,195.2,104.6,194.1,105z M199.5,93h15.9
		c1.8,0,2.5,0.7,2.5,2.5s-0.7,2.5-2.5,2.5h-7.2c-0.4,0.7-0.7,1.4-1.8,2.9c-0.7,1.4-1.4,2.2-1.8,2.9l6.1-0.4c0,0,0-0.4-0.4-0.4v-0.4
		c-0.7-1.4-0.4-2.5,1.1-3.3s2.5-0.4,3.3,1.1c1.4,2.2,2.5,4.3,3.3,6.2c0.4,0.7,0.4,1.4,0,1.8s-0.7,0.7-1.4,1.1
		c-1.8,0.7-2.9,0.4-3.6-1.4l0,0l0,0c-1.1,0-2.9,0.4-5.1,0.7c-4.7,0.7-8,0.7-9.1,0.7s-2.2-0.7-2.2-1.4c0-0.7,0-1.1,0-1.4
		s0-0.7,0.4-1.1c0.4-0.4,0.4-0.4,0.7-0.7s0.4-0.4,0.7-0.4c0.4-0.4,0.4-0.4,0.7-0.4c0.4-0.7,1.4-2.5,3.3-5.4h-2.5
		c-1.8,0-2.5-0.7-2.5-2.5C197,93.7,197.7,93,199.5,93z M204.6,86.1h6.1c0.7,0,0.7-0.4,0.4-0.7c-1.1-1.1-2.2-2.5-3.6-4.3
		c-1.1,1.4-2.2,2.9-3.3,4.3C203.9,85.8,203.9,86.1,204.6,86.1z"/>
	<path class="st6" d="M243,80.7h11.6c1.8,0,2.9,1.1,2.9,2.9s-1.1,2.9-2.9,2.9h-8c2.5,4.3,5.4,8,9.4,10.9c1.1,0.7,1.8,1.4,2.2,2.2
		c0.4,0.7,0,1.8-1.1,2.9c-0.7,0.7-1.4,1.4-2.2,1.4s-1.4-0.4-2.5-1.1c-1.1-0.7-2.2-1.8-3.3-2.9v2.5c0,0.7-0.4,1.1-0.7,1.4
		s-0.7,0.7-1.4,0.7h-3.6v3.3c0,1.8-1.1,2.9-2.9,2.9c-2.2,0-2.9-1.1-2.9-2.9v-3.3h-3.6c-0.7,0-1.4-0.4-1.8-0.7s-0.7-1.1-0.7-1.8v-1.4
		c-0.7,0.7-1.8,1.8-3.3,2.9c-1.4,1.1-2.9,1.1-4.3-0.4c-0.7-1.1-1.1-1.8-1.1-2.5s0.7-1.4,1.8-2.2c4-3.3,7.2-6.9,9.4-11.9h-8
		c-1.8,0-2.9-1.1-2.9-2.9s1.1-2.9,2.9-2.9h11.2v-4.3c0-1.8,1.1-2.9,2.9-2.9c1.8,0,2.9,1.1,2.9,2.9L243,80.7L243,80.7z M236.8,91.9
		c-1.4,2.5-2.9,4.7-4.7,6.5h4.7V91.9z M247.7,98.5c-1.8-2.2-3.3-4.3-4.7-6.9v6.9H247.7z"/>
</g>
<g>
	<path class="st7" d="M96.6,68.1c0,0-17.7-6-40.7-3.1L65,37.2c0,0,27.3-0.5,31.4,2.9"/>
	<path class="st8" d="M96.6,68.1c0,0-17.7-9.8-40.7-7L65,33.4c0,0,27.3-0.5,31.4,2.9"/>
	<path class="st9" d="M74.1,18.8L65,46.3c0,0,13.2,4.5,19.4,9.3s12,12,12.2,12.7V36.2C96.6,36.2,84.8,24,74.1,18.8z"/>
	<path class="st9" d="M60.9,53c0,0,22.5,1.9,35.7,15.3V36.2c0,0-21.1-11-26.6-11C67.4,33.1,60.9,53,60.9,53z"/>
	
		<linearGradient id="SVGID_1_" gradientUnits="userSpaceOnUse" x1="105.8055" y1="-2113.8892" x2="64.9705" y2="-2104.1123" gradientTransform="matrix(1 0 0 -1 0 -2065.4312)">
		<stop  offset="0" style="stop-color:#333366"/>
		<stop  offset="2.800000e-02" style="stop-color:#2A5881"/>
		<stop  offset="6.400000e-02" style="stop-color:#207F9E"/>
		<stop  offset="0.104" style="stop-color:#17A2B7"/>
		<stop  offset="0.147" style="stop-color:#10BFCD"/>
		<stop  offset="0.194" style="stop-color:#0AD6DE"/>
		<stop  offset="0.248" style="stop-color:#06E9EC"/>
		<stop  offset="0.312" style="stop-color:#02F5F5"/>
		<stop  offset="0.396" style="stop-color:#01FDFA"/>
		<stop  offset="0.58" style="stop-color:#00FFFC"/>
		<stop  offset="1" style="stop-color:#FAFEF2"/>
	</linearGradient>
	<path class="st10" d="M74.1,18.8L65,46.3c0,0,13.2,4.5,19.4,9.3s12,12,12.2,12.7V36.2C96.6,36.2,84.8,24,74.1,18.8z"/>
	<path class="st11" d="M61.8,55.4c0,0,22,1.7,34.7,12.9c-10.8-11-28-14.1-33.8-15.1L61.8,55.4z"/>
	<path class="st11" d="M84.4,55.4c-5.3-4.3-15.8-8.1-18.7-9.1L65,48.2c0,0,13.2,4.1,19.4,8.4c6.2,4.3,12,10.8,12.2,11.3
		C96.3,67.4,90.6,60.4,84.4,55.4z"/>
	<path class="st7" d="M96.6,68.1c0,0,17.7-6,40.7-3.1l-9.1-27.8c0,0-27.3-0.5-31.4,2.9"/>
	<path class="st8" d="M96.6,68.1c0,0,17.7-9.8,40.7-7l-9.1-27.8c0,0-27.3-0.5-31.4,2.9"/>
	<path class="st9" d="M119.1,18.8l9.1,27.3c0,0-13.2,4.5-19.4,9.3s-12,12-12.2,12.7V36.2C96.6,36.2,108.3,24,119.1,18.8z"/>
	<path class="st9" d="M132.3,53c0,0-22.5,1.9-35.7,15.3V36.2c0,0,21.1-11,26.6-11C125.8,33.1,132.3,53,132.3,53z"/>
	
		<linearGradient id="SVGID_2_" gradientUnits="userSpaceOnUse" x1="-90.4316" y1="-2061.3813" x2="-131.2651" y2="-2051.6018" gradientTransform="matrix(1 0 0 -1 0 -2065.4312)">
		<stop  offset="0" style="stop-color:#333366"/>
		<stop  offset="2.800000e-02" style="stop-color:#2A5881"/>
		<stop  offset="6.400000e-02" style="stop-color:#207F9E"/>
		<stop  offset="0.104" style="stop-color:#17A2B7"/>
		<stop  offset="0.147" style="stop-color:#10BFCD"/>
		<stop  offset="0.194" style="stop-color:#0AD6DE"/>
		<stop  offset="0.248" style="stop-color:#06E9EC"/>
		<stop  offset="0.312" style="stop-color:#02F5F5"/>
		<stop  offset="0.396" style="stop-color:#01FDFA"/>
		<stop  offset="0.58" style="stop-color:#00FFFC"/>
		<stop  offset="1" style="stop-color:#FAFEF2"/>
	</linearGradient>
	<path class="st12" d="M119.1,18.8l9.1,27.3c0,0-13.2,4.5-19.4,9.3s-12,12-12.2,12.7V36.2C96.6,36.2,108.3,24,119.1,18.8z"/>
	<path class="st11" d="M131.3,55.4c0,0-22,1.7-34.7,12.9c10.8-11,28-14.1,33.8-15.1L131.3,55.4z"/>
	<path class="st11" d="M108.8,55.4c5.3-4.3,15.8-8.1,18.7-9.1l0.7,1.9c0,0-13.2,4.1-19.4,8.4c-6,4.3-12,10.8-12.2,11.3
		C96.8,67.4,102.8,60.4,108.8,55.4z"/>
	<path class="st13" d="M97.1,2.5c0,0,0,1.4,0.7,1.9c0.7,0.7,2.2,1,2.2,1l0,0l0,0c0,0-1.4,0-2.2,0.7c-1,1-0.7,2.6-0.7,2.6l0,0l0,0
		c0,0,0-1.4-0.7-2.2s-2.2-0.7-2.2-0.7l0,0l0,0c0,0,1.4-0.2,2.2-1C96.6,3.7,96.8,2.5,97.1,2.5C96.8,2.5,96.8,2.5,97.1,2.5
		C96.8,2.5,97.1,2.5,97.1,2.5z"/>
	<path class="st13" d="M101.6,26.9c0,0,0,1.7,1,2.6c1,1,2.9,1.2,2.9,1.2s0,0,0,0.2s0,0,0,0.2c0,0-1.9,0-2.9,1c-1,1-0.7,2.9-0.7,2.9
		s0,0-0.2,0s0,0-0.2,0c0,0,0.2-1.9-0.7-2.9c-1-0.9-2.9-1-2.9-1s0,0,0-0.2s0,0,0-0.2c0,0,1.9-0.2,2.9-1.2
		C101.6,28.6,101.6,26.9,101.6,26.9C101.4,26.9,101.4,26.9,101.6,26.9L101.6,26.9z"/>
	<path class="st13" d="M89.4,12.3c0,0,0,2.4,1.2,3.4c1.2,1.4,3.6,1.7,3.6,1.7l0,0l0,0l0,0l0,0c0,0-2.6,0-3.8,1.2
		c-1.2,1.2-1.2,3.8-1.2,3.8s0,0-0.2,0s-0.2,0-0.2,0s0.2-2.4-1.2-3.8c-1.2-1.2-3.8-1.2-3.8-1.2l0,0l0,0l0,0l0,0c0,0,2.4-0.2,3.6-1.7
		c1.2-1.2,1.2-3.3,1.2-3.3l0,0C89.2,12.1,89.2,12.1,89.4,12.3C89.2,12.1,89.2,12.1,89.4,12.3C89.2,12.1,89.4,12.1,89.4,12.3z"/>
	<path class="st13" d="M117.4,20.9c0,0,0,2.4,1.2,3.4c1.2,1.4,3.6,1.4,3.6,1.4l0,0l0,0l0,0l0,0c0,0-2.6,0-3.8,1.2
		c-1.2,1.9-1,4.3-1,4.3s0,0-0.2,0h-0.2c0,0,0.2-2.4-1.2-3.8c-1.2-1.2-3.8-1.2-3.8-1.2l0,0l0,0l0,0l0,0c0,0,2.4-0.2,3.6-1.7
		c1.2-1.2,1.2-3.4,1.2-3.4l0,0C116.9,20.7,117.2,20.7,117.4,20.9C117.2,20.7,117.2,20.7,117.4,20.9
		C117.2,20.9,117.2,20.9,117.4,20.9z"/>
	<path class="st13" d="M83.2,29.8c0,0,0,2.2,1.2,3.4c1.2,1.4,3.6,1.4,3.6,1.4l0,0l0,0l0,0l0,0c0,0-2.6,0-3.8,1.2
		c-1.2,1.2-1.2,3.8-1.2,3.8s0,0-0.2,0s-0.2,0-0.2,0s0.2-2.4-1.2-3.8c-1.2-1.2-3.8-1.2-3.8-1.2l0,0l0,0l0,0l0,0c0,0,2.4-0.2,3.6-1.7
		c1.2-1.2,1.2-3.3,1.2-3.3l0,0C82.9,29.5,82.9,29.5,83.2,29.8C82.9,29.5,83.2,29.5,83.2,29.8C83.2,29.5,83.2,29.5,83.2,29.8z"/>
	<path class="st13" d="M103.5,16.4c0,0,0,1.2,0.7,1.7c0.5,0.5,1.2,0.7,1.9,0.7l0,0l0,0l0,0l0,0c0,0-1.2,0-1.9,0.7
		c-1,0.7-0.7,2.2-0.7,2.2l0,0l0,0c0,0,0-1.2-0.5-1.9c-0.7-0.7-1.9-0.7-1.9-0.7l0,0l0,0l0,0l0,0c0.7,0,1.2-0.5,1.9-0.7
		C103.1,17.6,103.3,17.1,103.5,16.4C103.3,16.4,103.3,16.4,103.5,16.4C103.3,16.4,103.5,16.4,103.5,16.4z"/>
	<path class="st13" d="M89.9,43.7c0,0,0,1.2,0.7,1.9s2.2,1,2.2,1l0,0l0,0l0,0l0,0c0,0-1.4,0-2.2,0.7c-0.7,1-0.7,2.2-0.7,2.2l0,0l0,0
		c0,0,0-1.4-0.7-2.2S87,46.6,87,46.6l0,0l0,0l0,0l0,0c0,0,1.4-0.2,2.2-1C89.6,44.9,89.6,43.7,89.9,43.7L89.9,43.7z"/>
	<path class="st13" d="M110,37.4c0,0,0,1.2,0.7,1.7c0.5,0.5,1.2,0.7,1.9,0.7l0,0l0,0l0,0l0,0c0,0-1.2,0-1.9,0.7s-0.5,1.9-0.5,1.9
		l0,0l0,0c0,0,0-1.2-0.5-1.9c-0.7-0.7-1.9-0.7-1.9-0.7l0,0l0,0l0,0l0,0c0.7,0,1.2-0.5,1.9-1C109.5,38.6,109.8,37.9,110,37.4
		C109.8,37.4,109.8,37.4,110,37.4L110,37.4z"/>
	<path class="st13" d="M92,39.8c0.5,0,1-0.5,1-1s-0.5-1-1-1c-0.5,0-1,0.5-1,1C91.1,39.4,91.6,39.8,92,39.8z"/>
	<path class="st13" d="M99.9,8.5c0.5,0,0.7-0.2,0.7-0.7S100.4,7,99.9,7s-0.7,0.2-0.7,0.7C99.2,8.2,99.5,8.5,99.9,8.5z"/>
</g>
</svg>
