<?xml version="1.0" encoding="utf-8"?>
<!-- Generator: Adobe Illustrator 23.1.0, SVG Export Plug-In . SVG Version: 6.00 Build 0)  -->
<svg version="1.1" id="图层_1" xmlns="http://www.w3.org/2000/svg" xmlns:xlink="http://www.w3.org/1999/xlink" x="0px" y="0px"
	 viewBox="0 0 122 36" style="enable-background:new 0 0 122 36;" xml:space="preserve">
<style type="text/css">
	.st0{enable-background:new    ;}
	.st1{fill:#394864;}
</style>
<g class="st0">
	<path class="st1" d="M31.71,10.29l-4.19,7.17h2.97v2.16h-3.67v1.64h3.67v2.18h-3.67v2.99H23.5v-2.99h-3.79v-2.18h3.79v-1.64h-3.79
		v-2.16h3.05l-4.08-7.17h3.54c1.61,3.32,2.62,5.51,3.04,6.57h0.07c0.06-0.15,0.12-0.34,0.2-0.57c0.13-0.37,0.63-1.45,1.5-3.25
		l1.3-2.74H31.71z"/>
	<path class="st1" d="M40.76,23.62h6.85v2.8H36.88v-1.2c0-0.84,0.15-1.61,0.46-2.3c0.31-0.7,0.73-1.34,1.28-1.95s1.38-1.3,2.52-2.11
		c1.04-0.78,1.77-1.47,2.19-2.07c0.42-0.6,0.63-1.24,0.63-1.91c0-1.45-0.79-2.18-2.38-2.18c-1.39,0-2.72,0.56-3.98,1.67v-3
		c1.41-0.91,3-1.37,4.75-1.37c1.61,0,2.89,0.41,3.83,1.24c0.94,0.82,1.41,1.96,1.41,3.4c0,0.81-0.14,1.53-0.41,2.18
		c-0.27,0.65-0.66,1.26-1.18,1.83c-0.51,0.57-1.34,1.25-2.47,2.05c-1.09,0.78-1.82,1.38-2.2,1.8
		C40.95,22.94,40.76,23.31,40.76,23.62z"/>
	<path class="st1" d="M50.74,23.29c0.86,0.56,1.88,0.83,3.04,0.83c2.61,0,3.94-1.7,3.99-5.09l-0.06-0.02
		c-0.71,1.09-1.8,1.64-3.28,1.64c-1.34,0-2.44-0.47-3.31-1.41c-0.87-0.94-1.3-2.13-1.3-3.56c0-1.68,0.52-3.05,1.56-4.1
		c1.04-1.05,2.4-1.57,4.08-1.57c1.74,0,3.11,0.66,4.11,1.99s1.49,3.18,1.49,5.56c0,2.82-0.6,5.05-1.8,6.69
		c-1.2,1.64-2.92,2.46-5.18,2.46c-1.27,0-2.39-0.21-3.35-0.62V23.29z M53.13,15.37c0,0.85,0.21,1.53,0.62,2.01
		c0.41,0.49,0.98,0.73,1.69,0.73c0.64,0,1.17-0.23,1.58-0.7c0.41-0.47,0.62-1.04,0.62-1.73c0-0.83-0.21-1.55-0.62-2.17
		c-0.41-0.62-0.97-0.93-1.66-0.93c-0.67,0-1.21,0.27-1.62,0.8C53.33,13.93,53.13,14.59,53.13,15.37z"/>
	<path class="st1" d="M63.91,23.29c0.86,0.56,1.88,0.83,3.04,0.83c2.61,0,3.94-1.7,3.99-5.09l-0.06-0.02
		c-0.71,1.09-1.8,1.64-3.28,1.64c-1.34,0-2.44-0.47-3.31-1.41c-0.87-0.94-1.3-2.13-1.3-3.56c0-1.68,0.52-3.05,1.56-4.1
		c1.04-1.05,2.4-1.57,4.08-1.57c1.74,0,3.11,0.66,4.11,1.99c0.99,1.33,1.49,3.18,1.49,5.56c0,2.82-0.6,5.05-1.8,6.69
		c-1.2,1.64-2.92,2.46-5.18,2.46c-1.27,0-2.39-0.21-3.35-0.62V23.29z M66.29,15.37c0,0.85,0.21,1.53,0.62,2.01
		c0.41,0.49,0.98,0.73,1.69,0.73c0.64,0,1.17-0.23,1.58-0.7c0.41-0.47,0.62-1.04,0.62-1.73c0-0.83-0.21-1.55-0.62-2.17
		c-0.41-0.62-0.97-0.93-1.66-0.93c-0.67,0-1.21,0.27-1.62,0.8S66.29,14.59,66.29,15.37z"/>
	<path class="st1" d="M85.6,10.28L77.75,29.1h-3.01l7.82-18.82H85.6z"/>
	<path class="st1" d="M104.76,16.22v2.65h-5.9v3.27h7.32v2.65h-7.32v4.4h-3.04v-4.4h-9.88v-2.65h2.92v-5.1
		c-0.38,0.4-0.76,0.78-1.17,1.16c-0.53-0.79-1.15-1.68-1.88-2.67c2.11-1.74,3.74-4.06,4.88-6.96l3.23,0.48
		c-0.24,0.61-0.5,1.2-0.78,1.77h12.41v2.65h-6.69v2.75H104.76z M89.59,16.22h6.22v-2.75h-4.17C91.02,14.43,90.33,15.35,89.59,16.22z
		 M91.77,22.14h4.04v-3.27h-4.04V22.14z"/>
</g>
</svg>
